<svg width="274" height="242" viewBox="0 0 274 242" fill="none" xmlns="http://www.w3.org/2000/svg">
<path d="M132.534 141.865C134.99 135.191 137.245 128.769 137.537 121.906C137.786 115.784 135.483 110.777 130.406 107.331C127.609 105.424 124.634 103.698 121.507 102.439C106.935 96.411 91.537 94.0106 75.9311 92.7353C70.1553 92.282 64.381 92.0677 58.6059 91.734C57.6372 91.6564 56.6803 91.543 55.532 91.4069C59.7071 78.6131 63.8001 66.0708 67.9165 53.4567C75.5692 52.0571 83.2537 51.9006 90.9051 52.2105C113.393 53.1072 135.01 58.0142 155.895 66.2611C165.049 69.8847 173.66 74.5637 181.301 80.8747C194.95 92.1683 200.671 106.8 199.286 124.322C198.498 133.926 195.938 143.111 192.707 152.157C192.602 152.481 192.269 152.77 191.961 153.226C189.567 152.644 187.125 152.085 184.743 151.467C179.344 150.103 173.843 149.659 168.263 149.946C158.549 150.474 151.818 155.992 149.284 165.464C147.204 173.176 147.647 180.955 149.393 188.643C151.85 199.267 156.262 209.137 161.64 218.606C163.187 221.298 165.406 222.539 168.917 222.134C168.807 223.689 168.983 224.979 168.619 226.093C165.102 236.994 161.476 247.859 157.887 258.737C157.852 258.844 157.709 258.917 157.638 259.013C154.661 258.877 119.271 247.686 109.218 243.65C109.058 239.144 108.921 234.447 108.759 229.463C106.624 230.277 104.884 230.982 103.131 231.603C79.8979 239.688 57.5703 237.691 37.059 224.158C18.6002 212.01 11.1153 194.377 14.7188 172.37C15.9395 164.975 18.31 157.955 22.0943 151.475C29.9113 138.12 41.6944 130.155 56.5158 126.403C68.2108 123.459 79.9626 123.875 91.6787 126.227C105.513 129.031 118.348 134.413 130.677 141.1C131.073 141.349 131.587 141.477 132.534 141.865ZM122.24 173.897C117.114 170.355 105.265 165.852 97.8227 164.537C87.2931 162.691 79.9699 167.101 76.6151 177.26C76.2632 178.338 75.9114 179.416 75.6674 180.529C74.0317 188.466 77.3747 195.521 84.7816 198.773C94.0584 202.874 103.364 202.014 112.641 198.56C114.096 198.001 114.723 196.933 115.168 195.567C116.493 191.387 117.889 187.23 119.261 183.025C120.258 179.97 121.267 176.88 122.24 173.897Z" fill="white" fill-opacity="0.1"/>
<path d="M205.553 216.473C206.472 225.959 208.371 235.248 212.335 244.057C213.51 246.667 214.341 249.483 215.195 252.227C215.536 253.372 215.604 254.627 215.78 256.037C213.055 256.102 211.492 254.558 209.953 253.181C204.822 248.683 201.487 242.942 199.093 236.634C196.565 230.003 195.494 223.053 194.733 216.004C194.606 214.81 194.407 213.592 193.538 212.234C193.303 212.953 192.961 213.637 192.882 214.366C192.262 220.407 192.574 226.394 193.891 232.351C194.604 235.527 195.257 238.762 195.803 241.962C196.051 243.276 195.964 244.639 196.083 246.467C193.245 245.66 191.788 243.912 190.772 242.03C188.873 238.468 186.891 234.918 185.755 231.088C184.021 225.194 182.955 219.08 181.615 213.075C181.32 211.786 181.013 210.533 180.718 209.244C180.431 209.27 180.145 209.295 179.858 209.321C179.701 211.02 179.33 212.767 179.496 214.452C179.896 219.195 180.451 223.949 181.055 228.679C181.306 230.59 181.592 232.394 179.761 233.983C177.954 233.553 177.06 232.148 176.418 230.705C175.036 227.63 173.63 224.507 172.654 221.285C169.884 212.23 168.475 202.902 167.735 193.475C167.644 192.292 167.421 191.146 166.745 190.051C164.011 200.014 165.781 209.817 167.901 220.132C166.777 219.924 165.881 219.99 165.328 219.611C164.656 219.113 164.173 218.279 163.749 217.505C158.572 207.663 154.397 197.433 152.296 186.449C151.258 180.98 151.08 175.435 151.918 169.942C152.583 165.467 154.183 161.416 157.486 158.239C160.326 155.508 163.748 154.159 167.679 153.931C190.332 152.615 208.511 164.035 216.085 184.321C218.759 191.476 220.432 199.021 222.044 206.506C225.219 221.022 228.023 235.577 230.994 250.106C231.191 250.965 231.388 251.825 231.465 252.685C231.82 255.982 229.262 257.852 226.205 256.377C224.874 255.704 223.696 254.683 222.602 253.65C217.336 248.711 213.855 242.564 211.65 235.8C209.822 230.194 208.495 224.392 206.965 218.724C206.721 217.888 206.477 217.053 206.232 216.218C206.03 216.351 205.815 216.4 205.553 216.473Z" fill="white" fill-opacity="0.1"/>
<path d="M163.003 -18.3847C179.114 -12.8091 193.829 -4.90539 206.12 7.13796C210.281 11.1998 213.906 15.6835 216.783 20.7577C218.898 24.5098 220.465 28.4806 221.053 32.7685C222.195 41.452 218.478 49.0667 210.867 53.3828C205.734 56.3204 200.1 57.5039 194.269 57.828C181.867 58.5525 169.947 55.9746 158.528 51.4928C147.001 46.9758 136.16 41.2112 126.549 33.263C120.505 28.2688 115.092 22.6847 110.903 16.029C108.259 11.8259 106.295 7.36755 105.523 2.42339C104.055 -6.72426 108.428 -14.642 115.98 -18.7785C121.4 -21.7418 127.297 -22.8791 133.38 -23.1211C143.513 -23.4726 153.361 -21.6107 163.003 -18.3847ZM165.929 42.3365C168.552 43.1924 171.152 44.2398 173.809 44.8684C180.201 46.3578 186.673 47.237 193.227 46.0357C202.564 44.3505 205.431 38.4865 201.124 30.1221C198.826 25.7136 195.564 22.0644 191.909 18.7644C180.394 8.36581 166.988 1.44602 152.141 -2.64339C146.454 -4.22099 140.603 -5.29547 134.641 -4.93472C131.917 -4.75 129.086 -4.36138 126.534 -3.48441C120.952 -1.60788 118.97 2.51703 120.762 8.11218C121.42 10.1163 122.293 12.1908 123.547 13.8325C126.065 17.08 128.691 20.3626 131.721 23.1406C141.614 32.1748 153.175 38.413 165.929 42.3365Z" fill="white" fill-opacity="0.1"/>
</svg>
