<svg width="28" height="24" viewBox="0 0 28 24" fill="none" xmlns="http://www.w3.org/2000/svg">
    <path d="M19 2.3347C20.8521 3.25514 22.125 5.16642 22.125 7.375C22.125 9.58358 20.8521 11.4949 19 12.4153M21.5 18.958C23.3893 19.8129 25.0907 21.2062 26.5 23M1.5 23C3.93311 19.9032 7.23647 18 10.875 18C14.5135 18 17.8169 19.9032 20.25 23M16.5 7.375C16.5 10.4816 13.9816 13 10.875 13C7.7684 13 5.25 10.4816 5.25 7.375C5.25 4.2684 7.7684 1.75 10.875 1.75C13.9816 1.75 16.5 4.2684 16.5 7.375Z" stroke="white" stroke-opacity="0.5" stroke-width="2" stroke-linecap="round" stroke-linejoin="round"/>
</svg>
