<svg width="24" height="24" viewBox="0 0 24 24" fill="none" xmlns="http://www.w3.org/2000/svg">
<g clip-path="url(#clip0_2_35394)">
<path d="M8.00001 10.6667C9.48001 10.6667 10.6667 9.46671 10.6667 8.00004C10.6667 6.53337 9.48001 5.33337 8.00001 5.33337C6.53334 5.33337 5.33334 6.53337 5.33334 8.00004C5.33334 9.46671 6.53334 10.6667 8.00001 10.6667ZM16 10.6667C17.48 10.6667 18.6667 9.46671 18.6667 8.00004C18.6667 6.53337 17.48 5.33337 16 5.33337C14.52 5.33337 13.3333 6.53337 13.3333 8.00004C13.3333 9.46671 14.5333 10.6667 16 10.6667ZM8.00001 12.2667C5.77334 12.2667 1.33334 13.3734 1.33334 15.6V17.3334H14.6667V15.6C14.6667 13.3734 10.2267 12.2667 8.00001 12.2667ZM16 12.2667C15.6667 12.2667 15.28 12.2934 14.88 12.3467C15.9333 13.1467 16.6667 14.2134 16.6667 15.6V17.3334H22.6667V15.6C22.6667 13.3734 18.2267 12.2667 16 12.2667Z" stroke="white" stroke-opacity="0.5"/>
</g>
<defs>
<clipPath id="clip0_2_35394">
<rect width="24" height="24" fill="white"/>
</clipPath>
</defs>
</svg>
