<svg width="44" height="52" viewBox="0 0 44 52" fill="none" xmlns="http://www.w3.org/2000/svg">
<path d="M19.577 30.8823C19.6272 29.5258 19.6558 28.2271 19.3049 26.9644C18.9897 25.8388 18.2807 25.0667 17.1633 24.7421C16.5474 24.5617 15.9099 24.4246 15.2725 24.3813C12.293 24.1504 9.37788 24.6266 6.49146 25.3193C5.42428 25.579 4.37142 25.8821 3.3114 26.1635C3.13234 26.2068 2.95328 26.2428 2.73841 26.2861C2.73841 23.7175 2.73841 21.1993 2.73841 18.6667C4.03479 17.9596 5.40996 17.4762 6.80662 17.0793C10.9106 15.9105 15.0934 15.5208 19.3407 15.7806C21.2029 15.896 23.0293 16.2351 24.7769 16.9278C27.8997 18.1689 29.7905 20.485 30.5712 23.7463C30.9938 25.5357 31.0726 27.354 31.0224 29.1867C31.0224 29.2517 30.9795 29.3238 30.9508 29.4248C30.4853 29.4609 30.0126 29.5042 29.547 29.5331C28.4941 29.6052 27.4771 29.8505 26.4887 30.2329C24.7697 30.904 23.8816 32.3038 23.9819 34.1725C24.0607 35.695 24.5978 37.0803 25.3642 38.3719C26.4314 40.1541 27.8066 41.6837 29.3321 43.0835C29.769 43.4803 30.2418 43.5741 30.8506 43.2927C30.9222 43.5814 31.0296 43.805 31.0296 44.0287C31.0368 46.215 31.0224 48.4012 31.0153 50.5875C31.0153 50.6091 30.9938 50.6308 30.9866 50.6524C30.4423 50.8039 23.4089 50.8689 21.3605 50.7318C21.0668 49.9237 20.766 49.0795 20.4437 48.1848C20.1071 48.4589 19.8349 48.6898 19.5556 48.9063C15.8455 51.7491 11.7056 52.7088 7.21487 51.4677C3.17531 50.3566 0.790253 47.6003 0.145643 43.3938C-0.0692267 41.9795 -0.0549002 40.5653 0.245918 39.1656C0.86904 36.2794 2.52354 34.1365 4.97305 32.5779C6.90688 31.3513 9.04842 30.7308 11.2974 30.4638C13.9546 30.1536 16.5832 30.37 19.1974 30.8535C19.2834 30.8751 19.3837 30.8679 19.577 30.8823ZM19.6057 37.304C18.474 36.9649 16.0747 36.8494 14.6565 37.0515C12.6511 37.3401 11.5911 38.5739 11.5839 40.6158C11.5839 40.8323 11.5839 41.0488 11.6054 41.2652C11.7773 42.8021 12.7943 43.8844 14.3199 44.0359C16.2322 44.2307 17.8581 43.5236 19.3264 42.3475C19.5555 42.1599 19.6057 41.929 19.6057 41.6549C19.5985 40.8179 19.6057 39.9809 19.6057 39.1367C19.6057 38.5234 19.6057 37.9029 19.6057 37.304Z" fill="white" fill-opacity="0.1"/>
<path d="M37.1177 40.0963C37.8411 41.7631 38.7292 43.336 39.9611 44.6997C40.3264 45.1038 40.6416 45.5656 40.9567 46.0129C41.0856 46.2005 41.1716 46.4242 41.2862 46.6695C40.7991 46.8427 40.4267 46.6551 40.0686 46.4963C38.8796 45.984 37.9414 45.1398 37.1392 44.1369C36.294 43.0835 35.6924 41.8857 35.1409 40.6519C35.0478 40.4427 34.9404 40.2334 34.704 40.0386C34.704 40.1829 34.6825 40.3272 34.7111 40.4643C34.9547 41.5971 35.3629 42.665 35.9502 43.6679C36.2654 44.2019 36.5734 44.7502 36.8598 45.2986C36.9816 45.5223 37.0461 45.7748 37.175 46.0995C36.6163 46.1211 36.2511 45.8902 35.9574 45.6088C35.4059 45.0749 34.8401 44.5482 34.4103 43.9205C33.7514 42.9536 33.1999 41.9074 32.6054 40.8972C32.4765 40.6808 32.3476 40.4715 32.2187 40.2551C32.1685 40.2767 32.1184 40.2983 32.0683 40.32C32.1399 40.6375 32.1757 40.9766 32.3046 41.2724C32.6556 42.1094 33.0352 42.9392 33.4219 43.7617C33.5795 44.0936 33.7371 44.4039 33.5007 44.8007C33.1498 44.8296 32.9062 44.6276 32.7057 44.4039C32.276 43.9277 31.8391 43.4442 31.4738 42.9175C30.4424 41.4384 29.6402 39.8293 28.9526 38.1626C28.8667 37.9534 28.7593 37.7585 28.573 37.5998C28.6661 39.5696 29.5614 41.2436 30.5498 42.9897C30.335 43.0185 30.1774 43.0835 30.0556 43.0474C29.9052 42.9969 29.7691 42.8742 29.6474 42.7588C28.1361 41.2796 26.7825 39.6706 25.7582 37.8018C25.2497 36.871 24.8916 35.8753 24.7197 34.8291C24.5765 33.9777 24.6266 33.1479 25.0349 32.3759C25.3858 31.7121 25.923 31.2647 26.6177 30.9905C30.6215 29.4104 34.5679 30.4061 37.1249 33.6386C38.0273 34.7786 38.7722 36.0485 39.5028 37.3112C40.9281 39.7572 42.2889 42.2321 43.6784 44.6925C43.7643 44.8368 43.8503 44.9811 43.9147 45.1326C44.1726 45.7099 43.8216 46.2005 43.1842 46.1139C42.9049 46.0706 42.6327 45.9552 42.3748 45.8325C41.1358 45.2481 40.1474 44.3389 39.3523 43.2422C38.6934 42.3331 38.1133 41.359 37.5045 40.421C37.4113 40.2839 37.3182 40.1468 37.2251 40.0097C37.1965 40.0458 37.1607 40.0675 37.1177 40.0963Z" fill="white" fill-opacity="0.1"/>
<path d="M15.6453 0.00059792C18.8755 0.0583208 21.9911 0.621119 24.9133 2.07862C25.9017 2.56927 26.8185 3.16814 27.635 3.91854C28.2367 4.47412 28.7524 5.10186 29.1105 5.84504C29.8267 7.35305 29.6047 8.95486 28.4874 10.1887C27.7353 11.0257 26.7899 11.574 25.7585 11.9781C23.5668 12.8439 21.2677 13.082 18.9471 12.945C16.6051 12.8079 14.3131 12.4038 12.1143 11.5307C10.7319 10.9824 9.42839 10.2897 8.28242 9.33006C7.55902 8.72397 6.94307 8.03129 6.51333 7.17988C5.71115 5.60693 6.03345 3.91132 7.15077 2.71357C7.95295 1.85495 8.94853 1.29936 10.03 0.895302C11.8349 0.231489 13.7186 -0.0138328 15.6453 0.00059792ZM19.7421 10.8453C20.265 10.8453 20.795 10.8814 21.3107 10.8381C22.5498 10.7298 23.7674 10.5062 24.8775 9.90007C26.4604 9.04144 26.6323 7.80762 25.3646 6.54493C24.6913 5.88112 23.8891 5.41212 23.0368 5.0297C20.3509 3.82474 17.529 3.36296 14.6139 3.50005C13.4966 3.55055 12.3793 3.70208 11.3264 4.12057C10.8465 4.31538 10.3595 4.55349 9.95125 4.86375C9.05595 5.53478 8.94136 6.40062 9.59313 7.30976C9.82949 7.63445 10.1088 7.95914 10.4311 8.18282C11.0757 8.62295 11.7418 9.06309 12.4509 9.38778C14.7643 10.4412 17.2138 10.8886 19.7421 10.8453Z" fill="white" fill-opacity="0.1"/>
</svg>
