<svg width="26" height="26" viewBox="0 0 26 26" fill="none" xmlns="http://www.w3.org/2000/svg">
<path  d="M16.25 4.33337L22.75 6.50004V11.9167H19.5V20.5834C19.5 20.8707 19.3859 21.1462 19.1827 21.3494C18.9795 21.5526 18.704 21.6667 18.4167 21.6667H7.58333C7.29602 21.6667 7.02047 21.5526 6.8173 21.3494C6.61414 21.1462 6.5 20.8707 6.5 20.5834V11.9167H3.25V6.50004L9.75 4.33337C9.75 5.19533 10.0924 6.02198 10.7019 6.63147C11.3114 7.24096 12.138 7.58337 13 7.58337C13.862 7.58337 14.6886 7.24096 15.2981 6.63147C15.9076 6.02198 16.25 5.19533 16.25 4.33337Z" stroke="white" stroke-opacity="0.45" stroke-width="2" stroke-linecap="round" stroke-linejoin="round"/>
</svg>
