<svg width="26" height="26" viewBox="0 0 26 26" fill="none" xmlns="http://www.w3.org/2000/svg">
<path d="M4.33337 12.4063V18.2C4.33337 19.4133 4.33337 20.02 4.56954 20.4847C4.77754 20.8921 5.10796 21.2236 5.51637 21.4305C5.97896 21.6667 6.58562 21.6667 7.79679 21.6667H18.2033C19.4145 21.6667 20.02 21.6667 20.4826 21.4305C20.8905 21.2232 21.2224 20.8922 21.4305 20.4847C21.6667 20.0211 21.6667 19.4155 21.6667 18.2043V12.4063C21.6667 11.8278 21.6667 11.5386 21.5963 11.2688C21.534 11.0304 21.4314 10.8043 21.293 10.6004C21.1359 10.3697 20.9192 10.1779 20.4826 9.79766L15.2826 5.24766C14.4745 4.54024 14.0693 4.18599 13.6143 4.05166C13.2135 3.93249 12.7866 3.93249 12.3847 4.05166C11.9297 4.18599 11.5267 4.53916 10.7185 5.24549L5.51746 9.79766C5.08196 10.179 4.86421 10.3697 4.70821 10.5993C4.56932 10.8035 4.46637 11.0299 4.40379 11.2688C4.33337 11.5375 4.33337 11.8278 4.33337 12.4063Z" stroke="white" stroke-opacity="0.45" stroke-width="2.4" stroke-linecap="round" stroke-linejoin="round"/>
</svg>
