<svg width="26" height="26" viewBox="0 0 26 26" fill="none" xmlns="http://www.w3.org/2000/svg">
<g clip-path="url(#clip0_111_186)">
<path d="M12.3495 2.27549L2.39092 12.234C2.18782 12.4372 2.07373 12.7127 2.07373 12.9999C2.07373 13.2872 2.18782 13.5627 2.39092 13.7659L12.35 23.725C12.5532 23.928 12.8287 24.0421 13.1159 24.0421C13.4032 24.0421 13.6787 23.928 13.8818 23.725L23.8404 13.7664C24.0435 13.5633 24.1576 13.2878 24.1576 13.0005C24.1576 12.7132 24.0435 12.4377 23.8404 12.2346L13.8813 2.27495C13.6781 2.07186 13.4026 1.95776 13.1154 1.95776C12.8281 1.95776 12.5526 2.07186 12.3495 2.27495V2.27549Z" stroke="white" stroke-opacity="0.45" stroke-width="2.16667" stroke-linejoin="round"/>
<path d="M9.75 13H16.25M13 9.75V16.25" stroke="white" stroke-opacity="0.45" stroke-width="2.16667" stroke-linecap="round"/>
</g>
<defs>
<clipPath id="clip0_111_186">
<rect width="26" height="26" fill="white"/>
</clipPath>
</defs>
</svg>
