<svg width="26" height="26" viewBox="0 0 26 26" fill="none" xmlns="http://www.w3.org/2000/svg">
<path d="M14.0811 21.6667H20.5811V17.3333H16.2478V15.1667H20.5811V6.5H18.4145V11.9167L14.0811 10.1833V21.6667ZM11.9145 21.6667V10.1833L7.58114 11.9167V6.5H5.41447V21.6667H11.9145ZM7.58114 4.33333V3.25H18.4145V4.33333H21.6645C21.9518 4.33333 22.2273 4.44747 22.4305 4.65063C22.6337 4.8538 22.7478 5.12935 22.7478 5.41667V22.75C22.7478 23.0373 22.6337 23.3129 22.4305 23.516C22.2273 23.7192 21.9518 23.8333 21.6645 23.8333H4.33114C4.04382 23.8333 3.76827 23.7192 3.5651 23.516C3.36194 23.3129 3.2478 23.0373 3.2478 22.75V5.41667C3.2478 5.12935 3.36194 4.8538 3.5651 4.65063C3.76827 4.44747 4.04382 4.33333 4.33114 4.33333H7.58114ZM12.9978 8.66667L16.7895 5.41667H9.20614L12.9978 8.66667Z" fill="white" fill-opacity="0.45"/>
</svg>
