<svg width="22" height="22" viewBox="0 0 22 22" fill="none" xmlns="http://www.w3.org/2000/svg">
<g clip-path="url(#clip0_1034_113)">
<path fill-rule="evenodd" clip-rule="evenodd" d="M21.351 4.08788C21.5424 4.16427 21.7066 4.29628 21.8222 4.46686C21.9379 4.63744 21.9998 4.83877 22 5.04488V16.9551C21.9998 17.1612 21.9379 17.3626 21.8222 17.5331C21.7066 17.7037 21.5424 17.8357 21.351 17.9121L11.3822 21.8996C11.1364 21.9979 10.8622 21.9979 10.6164 21.8996L0.647625 17.9121C0.456457 17.8355 0.292607 17.7034 0.177183 17.5329C0.061759 17.3623 4.79324e-05 17.1611 0 16.9551L0 5.04488C4.79324e-05 4.83893 0.061759 4.63771 0.177183 4.46715C0.292607 4.29659 0.456457 4.16449 0.647625 4.08788L10.2341 0.253002L10.2396 0.251627L10.6164 0.100377C10.8626 0.00169719 11.1374 0.00169719 11.3836 0.100377L11.7604 0.251627L11.7659 0.253002L21.351 4.08788ZM19.4618 4.8125L11 8.19775L2.53825 4.8125L1.375 5.27863V5.82863L10.3125 9.40363V20.2964L11 20.5714L11.6875 20.2964V9.405L20.625 5.83V5.28L19.4618 4.8125Z" fill="white"/>
</g>
<defs>
<clipPath id="clip0_1034_113">
<rect width="22" height="22" fill="white"/>
</clipPath>
</defs>
</svg>
