<svg width="26" height="26" viewBox="0 0 26 26" fill="none" xmlns="http://www.w3.org/2000/svg">
<path d="M13 13.542C11.9944 13.542 11.03 13.9415 10.3189 14.6525C9.60785 15.3636 9.20837 16.328 9.20837 17.3337C9.20837 18.3393 9.60785 19.3037 10.3189 20.0148C11.03 20.7258 11.9944 21.1253 13 21.1253C14.0057 21.1253 14.9701 20.7258 15.6812 20.0148C16.3922 19.3037 16.7917 18.3393 16.7917 17.3337C16.7917 16.328 16.3922 15.3636 15.6812 14.6525C14.9701 13.9415 14.0057 13.542 13 13.542ZM11.375 17.3337C11.375 16.9027 11.5462 16.4894 11.851 16.1846C12.1557 15.8799 12.5691 15.7087 13 15.7087C13.431 15.7087 13.8443 15.8799 14.1491 16.1846C14.4538 16.4894 14.625 16.9027 14.625 17.3337C14.625 17.7646 14.4538 18.178 14.1491 18.4827C13.8443 18.7875 13.431 18.9587 13 18.9587C12.5691 18.9587 12.1557 18.7875 11.851 18.4827C11.5462 18.178 11.375 17.7646 11.375 17.3337Z" fill="white"/>
<path d="M18.4141 5.3085L15.0838 0.713867L2.83814 10.3402L2.15929 10.333V10.3433H1.625V22.7139H23.625V10.3433H22.6172L20.612 4.57142L18.4141 5.3085ZM20.4036 10.3433H9.89805L17.7227 7.71869L19.3172 7.21666L20.4036 10.3433ZM16.344 6.00331L8.26691 8.71246L14.6637 3.68383L16.344 6.00331ZM3.72024 18.7646V14.2906C4.16222 14.1364 4.56368 13.8872 4.89535 13.561C5.22701 13.2348 5.48052 12.8399 5.63738 12.4051H19.6126C19.7694 12.8401 20.0229 13.2351 20.3545 13.5615C20.6862 13.8879 21.0877 14.1373 21.5298 14.2916V18.7656C21.0877 18.9199 20.6862 19.1693 20.3545 19.4957C20.0229 19.822 19.7694 20.2171 19.6126 20.6521H5.63948C5.48253 20.2167 5.22877 19.8214 4.89674 19.4948C4.5647 19.1683 4.16275 18.9188 3.72024 18.7646Z" fill="white"/>
</svg>
