<svg width="38" height="28" viewBox="0 0 38 28" fill="none" xmlns="http://www.w3.org/2000/svg">
<path d="M10.4638 1.75H38V8.75H36.279V10.5H25.9529C25.4965 10.5 25.0587 10.6844 24.736 11.0126C24.4132 11.3408 24.2319 11.7859 24.2319 12.25V14C24.2319 14.9283 23.8692 15.8185 23.2237 16.4749C22.5782 17.1313 21.7027 17.5 20.7899 17.5H14.9728C14.3188 17.5 13.7165 17.885 13.4239 18.48L9.20743 27.0375C8.91486 27.6325 8.32971 28 7.67572 28H1.8587C1.8587 28 -3.30435 28 3.57971 17.5C3.57971 17.5 8.74275 10.5 1.8587 10.5V1.75H3.57971L4.44022 0H9.60326L10.4638 1.75ZM22.5109 14V12.25C22.5109 11.7859 22.3295 11.3408 22.0068 11.0126C21.684 10.6844 21.2463 10.5 20.7899 10.5H19.0688C19.0688 10.5 17.3478 12.25 19.0688 14C18.156 14 17.2805 13.6313 16.635 12.9749C15.9895 12.3185 15.6268 11.4283 15.6268 10.5C15.1704 10.5 14.7326 10.6844 14.4099 11.0126C14.0871 11.3408 13.9058 11.7859 13.9058 12.25V14C13.9058 14.4641 14.0871 14.9092 14.4099 15.2374C14.7326 15.5656 15.1704 15.75 15.6268 15.75H20.7899C21.2463 15.75 21.684 15.5656 22.0068 15.2374C22.3295 14.9092 22.5109 14.4641 22.5109 14Z" fill="black"/>
</svg>
