<svg width="45" height="45" viewBox="0 0 45 45" fill="none" xmlns="http://www.w3.org/2000/svg">
<path d="M23.4526 21.2084L20.8106 23.8504C24.0153 25.9017 27.8903 26.6314 31.6216 25.8861L30.9146 22.3362C28.3719 22.8443 25.7315 22.4452 23.4526 21.2084ZM11.2091 27.8612C11.2079 27.9067 11.216 27.952 11.2331 27.9942C11.2502 28.0365 11.2759 28.0747 11.3084 28.1065L12.949 29.7471C13.0051 29.8059 13.0771 29.8471 13.1562 29.8658C13.2353 29.8844 13.3181 29.8798 13.3946 29.8523C13.808 29.6902 14.1834 30.1226 14.3375 30.8639L14.8978 33.541C14.9203 33.649 14.9639 33.7515 15.026 33.8427C15.0882 33.9339 15.1677 34.0119 15.26 34.0724C15.3523 34.1328 15.4556 34.1744 15.564 34.1949C15.6725 34.2154 15.7838 34.2143 15.8918 34.1917L16.2636 34.1122C16.4376 34.0759 16.6027 34.0057 16.7495 33.9056C16.8963 33.8055 17.0219 33.6775 17.1192 33.5288C17.2165 33.3801 17.2835 33.2136 17.3164 33.039C17.3494 32.8644 17.3476 32.685 17.3111 32.5111L16.7172 29.6734C16.6855 29.5266 16.691 29.3742 16.7331 29.2301C16.7752 29.086 16.8526 28.9546 16.9583 28.848L19.3504 26.4558C19.5544 26.2518 19.669 25.9751 19.669 25.6867C19.669 25.3982 19.5544 25.1215 19.3504 24.9175L18.3783 23.9453L22.8514 19.4722L20.0144 16.6352L17.1008 19.5489L17.4492 19.8973L11.2406 26.1059C11.2406 26.1059 11.2303 27.4163 11.2091 27.8611V27.8612ZM16.2922 27.6851C16.2132 27.6062 16.1506 27.5124 16.1079 27.4093C16.0652 27.3061 16.0432 27.1956 16.0432 27.0839C16.0432 26.9723 16.0652 26.8617 16.1079 26.7586C16.1506 26.6554 16.2132 26.5617 16.2922 26.4828L17.2337 25.5413C17.3126 25.4623 17.4063 25.3997 17.5095 25.357C17.6126 25.3143 17.7232 25.2923 17.8348 25.2923C17.9465 25.2923 18.0571 25.3143 18.1602 25.357C18.2633 25.3997 18.3571 25.4623 18.436 25.5413L18.5769 25.6823C18.6559 25.7612 18.7185 25.8549 18.7612 25.9581C18.8039 26.0612 18.8259 26.1718 18.8259 26.2834C18.8259 26.3951 18.8039 26.5056 18.7612 26.6088C18.7185 26.7119 18.6559 26.8057 18.5769 26.8846L17.6325 27.829C17.4728 27.9871 17.257 28.0756 17.0322 28.0751C16.8075 28.0745 16.5921 27.985 16.4332 27.8261L16.2922 27.6851ZM7.45391 41.854C7.41126 41.9448 7.35322 42.0276 7.28235 42.0986L6.83015 42.5508C6.74762 42.6333 6.63571 42.6797 6.51902 42.6797C6.40232 42.6797 6.29041 42.6333 6.20788 42.5508L2.45346 38.7964C2.3272 38.6701 2.25442 38.5 2.25019 38.3214C2.24597 38.1429 2.31064 37.9695 2.43078 37.8374L8.00041 31.7112L8.03249 31.6791C8.14304 31.5686 8.27894 31.4869 8.42835 31.4409L8.74388 31.3431C8.95648 31.2775 9.14026 31.1411 9.26472 30.9567L10.2939 29.4294L12.3464 31.4819L7.45391 41.854ZM31.4026 8.22578C31.3642 8.1874 31.3187 8.15696 31.2686 8.13619C31.2184 8.11543 31.1647 8.10474 31.1105 8.10474C31.0562 8.10474 31.0025 8.11543 30.9523 8.13619C30.9022 8.15696 30.8567 8.1874 30.8183 8.22578L29.4378 9.60628L29.0529 9.22132L30.8921 7.38212L31.6699 7.59903C31.8973 7.66203 32.1374 7.66337 32.3655 7.60291C32.5936 7.54246 32.8016 7.42239 32.9679 7.25503L35.2834 4.93955L34.4828 3.18068C34.4325 3.07008 34.4172 2.94676 34.4389 2.82721C34.4605 2.70766 34.5182 2.59757 34.6041 2.51166L34.6713 2.44442C34.9101 2.20553 35.3265 2.17636 35.5654 2.41524L36.9115 3.76137L37.49 3.18288L38.0532 3.74608L37.474 4.32528L37.7369 4.58825L31.0783 11.2468L30.0221 10.1907L31.4026 8.81008C31.441 8.77171 31.4714 8.72617 31.4922 8.67604C31.513 8.62592 31.5237 8.57219 31.5237 8.51793C31.5237 8.46367 31.513 8.40994 31.4922 8.35981C31.4714 8.30968 31.441 8.26414 31.4026 8.22578ZM27.8688 10.3747L29.5014 12.0072C29.6133 12.119 29.6792 12.2688 29.6861 12.4269C29.693 12.585 29.6403 12.7399 29.5385 12.861L24.9792 18.2881C24.9228 18.3552 24.8531 18.4099 24.7745 18.4486C24.6958 18.4874 24.61 18.5093 24.5224 18.5131C24.4348 18.5169 24.3474 18.5024 24.2658 18.4706C24.1841 18.4388 24.1099 18.3904 24.0479 18.3284L21.9801 16.2605C21.8616 16.1419 21.795 15.9811 21.795 15.8135C21.795 15.6458 21.8616 15.485 21.9801 15.3665L26.9733 10.3732C27.032 10.3145 27.1017 10.2679 27.1784 10.2361C27.2551 10.2044 27.3373 10.188 27.4203 10.188C27.5034 10.188 27.5856 10.2044 27.6623 10.2361C27.739 10.2679 27.8087 10.3145 27.8674 10.3732L27.8688 10.3747Z" fill="black"/>
</svg>
