<svg width="38" height="38" viewBox="0 0 38 38" fill="none" xmlns="http://www.w3.org/2000/svg">
<path d="M17.9365 14.25C19.7644 14.25 21.5203 14.777 23.0316 15.727V38H9.21455V25.0637L5.35731 31.7879C4.55131 33.198 2.78101 33.6656 1.4137 32.8344C0.0463916 32.0031 -0.406979 30.1773 0.399013 28.7672L5.88264 19.2078C7.64575 16.1352 10.8481 14.25 14.3096 14.25H17.9365ZM10.366 5.9375C10.366 4.36278 10.9725 2.85255 12.0522 1.73905C13.1318 0.625556 14.5962 0 16.1231 0C17.6499 0 19.1143 0.625556 20.1939 1.73905C21.2736 2.85255 21.8801 4.36278 21.8801 5.9375C21.8801 7.51222 21.2736 9.02245 20.1939 10.1359C19.1143 11.2494 17.6499 11.875 16.1231 11.875C14.5962 11.875 13.1318 11.2494 12.0522 10.1359C10.9725 9.02245 10.366 7.51222 10.366 5.9375ZM31.0915 0C31.7248 0 32.2429 0.534375 32.2429 1.1875V9.81914C32.9338 10.2273 33.3943 10.9992 33.3943 11.875V19.9871L34.5457 19.5938V15.4375C34.5457 14.7844 35.0639 14.25 35.6972 14.25H36.8486C37.4819 14.25 38 14.7844 38 15.4375V21.709C38 22.2211 37.6834 22.6738 37.2156 22.8371L33.3943 24.1434V26.125H36.8486C37.4819 26.125 38 26.6594 38 27.3125V28.5C38 29.1531 37.4819 29.6875 36.8486 29.6875H33.6822L35.3373 36.523C35.5173 37.2727 34.9703 38 34.2219 38H29.9401C29.3068 38 28.7887 37.4656 28.7887 36.8125V29.6875H27.6372C26.3635 29.6875 25.3344 28.6262 25.3344 27.3125V16.625C25.3344 15.3113 26.3635 14.25 27.6372 14.25V11.875C27.6372 10.9992 28.0978 10.2273 28.7887 9.81914V2.375C28.1554 2.375 27.6372 1.84063 27.6372 1.1875C27.6372 0.534375 28.1554 0 28.7887 0H29.9401H31.0915Z" fill="black"/>
</svg>
