<svg width="21" height="16" viewBox="0 0 21 16" fill="none" xmlns="http://www.w3.org/2000/svg">
<g clip-path="url(#clip0_1481_23)">
<path fill-rule="evenodd" clip-rule="evenodd" d="M4.02205 0.932649L3.61401 1.19496L1.5447 3.61401L0 6.06222L10.1717 15.651L20.2268 5.97478L18.5655 3.43914L16.5254 1.10752L16.1465 0.874358L13.1154 0.0874358L12.3576 0L7.89837 0.0291453L7.02401 0.116581L4.02205 0.932649Z" fill="url(#paint0_radial_1481_23)"/>
<path style="mix-blend-mode:color-dodge" opacity="0.5" fill-rule="evenodd" clip-rule="evenodd" d="M0 6.06222L2.97282 7.92751L10.1134 8.627L17.2831 7.84008L20.2268 5.97478L18.5655 3.43914L16.5254 1.10752L16.1465 0.874358L13.1154 0.0874358L12.3576 0L7.89837 0.0291453L7.02401 0.116581L4.02205 0.932649L3.61401 1.19496L1.5447 3.61401L0 6.06222Z" fill="url(#paint1_radial_1481_23)"/>
<path style="mix-blend-mode:color-dodge" opacity="0.5" fill-rule="evenodd" clip-rule="evenodd" d="M3.61401 1.19496L3.6723 2.27333L3.9929 2.47735L7.05316 3.26427L7.95666 3.35171L12.2702 3.32256L13.1737 3.23512L16.1465 2.4482L16.5254 2.21504V1.10752L16.1465 0.874358L13.1154 0.0874358L12.3576 0L7.89837 0.0291453L7.02401 0.116581L4.02205 0.932649L3.61401 1.19496Z" fill="url(#paint2_radial_1481_23)"/>
<path style="mix-blend-mode:color-dodge" opacity="0.5" fill-rule="evenodd" clip-rule="evenodd" d="M1.54468 3.614L3.67228 2.27332L3.61399 1.19495L1.54468 3.614Z" fill="url(#paint3_radial_1481_23)"/>
<path style="mix-blend-mode:color-dodge" fill-rule="evenodd" clip-rule="evenodd" d="M3.99292 2.47736L4.05121 5.18787L7.05317 3.26428L3.99292 2.47736Z" fill="url(#paint4_radial_1481_23)"/>
<path style="mix-blend-mode:color-dodge" opacity="0.65" fill-rule="evenodd" clip-rule="evenodd" d="M7.95667 3.35172L10.0843 5.79992L12.2702 3.32257L7.95667 3.35172Z" fill="url(#paint5_radial_1481_23)"/>
<path style="mix-blend-mode:color-dodge" opacity="0.5" fill-rule="evenodd" clip-rule="evenodd" d="M13.1737 3.2351L16.1174 5.1004L16.1465 2.44818L13.1737 3.2351Z" fill="url(#paint6_radial_1481_23)"/>
<path style="mix-blend-mode:color-burn" opacity="0.5" fill-rule="evenodd" clip-rule="evenodd" d="M16.5254 2.21506L18.5656 3.43917L16.5254 1.10754V2.21506Z" fill="url(#paint7_radial_1481_23)"/>
<path style="mix-blend-mode:color-burn" opacity="0.5" fill-rule="evenodd" clip-rule="evenodd" d="M18.5655 3.43913L16.5253 2.21503L16.1465 2.44819L16.1173 5.10041L17.2831 7.84006L20.2268 5.97477L18.5655 3.43913Z" fill="url(#paint8_radial_1481_23)"/>
<path style="mix-blend-mode:color-dodge" opacity="0.5" fill-rule="evenodd" clip-rule="evenodd" d="M16.1173 5.1004L13.1736 3.23511L12.2701 3.32254L10.0842 5.79989L10.1134 8.62698L17.2831 7.84006L16.1173 5.1004Z" fill="url(#paint9_radial_1481_23)"/>
<path style="mix-blend-mode:color-dodge" opacity="0.5" fill-rule="evenodd" clip-rule="evenodd" d="M10.1134 8.62701L10.0842 5.79992L7.95662 3.35172L7.05312 3.26428L4.05115 5.18787L2.97278 7.92753L10.1134 8.62701Z" fill="url(#paint10_radial_1481_23)"/>
<path style="mix-blend-mode:color-burn" opacity="0.5" fill-rule="evenodd" clip-rule="evenodd" d="M2.97282 7.9275L4.05119 5.18784L3.9929 2.47733L3.6723 2.27332L1.5447 3.614L0 6.0622L2.97282 7.9275Z" fill="url(#paint11_radial_1481_23)"/>
<path style="mix-blend-mode:color-burn" opacity="0.5" fill-rule="evenodd" clip-rule="evenodd" d="M10.1717 15.651L2.97282 7.92749L0 6.06219L10.1717 15.651Z" fill="url(#paint12_radial_1481_23)"/>
<path style="mix-blend-mode:color-dodge" opacity="0.5" fill-rule="evenodd" clip-rule="evenodd" d="M2.97278 7.92749L10.1717 15.651L10.1134 8.62698L2.97278 7.92749Z" fill="url(#paint13_radial_1481_23)"/>
<path style="mix-blend-mode:color-burn" opacity="0.5" fill-rule="evenodd" clip-rule="evenodd" d="M10.1134 8.62701L10.1717 15.651L17.2831 7.84009L10.1134 8.62701Z" fill="url(#paint14_radial_1481_23)"/>
<path style="mix-blend-mode:color-burn" opacity="0.5" fill-rule="evenodd" clip-rule="evenodd" d="M17.2832 7.84009L10.1718 15.651L20.2269 5.97479L17.2832 7.84009Z" fill="url(#paint15_radial_1481_23)"/>
<path style="mix-blend-mode:screen" fill-rule="evenodd" clip-rule="evenodd" d="M3.73063 2.3316L3.96379 2.50648L3.99294 5.1004L3.41003 6.81998L4.16781 5.18784L5.68337 4.13861L4.16781 4.98382L4.02208 2.50648L5.24619 2.79793L3.99294 2.44818L3.73063 2.3316Z" fill="url(#paint16_radial_1481_23)"/>
<path style="mix-blend-mode:screen" fill-rule="evenodd" clip-rule="evenodd" d="M0.612061 6.4411L2.91454 8.04409L8.39385 13.7274L3.23513 8.07324L7.7818 8.39383L3.1477 7.84007L3.38086 6.93657L2.94368 7.78178L0.612061 6.4411Z" fill="url(#paint17_radial_1481_23)"/>
<path style="mix-blend-mode:screen" fill-rule="evenodd" clip-rule="evenodd" d="M8.13157 3.55573L9.93857 5.8582C10.0552 6.38282 10.0843 7.92752 10.026 8.53957L7.98584 8.42299L10.026 8.68529L10.1426 14.4269L10.2009 8.68529L13.6692 8.24811L10.2009 8.53957C10.1134 7.78179 10.1426 6.23709 10.1717 5.82906L10.8421 4.9547L10.0843 5.68333L8.13157 3.58487V3.55573Z" fill="url(#paint18_radial_1481_23)"/>
<path style="mix-blend-mode:screen" opacity="0.5" fill-rule="evenodd" clip-rule="evenodd" d="M7.0532 3.26427C8.80192 2.27333 12.037 0.641196 13.7275 0.233162L13.1154 0.0874358C12.8531 0.0874358 12.6199 0.0291453 12.3576 0C11.4541 0 10.5215 0 9.61798 0C8.65619 0.670341 5.91653 1.92359 4.13867 2.47735C5.12961 2.73966 6.09141 3.00196 7.08234 3.23512L7.0532 3.26427Z" fill="url(#paint19_radial_1481_23)"/>
<path style="mix-blend-mode:screen" opacity="0.5" fill-rule="evenodd" clip-rule="evenodd" d="M15.9133 0.81604C14.6017 1.54467 12.1827 2.68134 10.3174 3.35168H12.2701C13.4359 2.71048 15.7967 1.63211 16.5253 1.39895C16.5253 1.31151 16.5253 1.22407 16.5253 1.10749C16.4087 1.02006 16.2922 0.932621 16.1464 0.874331C16.059 0.874331 15.9716 0.845185 15.8841 0.81604H15.9133Z" fill="url(#paint20_radial_1481_23)"/>
<path style="mix-blend-mode:multiply" fill-rule="evenodd" clip-rule="evenodd" d="M10.1134 8.62701L10.1717 15.651L17.2831 7.84009L10.1134 8.62701Z" fill="url(#paint21_radial_1481_23)"/>
<path style="mix-blend-mode:screen" fill-rule="evenodd" clip-rule="evenodd" d="M15.1846 5.47931C15.4178 8.65614 12.9987 11.4249 9.8219 11.6581C6.64506 11.8913 3.87626 9.47221 3.6431 6.29538C3.40994 3.11854 5.829 0.320595 9.00583 0.116578C12.1827 -0.0874388 14.9515 2.30247 15.1846 5.47931Z" fill="url(#paint22_radial_1481_23)"/>
<path style="mix-blend-mode:screen" fill-rule="evenodd" clip-rule="evenodd" d="M13.3777 5.30445C13.4943 7.1406 12.1244 8.71445 10.3174 8.83103C8.51043 8.94761 6.90744 7.57778 6.79086 5.74163C6.67427 3.90548 8.0441 2.33163 9.88025 2.21505C11.7164 2.09847 13.2903 3.4683 13.4068 5.27531L13.3777 5.30445Z" fill="url(#paint23_radial_1481_23)"/>
<path style="mix-blend-mode:screen" fill-rule="evenodd" clip-rule="evenodd" d="M12.2701 5.39186C12.3576 6.61596 11.4249 7.66519 10.23 7.75263C9.03502 7.84006 7.95664 6.90741 7.86921 5.71246C7.78177 4.5175 8.71442 3.43913 9.90938 3.35169C11.1043 3.26425 12.1827 4.1969 12.2701 5.39186Z" fill="url(#paint24_radial_1481_23)"/>
</g>
<defs>
<radialGradient id="paint0_radial_1481_23" cx="0" cy="0" r="1" gradientUnits="userSpaceOnUse" gradientTransform="translate(4.69347 0.840026) rotate(-0.3) scale(19.4107)">
<stop stop-color="#28D8ED"/>
<stop offset="1" stop-color="#2B52B3"/>
</radialGradient>
<radialGradient id="paint1_radial_1481_23" cx="0" cy="0" r="1" gradientUnits="userSpaceOnUse" gradientTransform="translate(3.56704 8.36551) rotate(-0.3) scale(19.7605 19.7605)">
<stop stop-color="#454545"/>
<stop offset="1"/>
</radialGradient>
<radialGradient id="paint2_radial_1481_23" cx="0" cy="0" r="1" gradientUnits="userSpaceOnUse" gradientTransform="translate(7.56675 4.0893) rotate(-0.3) scale(14.7184)">
<stop stop-color="#363636"/>
<stop offset="1"/>
</radialGradient>
<radialGradient id="paint3_radial_1481_23" cx="0" cy="0" r="1" gradientUnits="userSpaceOnUse" gradientTransform="translate(4.66644 1.2482) rotate(-0.3) scale(11.5707)">
<stop stop-color="#363636"/>
<stop offset="1"/>
</radialGradient>
<radialGradient id="paint4_radial_1481_23" cx="0" cy="0" r="1" gradientUnits="userSpaceOnUse" gradientTransform="translate(3.79213 1.25279) rotate(-0.3) scale(12.1244 12.1244)">
<stop stop-color="#8F8A8F"/>
<stop offset="1"/>
</radialGradient>
<radialGradient id="paint5_radial_1481_23" cx="0" cy="0" r="1" gradientUnits="userSpaceOnUse" gradientTransform="translate(8.40509 2.77336) rotate(-0.3) scale(25.0066)">
<stop stop-color="#696469"/>
<stop offset="1"/>
</radialGradient>
<radialGradient id="paint6_radial_1481_23" cx="0" cy="0" r="1" gradientUnits="userSpaceOnUse" gradientTransform="translate(13.0279 0.592346) rotate(-0.3) scale(13.7857 13.7857)">
<stop stop-color="#363636"/>
<stop offset="1"/>
</radialGradient>
<radialGradient id="paint7_radial_1481_23" cx="0" cy="0" r="1" gradientUnits="userSpaceOnUse" gradientTransform="translate(21.0412 -5.30785) rotate(-0.3) scale(9.15161 9.15161)">
<stop stop-color="#FFFAFF"/>
<stop offset="1" stop-color="#A39EA3"/>
</radialGradient>
<radialGradient id="paint8_radial_1481_23" cx="0" cy="0" r="1" gradientUnits="userSpaceOnUse" gradientTransform="translate(6.58968 -9.95382) rotate(-0.3) scale(23.6368 23.6368)">
<stop stop-color="#FFFAFF"/>
<stop offset="1" stop-color="#BAB5BA"/>
</radialGradient>
<radialGradient id="paint9_radial_1481_23" cx="0" cy="0" r="1" gradientUnits="userSpaceOnUse" gradientTransform="translate(9.22706 -7.22793) rotate(-0.3) scale(19.3233)">
<stop stop-color="#363636"/>
<stop offset="1"/>
</radialGradient>
<radialGradient id="paint10_radial_1481_23" cx="0" cy="0" r="1" gradientUnits="userSpaceOnUse" gradientTransform="translate(7.36224 -7.1307) rotate(-0.3) scale(16.6711 16.6711)">
<stop stop-color="#363636"/>
<stop offset="1"/>
</radialGradient>
<radialGradient id="paint11_radial_1481_23" cx="0" cy="0" r="1" gradientUnits="userSpaceOnUse" gradientTransform="translate(18.9763 1.11497) rotate(-0.3) scale(19.265 19.265)">
<stop stop-color="#FFFAFF"/>
<stop offset="1" stop-color="#BAB5BA"/>
</radialGradient>
<radialGradient id="paint12_radial_1481_23" cx="0" cy="0" r="1" gradientUnits="userSpaceOnUse" gradientTransform="translate(2.58634 4.75656) rotate(-0.3) scale(12.2702 12.2702)">
<stop stop-color="#FFFAFF"/>
<stop offset="1" stop-color="#827D82"/>
</radialGradient>
<radialGradient id="paint13_radial_1481_23" cx="0" cy="0" r="1" gradientUnits="userSpaceOnUse" gradientTransform="translate(-0.415622 4.77227) rotate(-0.3) scale(13.5234)">
<stop stop-color="#363636"/>
<stop offset="1"/>
</radialGradient>
<radialGradient id="paint14_radial_1481_23" cx="0" cy="0" r="1" gradientUnits="userSpaceOnUse" gradientTransform="translate(10.8632 15.7886) rotate(-0.3) scale(7.69435)">
<stop stop-color="#FFFAFF"/>
<stop offset="1" stop-color="#BAB5BA"/>
</radialGradient>
<radialGradient id="paint15_radial_1481_23" cx="0" cy="0" r="1" gradientUnits="userSpaceOnUse" gradientTransform="translate(6.6534 2.19962) rotate(-0.3) scale(14.9807 14.9807)">
<stop stop-color="#FFFAFF"/>
<stop offset="1" stop-color="#827D82"/>
</radialGradient>
<radialGradient id="paint16_radial_1481_23" cx="0" cy="0" r="1" gradientUnits="userSpaceOnUse" gradientTransform="translate(4.53817 4.57147) rotate(-0.3) scale(1.77786)">
<stop stop-color="#FFFAFF"/>
<stop offset="0.09" stop-color="#D4D0D4"/>
<stop offset="0.23" stop-color="#9C999C"/>
<stop offset="0.37" stop-color="#6C6A6C"/>
<stop offset="0.5" stop-color="#454445"/>
<stop offset="0.63" stop-color="#272627"/>
<stop offset="0.76" stop-color="#111111"/>
<stop offset="0.89" stop-color="#040404"/>
<stop offset="1"/>
</radialGradient>
<radialGradient id="paint17_radial_1481_23" cx="0" cy="0" r="1" gradientUnits="userSpaceOnUse" gradientTransform="translate(3.24341 7.78428) rotate(-0.3) scale(5.39187)">
<stop stop-color="#FFFAFF"/>
<stop offset="0.09" stop-color="#D4D0D4"/>
<stop offset="0.23" stop-color="#9C999C"/>
<stop offset="0.37" stop-color="#6C6A6C"/>
<stop offset="0.5" stop-color="#454445"/>
<stop offset="0.63" stop-color="#272627"/>
<stop offset="0.76" stop-color="#111111"/>
<stop offset="0.89" stop-color="#040404"/>
<stop offset="1"/>
</radialGradient>
<radialGradient id="paint18_radial_1481_23" cx="0" cy="0" r="1" gradientUnits="userSpaceOnUse" gradientTransform="translate(8.22293 6.94214) rotate(-0.3) scale(14.2229)">
<stop stop-color="#FFFAFF"/>
<stop offset="0.09" stop-color="#D4D0D4"/>
<stop offset="0.23" stop-color="#9C999C"/>
<stop offset="0.37" stop-color="#6C6A6C"/>
<stop offset="0.5" stop-color="#454445"/>
<stop offset="0.63" stop-color="#272627"/>
<stop offset="0.76" stop-color="#111111"/>
<stop offset="0.89" stop-color="#040404"/>
<stop offset="1"/>
</radialGradient>
<radialGradient id="paint19_radial_1481_23" cx="0" cy="0" r="1" gradientUnits="userSpaceOnUse" gradientTransform="translate(4.04317 4.66151) rotate(-0.3) scale(15.5344 15.5344)">
<stop stop-color="#D6D1D6"/>
<stop offset="1"/>
</radialGradient>
<radialGradient id="paint20_radial_1481_23" cx="0" cy="0" r="1" gradientUnits="userSpaceOnUse" gradientTransform="translate(9.76433 6.32198) rotate(-0.3) scale(13.844 13.844)">
<stop stop-color="#D6D1D6"/>
<stop offset="1"/>
</radialGradient>
<radialGradient id="paint21_radial_1481_23" cx="0" cy="0" r="1" gradientUnits="userSpaceOnUse" gradientTransform="translate(16.5049 13.3983) rotate(-0.3) scale(10.5214)">
<stop offset="0.46" stop-color="#FFFAFF"/>
<stop offset="1" stop-color="#9C979C"/>
</radialGradient>
<radialGradient id="paint22_radial_1481_23" cx="0" cy="0" r="1" gradientUnits="userSpaceOnUse" gradientTransform="translate(9.41617 5.88437) rotate(-4.03) scale(5.33358)">
<stop stop-color="#8AE0FF"/>
<stop offset="0.09" stop-color="#72BBD4"/>
<stop offset="0.23" stop-color="#548C9C"/>
<stop offset="0.37" stop-color="#3A646C"/>
<stop offset="0.5" stop-color="#254245"/>
<stop offset="0.63" stop-color="#152927"/>
<stop offset="0.76" stop-color="#091611"/>
<stop offset="0.89" stop-color="#020B04"/>
<stop offset="1" stop-color="#000800"/>
</radialGradient>
<radialGradient id="paint23_radial_1481_23" cx="0" cy="0" r="1" gradientUnits="userSpaceOnUse" gradientTransform="translate(10.0644 5.54655) rotate(-4.03) scale(3.06025)">
<stop stop-color="#42CDFF"/>
<stop offset="0.09" stop-color="#36ABD4"/>
<stop offset="0.23" stop-color="#28819C"/>
<stop offset="0.37" stop-color="#1C5B6C"/>
<stop offset="0.5" stop-color="#123D45"/>
<stop offset="0.63" stop-color="#0A2627"/>
<stop offset="0.76" stop-color="#041511"/>
<stop offset="0.89" stop-color="#010B04"/>
<stop offset="1" stop-color="#000800"/>
</radialGradient>
<radialGradient id="paint24_radial_1481_23" cx="0" cy="0" r="1" gradientUnits="userSpaceOnUse" gradientTransform="translate(10.0644 5.54652) rotate(-4.03) scale(2.04017)">
<stop stop-color="#78E4FF"/>
<stop offset="0.09" stop-color="#63BDD4"/>
<stop offset="0.23" stop-color="#498C9C"/>
<stop offset="0.37" stop-color="#33616C"/>
<stop offset="0.5" stop-color="#203E45"/>
<stop offset="0.63" stop-color="#122327"/>
<stop offset="0.76" stop-color="#080F11"/>
<stop offset="0.89" stop-color="#020304"/>
<stop offset="1"/>
</radialGradient>
<clipPath id="clip0_1481_23">
<rect width="20.2268" height="15.651" fill="white"/>
</clipPath>
</defs>
</svg>
