<svg width="18" height="21" viewBox="0 0 18 21" fill="none" xmlns="http://www.w3.org/2000/svg">
<path fill-rule="evenodd" clip-rule="evenodd" d="M8.77463 10.3689L0.287476 6.97644C0.518433 10.1716 0.63246 13.4683 0.5869 16.5575C0.58661 16.6421 0.635917 16.7122 0.70866 16.7474L8.42205 20.554C8.52389 20.6039 8.63163 20.6305 8.73655 20.6308C8.84148 20.6312 8.9494 20.6053 9.05158 20.5561L16.7909 16.8025C16.8668 16.7649 16.9166 16.6951 16.9139 16.6135C16.8896 13.5211 17.0262 10.2252 17.279 7.03467L8.76881 10.3689L8.77463 10.3689Z" fill="#0068FF"/>
<path fill-rule="evenodd" clip-rule="evenodd" d="M8.77463 10.3689L0.287476 6.97644C0.518433 10.1716 0.63246 13.4683 0.5869 16.5575C0.58661 16.6421 0.635917 16.7122 0.70866 16.7474L8.42205 20.554C8.52388 20.6039 8.63163 20.6305 8.73655 20.6308L8.77172 10.3689L8.77463 10.3689Z" fill="url(#paint0_radial_1433_348)"/>
<g style="mix-blend-mode:screen" opacity="0.65">
<path fill-rule="evenodd" clip-rule="evenodd" d="M8.77463 10.3689L0.287476 6.97644C0.518433 10.1716 0.63246 13.4683 0.5869 16.5575C0.58661 16.6421 0.635917 16.7122 0.70866 16.7474L8.42205 20.554C8.52388 20.6039 8.63163 20.6305 8.73655 20.6308L8.77172 10.3689L8.77463 10.3689Z" fill="url(#paint1_radial_1433_348)"/>
</g>
<path fill-rule="evenodd" clip-rule="evenodd" d="M8.77461 10.3689L17.2848 7.03468C17.032 10.2281 16.8953 13.524 16.9197 16.6135C16.9194 16.698 16.8697 16.7678 16.7967 16.8025L9.05738 20.5562C8.9552 20.6054 8.84728 20.6312 8.74236 20.6309L8.77752 10.3689L8.77461 10.3689Z" fill="url(#paint2_radial_1433_348)"/>
<path style="mix-blend-mode:screen" opacity="0.3" fill-rule="evenodd" clip-rule="evenodd" d="M9.88257 19.6059C10.1074 19.4988 10.2923 19.1235 10.2964 18.7709C10.2976 18.4182 10.1205 18.2165 9.8928 18.3236C9.6651 18.4277 9.4802 18.803 9.47898 19.1586C9.47776 19.5142 9.65778 19.7159 9.88257 19.6059ZM11.6152 17.4872C11.7641 17.4177 11.8903 17.1733 11.8911 16.9431C11.8919 16.7128 11.7757 16.5813 11.6268 16.6507C11.478 16.7202 11.3547 16.9616 11.351 17.1919C11.3502 17.4221 11.4664 17.5537 11.6152 17.4842L11.6152 17.4872ZM10.5029 17.1861C10.6197 17.134 10.7165 16.942 10.7171 16.7613C10.7178 16.5806 10.6248 16.4783 10.5081 16.5303C10.3913 16.5824 10.2945 16.7715 10.2939 16.9551C10.2932 17.1358 10.3832 17.2381 10.5 17.1861L10.5029 17.1861ZM9.60015 15.2681C9.76069 15.1987 9.88981 14.9427 9.89066 14.695C9.8915 14.4501 9.76376 14.304 9.60322 14.3734C9.44268 14.4428 9.31065 14.6988 9.3098 14.9465C9.30895 15.1943 9.4367 15.3375 9.59724 15.2681L9.60015 15.2681ZM10.8672 15.4852C11.0774 15.3927 11.2505 15.0552 11.2545 14.7346C11.2585 14.414 11.093 14.2269 10.8829 14.3195C10.6727 14.4091 10.4996 14.7466 10.4956 15.0701C10.4945 15.3936 10.66 15.5778 10.8701 15.4852L10.8672 15.4852ZM12.21 18.2907C12.3063 18.2444 12.3855 18.0873 12.389 17.9386C12.3895 17.79 12.3169 17.7082 12.2205 17.7545C12.1242 17.8008 12.045 17.955 12.0416 18.1036C12.0411 18.2522 12.1136 18.337 12.21 18.2907ZM14.8457 17.1514C15.0296 17.0617 15.1851 16.7649 15.1948 16.4852C15.2045 16.2054 15.0593 16.0504 14.8754 16.1372C14.6915 16.224 14.536 16.5237 14.5263 16.8035C14.5195 17.0832 14.6618 17.2411 14.8457 17.1514ZM10.1751 13.3523C10.2947 13.3032 10.3915 13.117 10.3951 12.9363C10.3957 12.7556 10.3028 12.6504 10.1831 12.6995C10.0635 12.7486 9.96664 12.9348 9.96602 13.1155C9.9654 13.2962 10.0583 13.4044 10.178 13.3523L10.1751 13.3523ZM9.83947 11.7715C10.0263 11.6964 10.1817 11.4025 10.1827 11.1198C10.1837 10.8342 10.0356 10.6646 9.84883 10.7398C9.66205 10.8149 9.50657 11.1088 9.50559 11.3944C9.50461 11.68 9.65267 11.8496 9.83946 11.7744L9.83947 11.7715ZM11.0262 12.4576C11.1897 12.3882 11.3246 12.1351 11.3284 11.8874C11.3322 11.6396 11.2044 11.4935 11.041 11.5629C10.8775 11.6322 10.7426 11.8883 10.7388 12.136C10.738 12.3837 10.8657 12.5299 11.0262 12.4605L11.0262 12.4576ZM11.4569 10.9726C11.6612 10.8888 11.8313 10.5717 11.8353 10.2657C11.8392 9.95968 11.6766 9.77551 11.4723 9.85642C11.268 9.93732 11.0979 10.2544 11.0939 10.5634C11.09 10.8723 11.2526 11.0565 11.4569 10.9726ZM11.9971 15.7747C12.1547 15.7024 12.2867 15.4493 12.2934 15.2074C12.2971 14.9655 12.1723 14.8281 12.0147 14.8975C11.857 14.9669 11.7221 15.22 11.7183 15.4648C11.7146 15.7067 11.8394 15.847 11.9971 15.7747ZM16.0789 16.188C16.3037 16.0809 16.4973 15.7231 16.5101 15.3851C16.5229 15.047 16.3487 14.8599 16.121 14.964C15.8933 15.0682 15.6997 15.4318 15.6898 15.7699C15.6799 16.1079 15.8541 16.2951 16.0789 16.188ZM11.1665 19.1556C11.2628 19.1093 11.3421 18.9493 11.3455 18.8007C11.346 18.652 11.2705 18.5673 11.1742 18.6136C11.0779 18.6599 10.9986 18.8199 10.9981 18.9685C10.9976 19.1172 11.0731 19.202 11.1694 19.1557L11.1665 19.1556ZM15.7853 12.573C15.8816 12.5267 15.9609 12.3666 15.9643 12.218C15.9648 12.0694 15.8893 11.9846 15.793 12.0309C15.6966 12.0772 15.6174 12.2372 15.6169 12.3859C15.6164 12.5345 15.6919 12.6193 15.7882 12.573L15.7853 12.573ZM12.8034 10.9539C12.9348 10.899 13.0462 10.6954 13.0527 10.4943C13.0563 10.2961 12.9518 10.1763 12.8176 10.2312C12.6833 10.2861 12.5748 10.4897 12.5712 10.6908C12.5676 10.889 12.6721 11.0089 12.8034 10.9539ZM14.5272 15.6726C14.6761 15.6032 14.8023 15.3646 14.8089 15.1402C14.8155 14.9158 14.6993 14.7872 14.5475 14.8566C14.3986 14.9261 14.2725 15.1646 14.2659 15.389C14.2593 15.6134 14.3755 15.7421 14.5243 15.6726L14.5272 15.6726ZM9.25517 17.2809C9.35442 17.2346 9.43659 17.0717 9.43713 16.9143C9.43767 16.7569 9.35636 16.6692 9.25712 16.7126C9.15787 16.7588 9.07571 16.9189 9.07517 17.0762C9.07463 17.2336 9.15593 17.3243 9.25518 17.278L9.25517 17.2809ZM14.1907 10.9674C14.3775 10.8894 14.533 10.6043 14.5426 10.3274C14.5494 10.0506 14.4042 9.88978 14.2175 9.96492C14.0307 10.043 13.8723 10.3281 13.8655 10.6049C13.8587 10.8818 14.0039 11.0426 14.1907 10.9645L14.1907 10.9674ZM15.6897 14.1115C15.8969 14.016 16.0758 13.6902 16.0856 13.3784C16.0955 13.0666 15.9357 12.8941 15.7256 12.9866C15.5154 13.0792 15.3394 13.4079 15.3296 13.7197C15.3198 14.0316 15.4824 14.207 15.6897 14.1115ZM16.2376 11.5719C16.4682 11.4707 16.6646 11.1187 16.6774 10.7807C16.6903 10.4426 16.5102 10.2497 16.2796 10.345C16.0491 10.4434 15.8526 10.7953 15.8398 11.1363C15.8298 11.4773 16.007 11.6702 16.2376 11.5719ZM15.7157 9.91759C15.9433 9.82511 16.1369 9.47894 16.1497 9.14673C16.1596 8.8145 15.9824 8.62154 15.7548 8.71111C15.5272 8.80359 15.3336 9.14685 15.3208 9.48197C15.3109 9.81711 15.488 10.0101 15.7157 9.91759ZM8.76367 12.7209L8.75951 13.9333C8.91744 13.7735 9.03209 13.4883 9.03304 13.2114C9.03399 12.9346 8.92096 12.7476 8.76367 12.7209ZM13.8639 8.53559C13.8603 8.73085 14.0311 9.0666 14.2558 8.97411C14.4806 8.88453 14.6746 8.40721 14.681 8.21487C14.6875 8.02254 14.6785 8.10411 14.6699 8.05162C14.4073 8.15564 14.1446 8.25675 13.8849 8.36079C13.873 8.41904 13.8675 8.34032 13.8639 8.53559ZM16.6064 7.69977C16.7202 7.65353 16.8073 7.75 16.8009 7.91611C16.7945 8.08222 16.6978 8.25384 16.5839 8.30009C16.4701 8.34633 16.383 8.24694 16.3865 8.08373C16.3929 7.92054 16.4896 7.74892 16.6035 7.70267L16.6064 7.69977Z" fill="url(#paint3_radial_1433_348)"/>
<path fill-rule="evenodd" clip-rule="evenodd" d="M1.06964 16.0201C0.982237 13.4579 0.879239 9.49376 0.401123 8.68188C0.555256 11.3317 0.627674 14.0133 0.58982 16.5547C0.58953 16.6392 0.638837 16.7093 0.71158 16.7446L6.25148 19.4799C4.90492 18.6417 2.17022 17.1955 1.3213 16.5747C1.03058 16.3609 1.08016 16.3524 1.06965 16.0171L1.06964 16.0201Z" fill="url(#paint4_radial_1433_348)"/>
<path style="mix-blend-mode:screen" opacity="0.3" fill-rule="evenodd" clip-rule="evenodd" d="M1.24803 8.15137C1.48087 8.24543 1.67493 8.59876 1.68543 8.93688C1.69301 9.27499 1.51454 9.47548 1.28172 9.37559C1.04889 9.27861 0.854817 8.9282 0.844318 8.59008C0.833818 8.25196 1.0152 8.05439 1.24803 8.15137ZM3.04239 10.1423C3.19372 10.207 3.32115 10.4435 3.3262 10.6708C3.33125 10.8982 3.2084 11.026 3.05707 10.9614C2.90573 10.8967 2.7783 10.6602 2.77324 10.4358C2.76818 10.2113 2.88814 10.0777 3.04239 10.1423ZM1.91629 10.4591C2.03562 10.509 2.13409 10.6901 2.13932 10.8649C2.14455 11.0398 2.05094 11.1415 1.93162 11.0886C1.81231 11.0358 1.71383 10.8547 1.71152 10.6799C1.70629 10.505 1.79989 10.4062 1.9163 10.4561L1.91629 10.4591ZM1.22165 12.4473C1.38171 12.5178 1.51491 12.7689 1.52286 13.0021C1.52788 13.2382 1.40502 13.3689 1.24788 13.2984C1.08783 13.225 0.9546 12.9797 0.94958 12.7437C0.941645 12.5075 1.06451 12.3739 1.22456 12.4473L1.22165 12.4473ZM2.598 12.2451C2.80752 12.3391 2.98419 12.6661 2.98894 12.9809C2.9937 13.2928 2.83279 13.47 2.62327 13.376C2.41375 13.282 2.24 12.9521 2.23233 12.6402C2.22465 12.3283 2.38848 12.1511 2.60091 12.2451L2.598 12.2451ZM4.12783 8.93067C4.22678 8.97182 4.31079 9.12366 4.3132 9.2694C4.31269 9.41804 4.23662 9.5023 4.13766 9.46407C4.03871 9.42293 3.95762 9.27109 3.95521 9.12536C3.95279 8.97962 4.03179 8.88954 4.13075 8.93068L4.12783 8.93067ZM5.80974 9.71753C5.99892 9.79396 6.15529 10.0889 6.15722 10.3774C6.15915 10.663 6.00702 10.8316 5.81784 10.7551C5.62866 10.6758 5.47229 10.3809 5.47035 10.0953C5.46842 9.80963 5.62055 9.64111 5.80974 9.71753ZM2.08621 14.4555C2.20261 14.5083 2.30107 14.6952 2.3063 14.8701C2.31153 15.045 2.21793 15.1408 2.10445 15.088C1.98806 15.0322 1.88959 14.8483 1.88728 14.6734C1.88204 14.5014 1.97273 14.4026 2.08913 14.4555L2.08621 14.4555ZM1.17079 15.3821C1.39775 15.4907 1.58887 15.8527 1.59645 16.1909C1.60404 16.529 1.42853 16.7149 1.20448 16.6063C0.980434 16.4977 0.789325 16.1327 0.778816 15.7975C0.768306 15.4623 0.943816 15.2764 1.17079 15.3821ZM3.21078 14.5846C3.37083 14.6581 3.50693 14.915 3.51192 15.1598C3.51692 15.4018 3.39112 15.5412 3.22816 15.4649C3.06813 15.3886 2.93494 15.1316 2.92994 14.8897C2.92494 14.6478 3.05073 14.5112 3.21077 14.5876L3.21078 14.5846ZM2.81384 16.4486C2.9506 16.5161 3.06642 16.738 3.07153 16.9479C3.07664 17.1577 2.9684 17.2739 2.83165 17.2064C2.6949 17.1389 2.57908 16.917 2.57397 16.7072C2.56886 16.4973 2.67708 16.384 2.81383 16.4515L2.81384 16.4486ZM3.87051 11.7277C4.03057 11.7982 4.16379 12.0464 4.16587 12.2883C4.16796 12.5303 4.04216 12.6668 3.88502 12.5963C3.72496 12.5258 3.59175 12.2776 3.58674 12.0386C3.58173 11.7996 3.71044 11.6602 3.8705 11.7307L3.87051 11.7277ZM7.55599 10.4376C7.78883 10.5316 7.97703 10.8937 7.97873 11.2493C7.97751 11.6048 7.79026 11.814 7.55742 11.72C7.32459 11.623 7.1364 11.258 7.13469 10.9054C7.1359 10.5527 7.32315 10.3435 7.55599 10.4376ZM2.57869 8.52607C2.67764 8.56722 2.76164 8.71906 2.76405 8.8648C2.76647 9.01053 2.6904 9.09479 2.59145 9.05365C2.4925 9.01251 2.40849 8.86358 2.40607 8.71784C2.40366 8.57211 2.47972 8.48785 2.57869 8.52607ZM4.51168 14.286C4.73285 14.3858 4.91235 14.7362 4.91703 15.0714C4.92171 15.4066 4.74619 15.5954 4.52795 15.4927C4.30971 15.3899 4.1273 15.0395 4.12261 14.7073C4.11792 14.375 4.29052 14.1861 4.51168 14.286ZM4.21795 16.6516C4.38091 16.7279 4.51405 16.9965 4.51903 17.2443C4.5211 17.492 4.39531 17.6286 4.23236 17.5522C4.06941 17.473 3.93624 17.2102 3.93126 16.9625C3.92628 16.7147 4.055 16.5752 4.21795 16.6516ZM5.25852 13.2277C5.37783 13.2805 5.47337 13.4674 5.47568 13.6452C5.47798 13.823 5.38436 13.9276 5.26504 13.8747C5.14864 13.8218 5.05019 13.635 5.04788 13.4572C5.04849 13.2794 5.1392 13.1748 5.2556 13.2276L5.25852 13.2277ZM6.4527 11.7541C6.60403 11.8187 6.72854 12.0581 6.73066 12.2884C6.72986 12.5216 6.60991 12.6552 6.45566 12.5906C6.30433 12.5259 6.17982 12.2865 6.17769 12.0563C6.17848 11.826 6.29845 11.6894 6.44978 11.7541L6.4527 11.7541ZM4.73753 10.4687C4.97036 10.5657 5.15857 10.9248 5.1632 11.2746C5.16783 11.6244 4.98353 11.8248 4.7507 11.7278C4.52079 11.628 4.32966 11.2688 4.32502 10.922C4.32038 10.5751 4.5047 10.3717 4.73753 10.4687ZM0.66629 10.3615C0.768147 10.4056 0.855053 10.5603 0.857458 10.709C0.862778 10.8577 0.783807 10.939 0.681949 10.8949C0.580091 10.8509 0.4961 10.6961 0.49078 10.5474C0.485461 10.3988 0.564442 10.3145 0.6663 10.3586L0.66629 10.3615ZM6.06636 16.4801C6.24968 16.5653 6.3973 16.8631 6.39925 17.1458C6.40119 17.4285 6.25784 17.5854 6.07453 17.4973C5.89121 17.4093 5.74359 17.1115 5.74164 16.8317C5.73968 16.5519 5.88303 16.395 6.06636 16.4801ZM6.18496 15.0378C6.35084 15.1113 6.484 15.377 6.48313 15.6305C6.48226 15.8841 6.35353 16.0264 6.19057 15.953C6.02761 15.8796 5.89154 15.6139 5.88949 15.3603C5.89036 15.1068 6.01909 14.9644 6.18496 15.0378ZM7.16691 13.4091C7.37645 13.5001 7.55016 13.8388 7.54905 14.1623C7.54794 14.4858 7.37826 14.6718 7.16874 14.5778C6.95922 14.4838 6.78841 14.1481 6.78659 13.8275C6.7877 13.504 6.95447 13.318 7.164 13.4091L7.16691 13.4091ZM8.20344 14.5668C8.30238 14.6108 8.38053 14.7685 8.38001 14.92C8.37949 15.0716 8.3005 15.1588 8.20155 15.1176C8.10261 15.0736 8.02445 14.9159 8.02497 14.7644C8.02549 14.6128 8.10448 14.5256 8.20344 14.5668ZM7.64165 16.0571C7.86864 16.1599 8.05388 16.5336 8.05558 16.8892C8.05436 17.2447 7.87005 17.4481 7.64308 17.3424C7.41611 17.2367 7.23086 16.863 7.22915 16.5103C7.23036 16.1577 7.41176 15.9543 7.64165 16.0571ZM7.06823 17.5415C7.24864 17.6267 7.39336 17.9215 7.39531 18.2013C7.39436 18.4811 7.251 18.6409 7.0735 18.5558C6.89601 18.4707 6.74838 18.1729 6.74643 17.8931C6.74739 17.6133 6.89074 17.4564 7.06823 17.5415ZM8.17004 19.2095C8.28643 19.2653 8.37904 19.458 8.37841 19.6416C8.37778 19.8252 8.28416 19.9269 8.16777 19.8711C8.0543 19.8153 7.95879 19.6197 7.95941 19.439C7.96004 19.2554 8.05365 19.1537 8.16713 19.2095L8.17004 19.2095ZM8.76228 13.9333L8.76644 12.7209C8.71997 12.6741 8.76076 12.6772 8.61815 12.6184C8.47554 12.5596 8.19807 12.7306 8.19977 13.0862C8.19855 13.4418 8.47403 13.8507 8.61663 13.9124C8.75633 13.9712 8.71854 13.9419 8.76519 13.9362L8.76228 13.9333ZM6.01277 19.3595C5.97591 19.0592 5.81662 18.7643 5.62167 18.6703C5.42963 18.5764 5.27178 18.7129 5.24172 18.9809C5.49776 19.1071 5.75381 19.2333 6.00986 19.3595L6.01277 19.3595Z" fill="url(#paint5_radial_1433_348)"/>
<g style="mix-blend-mode:multiply" opacity="0.8">
<path fill-rule="evenodd" clip-rule="evenodd" d="M0.439859 9.29115C2.2634 9.57137 6.43363 11.4072 8.76925 12.7938L8.77756 10.369L0.290405 6.9765L0.439859 9.29115Z" fill="url(#paint6_radial_1433_348)"/>
</g>
<path fill-rule="evenodd" clip-rule="evenodd" d="M0.0219839 5.35795L0.108794 8.09208C0.111409 8.17953 0.163611 8.25549 0.245107 8.28783L8.58332 11.7701C8.70846 11.823 8.8367 11.8235 8.9622 11.7714L17.3241 8.34635C17.4058 8.31166 17.4585 8.23898 17.4617 8.15155L17.5673 5.41808C17.5675 5.34522 17.527 5.27804 17.4571 5.25449L8.96824 2.35458C8.86052 2.31924 8.75852 2.31889 8.65056 2.35349L0.142038 5.19515C0.0720098 5.21823 0.0280728 5.2822 0.0307276 5.35798L0.0219839 5.35795Z" fill="#0068FF"/>
<path fill-rule="evenodd" clip-rule="evenodd" d="M0.10877 8.08921C0.111384 8.17665 0.163596 8.24969 0.242168 8.28494L8.58037 11.7672C8.6444 11.7937 8.70557 11.8056 8.76969 11.8058L8.78021 8.73389L0.0573131 5.24444C0.0338972 5.27351 0.0221092 5.31136 0.0219793 5.34925L0.10879 8.08338L0.10877 8.08921Z" fill="url(#paint7_radial_1433_348)"/>
<g style="mix-blend-mode:screen" opacity="0.4">
<path fill-rule="evenodd" clip-rule="evenodd" d="M0.108765 8.08917C0.11138 8.17662 0.163592 8.24966 0.242164 8.2849L8.58037 11.7672C8.6444 11.7937 8.70556 11.8055 8.76968 11.8057C8.08578 11.5119 5.46969 10.3226 3.42365 9.48202C1.73559 8.78841 0.870977 8.4969 0.463546 8.32064C0.105592 8.16494 0.108765 8.08917 0.108765 8.08917Z" fill="url(#paint8_radial_1433_348)"/>
</g>
<path style="mix-blend-mode:screen" opacity="0.4" fill-rule="evenodd" clip-rule="evenodd" d="M0.308512 5.95647C0.300508 5.74076 0.429166 5.61879 0.592148 5.68639C0.75514 5.75106 0.891343 5.97886 0.899347 6.19457C0.904437 6.41026 0.778694 6.53224 0.615712 6.46465C0.45272 6.39997 0.316527 6.16925 0.311427 5.95648L0.308512 5.95647ZM1.47596 7.18166C1.46828 6.86977 1.65249 6.69553 1.88533 6.7896C2.11818 6.88366 2.31523 7.21368 2.31999 7.52555C2.32767 7.83743 2.14346 8.01167 1.91061 7.91761C1.67778 7.82063 1.48363 7.49354 1.47304 7.18165L1.47596 7.18166ZM0.6577 7.82005C0.655255 7.68306 0.734205 7.60755 0.836073 7.6487C0.937941 7.68986 1.02488 7.83588 1.03025 7.96997C1.03269 8.10696 0.95374 8.18247 0.851873 8.14131C0.750005 8.10016 0.663069 7.95414 0.65771 7.81714L0.6577 7.82005ZM3.84547 8.88312C3.84068 8.57999 4.01906 8.40865 4.24315 8.50268C4.46726 8.5938 4.65269 8.91503 4.65748 9.21816C4.66227 9.52129 4.4839 9.69263 4.2598 9.5986C4.0357 9.50457 3.85026 9.18625 3.84547 8.88312ZM2.81109 7.10171C2.806 6.88602 2.93758 6.76114 3.09766 6.82581C3.26065 6.89049 3.39393 7.12119 3.39901 7.3398C3.40409 7.55841 3.27543 7.68038 3.11244 7.6157C2.94945 7.55102 2.81325 7.32031 2.81109 7.10171ZM2.67765 8.61972C2.67519 8.48565 2.75414 8.41014 2.8531 8.45128C2.95205 8.49243 3.03609 8.63261 3.03855 8.76669C3.041 8.90077 2.96205 8.97627 2.8631 8.93513C2.76414 8.89399 2.68011 8.75089 2.67765 8.61972ZM5.31964 7.35221C4.99075 7.21993 4.66187 7.08765 4.33006 6.95536C4.32408 6.99906 4.31574 6.88245 4.32085 7.09231C4.32303 7.30508 4.5543 7.85963 4.8337 7.97426C5.1131 8.08888 5.33299 7.71075 5.3308 7.49798C5.33153 7.28522 5.3253 7.40178 5.31964 7.35221ZM5.35183 9.01652C5.34969 8.78918 5.48421 8.65849 5.65301 8.72901C5.82182 8.79663 5.95799 9.03609 5.96011 9.26634C5.95933 9.49367 5.82773 9.62438 5.65893 9.55385C5.49012 9.48624 5.35396 9.24386 5.35183 9.01652ZM6.50154 8.61243C6.50247 8.34138 6.66038 8.18745 6.86121 8.26683C7.06204 8.34621 7.22428 8.63239 7.22626 8.90345C7.22533 9.1745 7.06451 9.32842 6.86659 9.24905C6.66577 9.16675 6.50644 8.8835 6.50445 8.61244L6.50154 8.61243ZM6.46961 10.2765C6.47017 10.1133 6.56666 10.0204 6.68307 10.0703C6.8024 10.1203 6.9009 10.2926 6.90035 10.4529C6.89979 10.6161 6.80621 10.709 6.68689 10.6591C6.56756 10.6091 6.46906 10.4368 6.46961 10.2765ZM7.42384 9.93296C7.4252 9.53367 7.65915 9.30422 7.95311 9.42473C8.24707 9.54232 8.48462 9.96574 8.48324 10.3679C8.48186 10.7701 8.24501 10.9967 7.95105 10.8762C7.66001 10.7557 7.42247 10.3322 7.42092 9.93295L7.42384 9.93296Z" fill="url(#paint9_radial_1433_348)"/>
<path fill-rule="evenodd" clip-rule="evenodd" d="M0.0572504 5.24732L8.78015 8.73676L17.5268 5.30718C17.5064 5.2838 17.4803 5.26331 17.4483 5.25154L8.95942 2.35163C8.8517 2.31629 8.74969 2.31594 8.64174 2.35055L0.133217 5.1922C0.101118 5.20375 0.0748272 5.22115 0.0543359 5.24731L0.0572504 5.24732Z" fill="url(#paint10_radial_1433_348)"/>
<path fill-rule="evenodd" clip-rule="evenodd" d="M0.108772 8.08921C0.25352 7.52429 0.2186 5.80751 0.352956 5.72344C0.466871 5.65097 3.73308 6.79009 4.74619 7.1229C3.99248 6.78806 0.546462 5.38894 0.546821 5.28401C0.547271 5.15286 3.76888 3.99517 4.11033 3.86519L0.133272 5.19225C0.063244 5.21532 0.0193064 5.27929 0.0219613 5.35508L0.108772 8.08921Z" fill="url(#paint11_radial_1433_348)"/>
<path style="mix-blend-mode:screen" opacity="0.5" fill-rule="evenodd" clip-rule="evenodd" d="M2.2585 5.0276C2.49484 4.94971 2.87371 4.95684 3.10656 5.04799C3.34232 5.13915 3.34184 5.27905 3.10549 5.35984C2.86913 5.44064 2.49028 5.4306 2.25451 5.33944C2.01875 5.24828 2.02214 5.10839 2.25558 5.02759L2.2585 5.0276ZM4.91459 4.75107C5.06923 4.69914 5.31987 4.70292 5.47415 4.75882C5.62842 4.81764 5.62811 4.90799 5.47345 4.96284C5.31879 5.01768 5.06816 5.01391 4.91389 4.95509C4.75962 4.89627 4.75993 4.80592 4.91459 4.75107ZM4.29752 5.36393C4.41716 5.32062 4.61242 5.32712 4.73467 5.37125C4.85692 5.41831 4.85377 5.48824 4.73413 5.53155C4.61448 5.57486 4.41922 5.57128 4.29989 5.52423C4.18055 5.47719 4.17788 5.40723 4.30043 5.36394L4.29752 5.36393ZM5.13091 6.26155C5.29433 6.20381 5.55954 6.20764 5.72254 6.2694C5.88553 6.33408 5.88519 6.43317 5.72178 6.4909C5.55836 6.55155 5.29315 6.54773 5.13016 6.48305C4.96716 6.41837 4.9675 6.31928 5.13091 6.26155ZM5.99612 5.53005C6.21207 5.45209 6.55597 5.45619 6.77136 5.53853C6.98676 5.62088 6.98632 5.74912 6.77037 5.82707C6.55443 5.90502 6.2047 5.90091 5.99222 5.81857C5.77683 5.73623 5.78018 5.608 5.99321 5.53004L5.99612 5.53005ZM4.89988 3.94078C4.99909 3.90615 5.16229 3.90962 5.26417 3.94786C5.36313 3.98609 5.36294 4.04146 5.26373 4.0761C5.16452 4.11073 5.00131 4.10726 4.89944 4.06902C4.80047 4.03079 4.80066 3.97542 4.89988 3.94078ZM6.66504 3.39599C6.85762 3.32961 7.16946 3.33359 7.35867 3.40419C7.55079 3.47188 7.55043 3.57972 7.35784 3.64609C7.16525 3.71247 6.85341 3.70849 6.6642 3.6408C6.47208 3.5702 6.47245 3.46236 6.66504 3.39599ZM7.10652 6.39364C7.22616 6.35033 7.42143 6.351 7.54078 6.39513C7.66303 6.44218 7.65986 6.51503 7.54022 6.55834C7.42057 6.60165 7.2253 6.60098 7.10596 6.55685C6.98371 6.5098 6.98687 6.43695 7.10652 6.39364ZM7.07194 7.12798C7.30832 7.04136 7.6872 7.04266 7.92005 7.13381C8.15582 7.22496 8.15532 7.37069 7.91893 7.46023C7.68255 7.54977 7.30367 7.54556 7.06791 7.4544C6.83215 7.36033 6.83265 7.2146 7.06903 7.12797L7.07194 7.12798ZM8.00894 5.86046C8.17527 5.79982 8.44632 5.80075 8.61224 5.86253C8.77815 5.9243 8.7749 6.02338 8.61147 6.08694C8.44513 6.14758 8.177 6.14666 8.01108 6.08488C7.84516 6.02311 7.8426 5.92109 8.01185 5.86047L8.00894 5.86046ZM8.97123 6.56616C9.11422 6.51419 9.34447 6.51206 9.49001 6.56794C9.63263 6.6238 9.63526 6.70833 9.48934 6.76321C9.34634 6.81809 9.11318 6.81729 8.97056 6.76143C8.82794 6.70557 8.82824 6.61813 8.97123 6.56616ZM6.57575 4.78591C6.73916 4.72818 7.00146 4.732 7.16447 4.79084C7.32747 4.85261 7.33006 4.9488 7.16373 5.00652C7.00032 5.06425 6.73511 5.06042 6.5721 5.00158C6.4091 4.93981 6.40943 4.84363 6.57284 4.7859L6.57575 4.78591ZM8.43328 2.80165C8.66964 2.72085 9.04851 2.72507 9.28432 2.80457C9.52012 2.88407 9.51967 3.01522 9.28332 3.09602C9.04696 3.17681 8.66808 3.17552 8.4352 3.09311C8.1994 3.0107 8.19985 2.87954 8.43621 2.79875L8.43328 2.80165ZM3.48432 4.52758C3.58353 4.49295 3.74673 4.49642 3.84861 4.53466C3.94757 4.57289 3.94737 4.63118 3.84816 4.66581C3.74895 4.70045 3.58574 4.69697 3.48387 4.65874C3.3849 4.62051 3.3851 4.56222 3.48432 4.52758ZM8.7517 5.1402C8.97931 5.05937 9.34362 5.06062 9.57067 5.14301C9.79772 5.22539 9.79435 5.35945 9.56964 5.4432C9.34494 5.52695 8.97771 5.52569 8.75067 5.44039C8.52361 5.35801 8.52408 5.22103 8.7517 5.1402ZM10.1189 5.89683C10.2882 5.83329 10.5593 5.83131 10.731 5.89602C10.8998 5.9578 10.9024 6.05982 10.7302 6.12335C10.5609 6.18689 10.2841 6.18885 10.1152 6.12415C9.94641 6.06237 9.94967 5.96037 10.116 5.89682L10.1189 5.89683ZM8.59355 4.51303C8.71319 4.46972 8.90846 4.47039 9.02781 4.51452C9.14715 4.55865 9.14691 4.62859 9.02727 4.6719C8.90762 4.71521 8.71235 4.71454 8.59301 4.67041C8.47366 4.62629 8.4739 4.55634 8.59355 4.51303ZM8.49175 3.60043C8.64641 3.54559 8.89997 3.54646 9.05425 3.60236C9.20853 3.65827 9.20823 3.7457 9.05357 3.80055C8.89891 3.85539 8.64826 3.85453 8.49398 3.79863C8.33971 3.74272 8.33709 3.65528 8.49466 3.60044L8.49175 3.60043ZM6.37422 4.0595C6.61058 3.97871 6.98945 3.98292 7.22232 4.06824C7.45519 4.15356 7.45764 4.29055 7.22129 4.37135C6.98493 4.45214 6.60605 4.45084 6.37319 4.36261C6.14031 4.27729 6.13787 4.1403 6.37422 4.0595ZM3.31628 5.93473C3.42133 5.8972 3.58745 5.90068 3.68932 5.94183C3.7941 5.983 3.79389 6.0442 3.68884 6.08173C3.58378 6.11926 3.41767 6.11578 3.3158 6.07462C3.21102 6.03346 3.21123 5.97226 3.31628 5.93473ZM11.1093 5.20074C11.299 5.13144 11.608 5.12958 11.7943 5.19726C11.9835 5.26494 11.9802 5.37568 11.7934 5.4479C11.6037 5.52012 11.3006 5.52199 11.1114 5.4514C10.9222 5.38371 10.9226 5.27005 11.1123 5.20075L11.1093 5.20074ZM10.4734 4.51656C10.6427 4.45593 10.9166 4.45396 11.0855 4.51574C11.2543 4.57461 11.254 4.6737 11.0847 4.73724C10.9155 4.79787 10.6415 4.79985 10.4726 4.73806C10.3038 4.67628 10.3041 4.5801 10.4734 4.51656ZM10.112 3.66719C10.3279 3.59215 10.6777 3.59044 10.8931 3.66695C11.1085 3.74055 11.1052 3.86295 10.8922 3.94092C10.6762 4.01887 10.3294 4.01768 10.114 3.94408C9.89855 3.86756 9.89897 3.74515 10.1149 3.67012L10.112 3.66719ZM12.212 4.05911C12.4484 3.97248 12.8273 3.97086 13.0631 4.05036C13.2989 4.13278 13.2955 4.26684 13.0621 4.35347C12.8257 4.4401 12.4468 4.44463 12.2139 4.36222C11.9781 4.27981 11.9786 4.14574 12.215 4.05912L12.212 4.05911ZM12.7724 4.68182C12.9592 4.61251 13.2623 4.61064 13.4486 4.6754C13.6349 4.74015 13.6316 4.8509 13.4478 4.92021C13.261 4.98952 12.9608 4.99432 12.7745 4.92665C12.5882 4.86189 12.5886 4.75114 12.7753 4.68183L12.7724 4.68182ZM14.582 4.7842C14.7016 4.73798 14.8998 4.73575 15.0221 4.77697C15.1415 4.81818 15.1412 4.88813 15.0216 4.93435C14.9019 4.98057 14.7066 4.98282 14.5873 4.94161C14.4679 4.90039 14.4652 4.83044 14.5878 4.78422L14.582 4.7842ZM12.9859 5.3325C13.2193 5.24294 13.6011 5.24134 13.834 5.32374C14.0669 5.40615 14.0693 5.54605 13.8329 5.6356C13.5995 5.72515 13.2147 5.72966 12.979 5.64433C12.7461 5.55901 12.7466 5.41911 12.98 5.33248L12.9859 5.3325ZM11.8382 5.99599C12.0337 5.92088 12.3543 5.91907 12.5493 5.9926C12.7444 6.06322 12.7439 6.18271 12.5484 6.25782C12.3529 6.33293 12.0352 6.33475 11.8402 6.26413C11.6451 6.1906 11.6426 6.0711 11.8411 5.99891L11.8382 5.99599ZM9.4612 7.31979C9.65673 7.24468 9.9715 7.24576 10.1665 7.3222C10.3615 7.39574 10.3611 7.51814 10.1656 7.59325C9.97005 7.66836 9.65528 7.6702 9.46027 7.59084C9.26526 7.51439 9.26567 7.3949 9.4612 7.31979ZM10.8245 6.66869C11.1047 6.56181 11.5564 6.56045 11.8359 6.66341C12.1153 6.76638 12.1147 6.93833 11.8346 7.04813C11.5544 7.15792 11.0997 7.15927 10.8203 7.05339C10.5409 6.94751 10.5444 6.77557 10.8216 6.66868L10.8245 6.66869ZM13.9366 6.00027C14.103 5.93672 14.374 5.93182 14.54 5.99068C14.7059 6.04954 14.7055 6.15154 14.5392 6.21509C14.3728 6.27864 14.1018 6.28354 13.9359 6.22468C13.7699 6.16582 13.7703 6.06382 13.9366 6.00027ZM15.4751 5.25067C15.7086 5.16112 16.0934 5.1537 16.3263 5.23319C16.5591 5.31268 16.5587 5.45258 16.3252 5.54504C16.0917 5.63751 15.707 5.64493 15.4741 5.56253C15.2412 5.48012 15.2417 5.34023 15.4751 5.25067ZM8.49122 8.00721C8.61379 7.961 8.80906 7.96166 8.9284 8.00871C9.04773 8.05575 9.05039 8.13153 8.92781 8.18066C8.80524 8.22687 8.60997 8.2262 8.49063 8.17916C8.3713 8.13212 8.36864 8.05634 8.49121 8.01012L8.49122 8.00721ZM4.32121 6.95534L5.31079 7.3522C5.48894 7.24788 5.45737 7.10496 5.21579 7.00796C4.97422 6.91095 4.59831 6.89217 4.32413 6.95535L4.32121 6.95534ZM10.7706 7.94798C10.4909 7.91205 10.1673 7.93717 9.94552 8.02385C9.72371 8.11053 9.65624 8.23853 9.75205 8.3467C10.0935 8.2138 10.432 8.08089 10.7706 7.94798ZM12.9581 6.6148C13.0807 6.56858 13.2731 6.56633 13.3924 6.61045C13.5118 6.65458 13.5144 6.72745 13.3919 6.77658C13.2693 6.82279 13.0769 6.82796 12.9576 6.78092C12.8382 6.73679 12.8356 6.66101 12.9581 6.6148Z" fill="url(#paint12_radial_1433_348)"/>
<g style="mix-blend-mode:multiply">
<path fill-rule="evenodd" clip-rule="evenodd" d="M17.0944 9.88741C15.5467 9.89376 10.8376 11.364 8.76923 12.7938L8.77754 10.3689L17.2877 7.03474L17.0973 9.88742L17.0944 9.88741Z" fill="url(#paint13_radial_1433_348)"/>
</g>
<g style="mix-blend-mode:screen" opacity="0.5">
<path fill-rule="evenodd" clip-rule="evenodd" d="M0.0219839 5.35795L0.108794 8.09208C0.111409 8.17953 0.163611 8.25549 0.245107 8.28783L8.58332 11.7701C8.70846 11.823 8.8367 11.8235 8.9622 11.7714L17.3241 8.34635C17.4058 8.31166 17.4585 8.23898 17.4617 8.15155L17.5673 5.41808C17.5675 5.34522 17.527 5.27804 17.4571 5.25449L8.96824 2.35458C8.86052 2.31924 8.75852 2.31889 8.65056 2.35349L0.142038 5.19515C0.0720098 5.21823 0.0280728 5.2822 0.0307276 5.35798L0.0219839 5.35795Z" fill="url(#paint14_radial_1433_348)"/>
</g>
<path fill-rule="evenodd" clip-rule="evenodd" d="M8.78015 8.73675L8.76962 11.8086C8.83374 11.8089 8.89498 11.7974 8.95919 11.7714L17.3211 8.34632C17.4028 8.31163 17.4526 8.23894 17.4587 8.15152L17.5643 5.41805C17.5644 5.37725 17.5529 5.33932 17.5297 5.31009L8.78305 8.73967L8.78015 8.73675Z" fill="url(#paint15_radial_1433_348)"/>
<path style="mix-blend-mode:screen" opacity="0.4" fill-rule="evenodd" clip-rule="evenodd" d="M10.7852 7.95386C10.4437 8.08676 10.1052 8.21967 9.76663 8.35258C9.72542 8.47193 9.70511 8.44563 9.70417 8.7196C9.70323 8.99356 9.95252 9.39079 10.2648 9.26654C10.5771 9.14228 10.8356 8.54569 10.8395 8.27173C10.8404 7.99777 10.8228 8.04143 10.7852 7.95095L10.7852 7.95386ZM9.41659 10.1409C9.61506 10.06 9.77481 10.2179 9.77389 10.489C9.77295 10.7629 9.60876 11.048 9.41029 11.1289C9.21182 11.2098 9.05207 11.0519 9.053 10.7809C9.05392 10.5098 9.21812 10.2218 9.41659 10.1409ZM10.9285 9.49906C11.0715 9.44126 11.1848 9.5524 11.1842 9.74475C11.1835 9.93711 11.0633 10.1407 10.9203 10.1985C10.7773 10.2563 10.664 10.1452 10.6676 9.95283C10.6711 9.76048 10.7855 9.55686 10.9285 9.49906ZM13.9061 7.24758C14.1396 7.15512 14.3255 7.33354 14.3157 7.64536C14.3088 7.95719 14.1124 8.28878 13.8789 8.38124C13.6455 8.47662 13.4625 8.29821 13.4694 7.98346C13.4763 7.66872 13.6727 7.34005 13.9061 7.24758ZM12.3065 7.97656C12.6042 7.85809 12.8395 8.08623 12.8323 8.48549C12.8251 8.88476 12.5788 9.30652 12.2811 9.425C11.9863 9.54349 11.7481 9.31534 11.7553 8.91607C11.7625 8.51389 12.0059 8.09503 12.3065 7.97656ZM14.6838 8.23827C14.8706 8.16314 15.013 8.30352 15.0063 8.55123C14.9996 8.79895 14.8442 9.06072 14.6604 9.13587C14.4765 9.21102 14.3312 9.07062 14.3379 8.82291C14.3446 8.5752 14.5 8.31342 14.6868 8.23828L14.6838 8.23827ZM13.1566 9.087C13.2763 9.03786 13.3722 9.12854 13.3687 9.29174C13.3652 9.45203 13.2655 9.62365 13.1459 9.67278C13.0262 9.72192 12.9333 9.63125 12.9367 9.46805C12.9373 9.30775 13.0399 9.13615 13.1595 9.08992L13.1566 9.087ZM15.4795 6.53017C15.643 6.46661 15.7679 6.58945 15.7613 6.8051C15.7547 7.02075 15.617 7.25053 15.4564 7.3141C15.293 7.37766 15.1652 7.25481 15.1718 7.03916C15.1783 6.82351 15.3161 6.59373 15.4795 6.53017ZM17.4719 7.7203C17.4785 7.51339 17.4879 7.30357 17.4974 7.09667C17.5039 6.88977 17.5134 6.67995 17.5228 6.47305C17.4326 6.42611 17.3394 6.41413 17.2022 6.46904C17.0621 6.52394 16.8955 6.67492 16.787 6.85525C16.6786 7.03266 16.6079 7.25101 16.6014 7.46084C16.5948 7.67066 16.6525 7.83407 16.7484 7.93058C16.8472 8.0271 17.0045 8.04512 17.1446 7.98731C17.2847 7.9295 17.3782 7.84239 17.4748 7.72031L17.4719 7.7203ZM16.2825 8.64013C16.289 8.46819 16.118 8.17324 15.8933 8.26282C15.6686 8.35532 15.4776 8.79767 15.4712 8.96961C15.4648 9.14154 15.4709 9.05704 15.4795 9.09496C15.7422 8.98802 16.0019 8.88107 16.2646 8.77414C16.2735 8.73045 16.2761 8.80915 16.2796 8.6372L16.2825 8.64013Z" fill="url(#paint16_radial_1433_348)"/>
<g style="mix-blend-mode:screen">
<path fill-rule="evenodd" clip-rule="evenodd" d="M5.47388 7.41388C5.90164 7.61062 8.43061 8.70641 8.57561 8.91966C8.70609 9.11539 8.75251 10.8788 8.77459 11.2403C8.79914 10.879 8.85481 9.09258 8.98664 8.89776C9.12433 8.6913 10.8931 7.93667 11.2405 7.77464C10.8758 7.90163 9.01094 8.6093 8.78362 8.60561C8.52714 8.60473 5.9367 7.58451 5.47679 7.41389L5.47388 7.41388Z" fill="url(#paint17_radial_1433_348)"/>
</g>
<path fill-rule="evenodd" clip-rule="evenodd" d="M8.88364 4.90164C7.75262 4.10501 7.17948 3.80576 5.86954 3.33786C5.77349 3.30256 5.68033 3.27018 5.58427 3.23488C5.4853 3.19956 5.38624 3.19048 5.29282 3.23388C4.72066 3.50005 4.11963 3.68744 3.50995 3.84565C3.45452 3.86003 3.41936 3.91529 3.42207 3.97359C3.42193 4.01439 3.42178 4.05811 3.42164 4.09891C3.45082 4.09027 3.48 4.07871 3.50918 4.07007C3.58777 4.09948 3.66636 4.1289 3.74494 4.16122C5.18282 4.717 6.71182 5.04575 8.24407 5.27834L8.88363 4.90455L8.88364 4.90164Z" fill="url(#paint18_linear_1433_348)"/>
<path fill-rule="evenodd" clip-rule="evenodd" d="M3.93475 4.08029C5.4046 4.6624 6.85507 4.94425 8.41355 5.17693C8.35514 5.2117 8.29965 5.24357 8.24124 5.27835C6.70898 5.04868 5.17707 4.71991 3.74212 4.16123C3.66352 4.13182 3.58493 4.1024 3.50635 4.07008C3.47718 4.07872 3.44799 4.09028 3.41882 4.09892C3.41896 4.05812 3.41911 4.0144 3.41925 3.9736C3.42529 3.9095 3.49526 3.90391 3.59421 3.94505L3.93767 4.0803L3.93475 4.08029Z" fill="url(#paint19_radial_1433_348)"/>
<path fill-rule="evenodd" clip-rule="evenodd" d="M8.70602 4.89811C9.84247 4.10925 10.4177 3.81394 11.7308 3.35503C11.8271 3.32038 11.9204 3.28864 12.0167 3.254C12.1159 3.21936 12.2151 3.21096 12.3082 3.255C12.8785 3.52509 13.4782 3.71659 14.0868 3.87897C14.1422 3.89374 14.1769 3.94923 14.1738 4.00751C14.1737 4.04831 14.1735 4.09203 14.1734 4.13284C14.1443 4.12399 14.1152 4.11223 14.0861 4.10339C14.0073 4.13227 13.9285 4.16114 13.8497 4.19293C12.408 4.73884 10.8768 5.0571 9.343 5.27918C9.13067 5.15313 8.91834 5.02708 8.70601 4.90102L8.70602 4.89811Z" fill="url(#paint20_linear_1433_348)"/>
<path fill-rule="evenodd" clip-rule="evenodd" d="M13.6604 4.11066C12.1866 4.68269 10.7343 4.9546 9.17421 5.17658C9.23238 5.21176 9.28765 5.24401 9.34582 5.27918C10.8796 5.06002 12.4138 4.74176 13.8525 4.19293C13.9313 4.16405 14.0101 4.13518 14.0889 4.10339C14.118 4.11223 14.1471 4.12399 14.1762 4.13283C14.1764 4.09203 14.1765 4.04831 14.1766 4.00751C14.171 3.94337 14.1011 3.9373 14.0019 3.97777L13.6575 4.11065L13.6604 4.11066Z" fill="url(#paint21_radial_1433_348)"/>
<path fill-rule="evenodd" clip-rule="evenodd" d="M5.27713 10.3861L5.39936 10.439C5.39918 10.4914 5.39905 10.5293 5.30866 10.5407L5.13079 10.5634C5.10454 10.5691 5.08125 10.5632 5.05505 10.5544L3.13431 9.72005C3.00045 9.6613 3.00075 9.57095 2.99831 9.43396L2.93797 6.62997C2.93543 6.51921 2.99989 6.42033 3.10494 6.3828L3.61854 6.19803C5.08929 5.66389 6.43409 5.31292 8.00873 5.08224L8.85304 5.34744C8.27055 6.07699 6.86652 6.70172 5.71086 7.14077L5.4219 7.26219C5.32267 7.30265 5.25824 7.39278 5.25787 7.50062L5.27422 10.3832L5.27713 10.3861Z" fill="url(#paint22_linear_1433_348)"/>
<path fill-rule="evenodd" clip-rule="evenodd" d="M5.27727 10.386L5.26092 7.5035C5.26129 7.39567 5.32571 7.30845 5.42495 7.26507L5.7139 7.14365C6.86957 6.70169 8.27651 6.07989 8.85609 5.35033L8.76584 5.32087C8.76584 5.32087 8.75706 5.32958 8.75705 5.3325C7.99936 6.15763 6.36811 6.74952 5.24457 7.17119C5.122 7.2174 5.05153 7.36872 5.05109 7.49696C5.04863 8.21684 5.06257 9.25155 5.08482 10.4116C5.0846 10.4757 5.06095 10.5747 5.23298 10.552L5.31171 10.5406C5.4021 10.5293 5.40223 10.4914 5.40241 10.4389L5.28018 10.386L5.27727 10.386Z" fill="url(#paint23_radial_1433_348)"/>
<path fill-rule="evenodd" clip-rule="evenodd" d="M12.2749 10.4159L12.1523 10.4679C12.1521 10.5204 12.152 10.5583 12.2423 10.5703L12.42 10.5942C12.4462 10.6001 12.4696 10.5944 12.4958 10.5857L14.4222 9.76458C14.5565 9.70675 14.5568 9.6164 14.5602 9.47943L14.6397 6.67592C14.643 6.56518 14.5793 6.46586 14.4745 6.42762L13.9622 6.23933C12.4951 5.69511 11.1527 5.33494 9.5797 5.09347L8.7336 5.35288C9.31108 6.08641 10.7108 6.72074 11.8634 7.1677L12.1515 7.2911C12.2505 7.33224 12.3143 7.42281 12.3139 7.53065L12.2778 10.413L12.2749 10.4159Z" fill="url(#paint24_linear_1433_348)"/>
<path fill-rule="evenodd" clip-rule="evenodd" d="M12.2747 10.4159L12.3108 7.53357C12.3112 7.42574 12.2474 7.33808 12.1484 7.29403L11.8603 7.17063C10.7077 6.72075 9.30506 6.08932 8.73049 5.35581L8.82094 5.32697C8.82094 5.32697 8.82965 5.33574 8.82964 5.33866C9.58166 6.16896 11.2088 6.77202 12.3294 7.20138C12.4517 7.24843 12.5211 7.40023 12.5207 7.52846C12.5182 8.24835 12.4972 9.28293 12.467 10.4428C12.4668 10.5069 12.4897 10.6061 12.3179 10.5822L12.2392 10.5703C12.1489 10.5583 12.149 10.5204 12.1492 10.468L12.2718 10.4159L12.2747 10.4159Z" fill="url(#paint25_radial_1433_348)"/>
<path style="mix-blend-mode:screen" fill-rule="evenodd" clip-rule="evenodd" d="M11.1566 6.73389C11.3575 6.79287 11.9543 7.00184 12.3064 7.15461C12.4927 7.23685 12.5651 7.35077 12.5584 7.60722C12.5481 8.07351 12.5274 9.02066 12.4974 9.25664C12.4894 9.03219 12.4869 8.06456 12.4768 7.60694C12.4717 7.39125 12.4312 7.31242 12.277 7.22154C11.9716 7.03979 11.3603 6.82494 11.1566 6.73389Z" fill="url(#paint26_radial_1433_348)"/>
<path style="mix-blend-mode:screen" fill-rule="evenodd" clip-rule="evenodd" d="M6.42061 6.71478C6.21931 6.77238 5.62113 6.97726 5.26796 7.1276C5.08115 7.20857 5.0079 7.32199 5.01285 7.57848C5.01999 8.04483 5.05384 9.22534 5.08475 10.4117C5.07769 9.06803 5.08414 8.03631 5.09446 7.57876C5.10102 7.36311 5.1421 7.28456 5.29687 7.19474C5.60352 7.01509 6.21629 6.80443 6.42061 6.71478Z" fill="url(#paint27_radial_1433_348)"/>
<g opacity="0.75">
<g style="mix-blend-mode:screen">
<path d="M3.11003 6.56931C3.11003 6.56931 3.09829 6.59259 3.08663 6.59255C3.07497 6.59251 3.06336 6.58081 3.0634 6.56915C3.06344 6.55749 3.07513 6.54588 3.08679 6.54592C3.09845 6.54596 3.11007 6.55765 3.11003 6.56931Z" fill="#579DD9"/>
</g>
<g style="mix-blend-mode:screen">
<path d="M3.14507 6.56949C3.14496 6.60155 3.11864 6.62769 3.08658 6.62758C3.05452 6.62747 3.02838 6.60115 3.02849 6.56909C3.0286 6.53703 3.05492 6.51089 3.08698 6.511C3.11904 6.51111 3.14518 6.53743 3.14507 6.56949Z" fill="#A4FFFD"/>
</g>
</g>
<g style="mix-blend-mode:multiply">
<path fill-rule="evenodd" clip-rule="evenodd" d="M4.81492 17.6942C4.69251 17.6938 4.53832 17.6145 4.43657 17.5384C4.25925 17.4008 4.10854 17.1555 4.07429 16.9426C4.0543 16.823 4.05172 16.7268 4.06078 16.6336C4.06984 16.5404 4.12256 16.4648 4.19846 16.4301C4.21305 16.4243 4.23347 16.4185 4.25679 16.4186C4.41417 16.4191 4.6701 16.5803 4.77456 16.7147C4.96029 16.9485 5.04359 17.3044 4.96985 17.5606C4.93739 17.6771 4.87321 17.6944 4.81201 17.6942L4.81492 17.6942ZM4.7838 15.7209C4.71385 15.7207 4.63522 15.7029 4.59448 15.6824C4.3675 15.5796 4.14706 15.2699 4.1333 15.0338C4.11682 14.7394 4.19594 14.6143 4.27491 14.533C4.38021 14.4226 4.51741 14.3589 4.66046 14.2895C4.77432 14.2345 4.89401 14.1766 4.99921 14.0954C5.12195 13.9996 5.19233 13.8745 5.21912 13.7114C5.25488 13.4813 5.23526 13.2539 5.16016 13.0554C5.05617 12.784 4.66115 12.3892 4.27352 12.3879C4.20357 12.3876 4.13649 12.402 4.0752 12.4251C3.903 12.4973 3.84133 12.6312 3.80019 12.7302C3.7855 12.7651 3.7708 12.8 3.74737 12.8349C3.73272 12.8582 3.70347 12.8872 3.63061 12.887C3.56649 12.8867 3.48789 12.8602 3.42099 12.8192C3.30467 12.743 3.20601 12.6174 3.13954 12.4539C2.99791 12.1066 3.06629 11.7163 3.30302 11.5248C3.44623 11.4087 3.60963 11.3538 3.80782 11.3545C4.006 11.3552 4.24188 11.4143 4.51251 11.5376C5.41752 11.9488 5.99772 12.7377 6.10226 13.6998C6.18421 14.4521 5.99044 14.8624 5.45634 15.0791C5.2141 15.1774 5.05941 15.241 4.98337 15.3165C4.88101 15.4181 4.86606 15.5288 4.86577 15.6134C4.8655 15.6921 4.81294 15.721 4.77797 15.7209L4.7838 15.7209Z" fill="#6689BA"/>
</g>
<path fill-rule="evenodd" clip-rule="evenodd" d="M3.61585 16.329C3.59481 16.5154 4.3017 17.7565 4.37448 17.783C4.58137 17.7954 4.91125 17.6362 4.9732 17.4207C5.06171 17.1063 4.95234 16.7037 4.75211 16.4494C4.63312 16.3004 4.33072 16.0924 4.10919 16.1004C3.97802 16.1058 3.69779 16.2331 3.61877 16.329L3.61585 16.329ZM3.10277 12.9638C3.25998 13.0139 3.61293 12.9277 3.73304 12.7503C3.82092 12.6195 3.82144 12.4679 3.99656 12.3956C4.32054 12.2598 4.77967 12.6577 4.88945 12.9408C4.95589 13.1159 4.9727 13.3142 4.93993 13.521C4.91612 13.6637 4.85753 13.7509 4.77279 13.8148C4.55362 13.986 4.25322 14.0432 4.03679 14.264C3.90517 14.4005 3.83753 14.5781 3.85401 14.8696C3.87048 15.1669 4.13683 15.6895 4.40455 15.81C4.55034 15.793 4.83644 15.6541 4.86288 15.5929C4.90398 15.5056 4.81994 15.3655 4.94568 15.2435C5.01002 15.1796 5.20264 15.1045 5.37191 15.038C6.03734 14.7692 6.182 14.2305 6.10577 13.5133C5.99272 12.4812 5.37471 11.6688 4.43769 11.243C4.15251 11.1138 3.83806 11.0194 3.54357 11.0563C3.3832 11.0762 3.02723 11.1915 2.88695 11.3047C2.78092 11.6279 2.79742 12.7646 3.10569 12.9609L3.10277 12.9638Z" fill="url(#paint28_radial_1433_348)"/>
<path fill-rule="evenodd" clip-rule="evenodd" d="M3.72983 16.2507C3.61306 16.3057 3.52815 16.419 3.51015 16.5676C3.4981 16.6841 3.50353 16.7978 3.52354 16.9145C3.56347 17.1682 3.73739 17.4457 3.93796 17.6008C4.16179 17.7735 4.59258 17.9382 4.70174 17.551C4.79026 17.2365 4.68088 16.8339 4.48065 16.5797C4.34136 16.4043 3.95459 16.1494 3.73273 16.2536L3.72983 16.2507ZM2.60032 12.4608C2.67258 12.6359 2.78571 12.7937 2.93692 12.8933C3.08815 12.99 3.3386 13.0463 3.45872 12.866C3.5466 12.7351 3.54713 12.5807 3.72225 12.5084C4.04914 12.3725 4.50828 12.7705 4.61805 13.0565C4.68448 13.2316 4.70128 13.4327 4.66852 13.6366C4.64472 13.7794 4.58613 13.8666 4.50139 13.9304C4.28221 14.1016 3.9789 14.1589 3.76246 14.3826C3.63084 14.5191 3.5632 14.6967 3.57967 14.9911C3.59614 15.2884 3.85434 15.6391 4.12205 15.7624C4.21226 15.8035 4.37538 15.8303 4.47167 15.7986C4.51835 15.7841 4.57089 15.761 4.59144 15.7174C4.63255 15.6301 4.54851 15.4899 4.67425 15.3679C4.73859 15.304 4.9312 15.2289 5.10047 15.1624C5.76882 14.8937 5.91349 14.3521 5.83434 13.6348C5.72131 12.5998 5.10038 11.7874 4.16046 11.3587C3.72105 11.159 3.20559 11.0377 2.80227 11.3627C2.51293 11.5978 2.42976 12.0522 2.5945 12.4579L2.60032 12.4608Z" fill="url(#paint29_radial_1433_348)"/>
<path style="mix-blend-mode:screen" fill-rule="evenodd" clip-rule="evenodd" d="M3.10882 11.2006C3.8382 10.9816 4.64094 11.471 5.06762 11.9825C4.57072 11.5495 3.89603 11.1187 3.10882 11.2006Z" fill="url(#paint30_radial_1433_348)"/>
<g style="mix-blend-mode:multiply">
<path fill-rule="evenodd" clip-rule="evenodd" d="M11.7538 13.6288C11.7229 13.3023 11.9372 12.8513 12.1862 12.4849C12.6021 11.8772 13.5491 11.1081 14.3006 11.2214C14.8803 11.3079 15.0913 11.8216 15.1098 12.3725C15.1307 13.0721 14.9104 13.5697 14.5238 14.128C14.3246 14.4158 14.0409 14.7151 13.8796 15.0176C13.8502 15.0758 13.818 15.1311 13.8003 15.1951C13.7708 15.3029 13.8084 15.3817 13.7409 15.5068C13.6383 15.6959 13.4306 15.8963 13.209 15.9305C12.8941 15.979 12.7812 15.7483 12.7966 15.5006C12.8216 15.0198 13.0296 14.697 13.2991 14.3191C13.5538 13.9614 14.0864 13.3337 13.9451 12.8961C13.8817 12.7006 13.7654 12.6127 13.6314 12.5948C13.1157 12.5347 12.8862 13.181 12.7334 13.5477C12.6481 13.7543 12.534 13.9026 12.3325 14.0039C12.026 14.1602 11.7848 13.9466 11.7538 13.6288Z" fill="#6689BA"/>
</g>
<g style="mix-blend-mode:multiply">
<path fill-rule="evenodd" clip-rule="evenodd" d="M13.2128 16.5076C12.842 16.7103 12.6163 17.0709 12.6411 17.4965C12.6548 17.7414 12.8054 18.0101 13.0971 17.9411C13.6193 17.8205 13.8948 17.358 13.8849 16.845C13.8777 16.4078 13.5282 16.3338 13.2128 16.5076Z" fill="#6689BA"/>
</g>
<path fill-rule="evenodd" clip-rule="evenodd" d="M11.4308 13.4791C11.3999 13.1525 11.6142 12.7015 11.8632 12.3351C12.2791 11.7274 13.2261 10.9583 13.9776 11.0716C14.1757 11.1015 14.4115 11.1897 14.5656 11.2864C15.1641 11.8568 14.5816 13.4228 14.2008 13.9782C14.1188 14.0974 13.1544 15.6971 13.0722 15.8921C12.9759 15.9063 12.7141 15.783 12.6559 15.7508C12.5162 15.6833 12.4672 15.517 12.4766 15.345C12.5015 14.8671 12.7096 14.5414 12.979 14.1635C13.2338 13.8058 13.7664 13.1781 13.6251 12.7405C13.5616 12.545 13.4453 12.4571 13.3113 12.4392C12.7957 12.3791 12.5661 13.0254 12.4133 13.3921C12.3281 13.5987 12.2775 13.9046 12.0731 14.0088C11.974 14.0085 11.68 13.8938 11.5958 13.8206C11.5057 13.7445 11.4449 13.619 11.4308 13.4732L11.4308 13.4791ZM12.887 16.3549C12.5161 16.5576 12.2905 16.9183 12.3152 17.3439C12.3235 17.4925 12.3812 17.6472 12.4888 17.7321C12.5644 17.7906 12.8845 17.9229 12.9487 17.9085C13.241 17.6501 13.5999 16.6837 13.6562 16.4275C13.502 16.3395 13.371 16.2924 13.2632 16.2746C13.1496 16.2538 13.0154 16.2854 12.884 16.3549L12.887 16.3549Z" fill="url(#paint31_radial_1433_348)"/>
<mask id="mask0_1433_348" style="mask-type:luminance" maskUnits="userSpaceOnUse" x="11" y="11" width="4" height="7">
<path d="M11.4308 13.4791C11.3999 13.1525 11.6142 12.7015 11.8632 12.3351C12.2791 11.7274 13.2261 10.9583 13.9776 11.0716C14.1757 11.1015 14.4115 11.1897 14.5656 11.2864C15.1641 11.8568 14.5816 13.4228 14.2008 13.9782C14.1188 14.0974 13.1544 15.6971 13.0722 15.8921C12.9759 15.9063 12.7141 15.783 12.6559 15.7508C12.5162 15.6833 12.4672 15.517 12.4766 15.345C12.5015 14.8671 12.7096 14.5414 12.979 14.1635C13.2338 13.8058 13.7664 13.1781 13.6251 12.7405C13.5616 12.545 13.4453 12.4571 13.3113 12.4392C12.7957 12.3791 12.5661 13.0254 12.4133 13.3921C12.3281 13.5987 12.2775 13.9046 12.0731 14.0088C11.974 14.0085 11.68 13.8938 11.5958 13.8206C11.5057 13.7445 11.4449 13.619 11.4308 13.4732L11.4308 13.4791ZM12.887 16.3549C12.5161 16.5576 12.2905 16.9183 12.3152 17.3439C12.3235 17.4925 12.3812 17.6472 12.4888 17.7321C12.5644 17.7906 12.8845 17.9229 12.9487 17.9085C13.241 17.6501 13.5999 16.6837 13.6562 16.4275C13.502 16.3395 13.371 16.2924 13.2632 16.2746C13.1496 16.2538 13.0154 16.2854 12.884 16.3549L12.887 16.3549Z" fill="white"/>
</mask>
<g mask="url(#mask0_1433_348)">
</g>
<path fill-rule="evenodd" clip-rule="evenodd" d="M11.7014 13.5878C11.6705 13.2613 11.8848 12.8103 12.1338 12.4439C12.5497 11.8362 13.4967 11.0671 14.2482 11.1804C14.8279 11.2669 15.0389 11.7806 15.0575 12.3315C15.0784 13.0311 14.8581 13.5287 14.4714 14.087C14.2723 14.3748 13.9885 14.674 13.8272 14.9766C13.7979 15.0348 13.7656 15.0901 13.7479 15.1541C13.7184 15.2619 13.756 15.3407 13.6885 15.4658C13.5859 15.6549 13.3783 15.8553 13.1566 15.8895C12.8417 15.9379 12.7288 15.7073 12.7443 15.4596C12.7692 14.9788 12.9773 14.656 13.2467 14.278C13.5015 13.9204 14.0341 13.2927 13.8928 12.8551C13.8293 12.6596 13.713 12.5717 13.579 12.5538C13.0634 12.4937 12.8338 13.14 12.681 13.5067C12.5958 13.7133 12.4816 13.8616 12.2801 13.9629C11.9736 14.1192 11.7324 13.9056 11.7014 13.5878ZM13.1576 16.4636C12.7868 16.6664 12.5611 17.027 12.5859 17.4526C12.5996 17.6975 12.7502 17.9661 13.0419 17.8972C13.564 17.7766 13.8396 17.3141 13.8297 16.8011C13.8224 16.3639 13.473 16.2898 13.1576 16.4636Z" fill="url(#paint32_radial_1433_348)"/>
<g opacity="0.75">
<g style="mix-blend-mode:screen">
<path d="M3.6568 11.2257C3.67612 11.2258 3.6918 11.218 3.69184 11.2083C3.69187 11.1987 3.67624 11.1908 3.65692 11.1907C3.63761 11.1907 3.62192 11.1984 3.62189 11.2081C3.62186 11.2178 3.63749 11.2256 3.6568 11.2257Z" fill="#579DD9"/>
</g>
<g style="mix-blend-mode:screen">
<path d="M3.65672 11.252C3.705 11.2521 3.74422 11.2327 3.7443 11.2086C3.74438 11.1844 3.7053 11.1647 3.65702 11.1645C3.60873 11.1644 3.56951 11.1838 3.56943 11.208C3.56935 11.2321 3.60843 11.2518 3.65672 11.252Z" fill="#A4FFFD"/>
</g>
</g>
<path fill-rule="evenodd" clip-rule="evenodd" d="M11.3964 1.40623C11.4298 2.72372 10.6486 3.58666 9.72563 4.16932C9.52353 4.46008 9.32727 4.74794 9.13978 5.0271C10.0847 4.85255 11.3211 4.64985 12.2903 4.19268C12.8713 3.91779 13.4589 3.39519 13.7497 2.72292C14.0787 1.96627 13.9918 0.983777 13.2958 0.809434C13.2404 0.800501 13.1851 0.791567 13.1298 0.779719C13.1006 0.776705 13.0744 0.773701 13.0453 0.773601C12.2876 0.727287 11.7911 1.03744 11.3935 1.40622L11.3964 1.40623Z" fill="url(#paint33_linear_1433_348)"/>
<path fill-rule="evenodd" clip-rule="evenodd" d="M8.54017 4.77145L9.13683 5.00957C9.73144 4.146 10.3319 3.29118 10.9672 2.45689C11.62 1.59933 12.2089 0.71242 13.197 0.701233C12.3842 0.581867 11.7525 0.364026 11.0889 0.0907007C10.5214 -0.144407 10.0659 0.113425 9.7454 0.922568C9.24859 2.16537 8.87394 3.47854 8.54017 4.77145Z" fill="url(#paint34_linear_1433_348)"/>
<path d="M9.07576 4.9861C9.63237 4.15445 10.2123 3.33163 10.8212 2.53805C11.3862 1.80261 12.2949 0.284333 13.4474 0.780838C14.0469 1.03937 14.0791 1.84972 13.9432 2.39427C13.825 2.86311 13.5612 3.28481 13.222 3.62757C12.2802 4.57739 10.621 4.83984 9.35818 5.06868L8.97613 5.14023L9.07866 4.98903L9.07576 4.9861ZM9.1515 4.99511C10.502 4.68496 12.5752 4.40936 13.3811 3.10932C13.8383 2.37351 14.0399 1.37452 13.3534 0.993277C12.5389 0.538733 11.5023 1.9633 10.9958 2.62608C10.4249 3.37025 9.78643 4.27448 9.15149 4.99802L9.1515 4.99511Z" fill="url(#paint35_radial_1433_348)"/>
<path fill-rule="evenodd" clip-rule="evenodd" d="M5.72106 5.00956C6.42573 6.90059 7.91043 5.69906 9.19509 5.03895L8.5519 4.76861C7.70005 5.00468 6.56013 5.10278 5.72105 5.01247L5.72106 5.00956Z" fill="url(#paint36_linear_1433_348)"/>
<path fill-rule="evenodd" clip-rule="evenodd" d="M4.77623 1.74489C5.16997 1.66172 5.33012 1.70599 5.81033 1.90874C6.27016 2.10267 6.67174 2.28475 7.15216 2.42338C7.65298 2.56499 7.85111 2.58024 8.09788 2.8638C8.25174 3.04211 8.37338 3.26695 8.48336 3.49174C8.7207 3.97346 8.95237 4.40852 9.2598 4.84966C9.2479 4.91957 9.23601 4.98948 9.22412 5.05647C8.8573 4.93572 8.56918 4.81232 8.26096 4.60433C7.58053 4.14442 7.09328 3.44618 6.56202 2.83522C6.20204 2.42012 5.81562 2.06614 5.20727 1.83381C5.053 1.77499 4.90738 1.74534 4.77623 1.74489Z" fill="url(#paint37_linear_1433_348)"/>
<path fill-rule="evenodd" clip-rule="evenodd" d="M7.75217 2.54786C7.25369 2.5753 7.01116 2.75808 6.59866 3.20842C6.22421 3.61517 5.92215 4.15916 5.85613 4.71269C5.79912 5.19048 5.93745 5.64853 6.39383 5.99693C5.61106 5.63576 4.86027 5.29801 3.98098 5.03561C3.82384 4.96512 3.68428 4.86555 3.57101 4.74858C2.45575 3.60517 3.79166 1.59581 5.2342 1.64155C5.31581 1.64183 5.4003 1.65087 5.47014 1.68317C6.20344 2.02085 6.87278 2.3146 7.75801 2.54496L7.75217 2.54786Z" fill="url(#paint38_linear_1433_348)"/>
<path fill-rule="evenodd" clip-rule="evenodd" d="M7.58263 2.69299C7.86832 2.67357 8.07733 2.91911 8.1904 3.09437C8.36722 3.37477 8.49732 3.68415 8.65079 3.97613C8.80424 4.27103 9.03047 4.59532 9.22189 4.86702L9.1924 4.96893C8.90036 5.13989 8.57035 5.33403 8.27542 5.49915C7.94837 5.68164 7.55139 5.85516 7.18389 5.9355C6.80179 6.02163 6.37651 5.95022 6.12709 5.59088C5.78197 5.09423 6.02064 4.33727 6.28459 3.85727C6.44296 3.56928 6.66266 3.24652 6.91114 3.02878C7.08946 2.872 7.33777 2.70673 7.58264 2.69008L7.58263 2.69299ZM7.55113 2.52967C6.5658 2.59333 5.27927 4.65241 5.97532 5.65448C6.07392 5.79763 6.2047 5.90883 6.36473 5.98516C6.59461 6.09378 6.88304 6.12683 7.2097 6.058C7.88345 5.91458 8.62842 5.39835 9.22416 5.05648L9.2978 4.82939C8.9381 4.33269 8.59385 3.57956 8.29552 3.03644C8.15069 2.77363 7.96476 2.59812 7.74052 2.54781C7.67936 2.53302 7.61526 2.52698 7.55112 2.53259L7.55113 2.52967Z" fill="url(#paint39_radial_1433_348)"/>
<path style="mix-blend-mode:screen" fill-rule="evenodd" clip-rule="evenodd" d="M7.32953 2.57555C6.35732 3.06186 5.77341 4.20527 5.80768 5.26336C5.62135 4.35339 6.27617 2.93043 7.32953 2.57555Z" fill="url(#paint40_radial_1433_348)"/>
<path style="mix-blend-mode:screen" fill-rule="evenodd" clip-rule="evenodd" d="M9.76991 3.97415C10.3999 2.99994 11.6192 0.993093 12.5263 0.780526C11.4895 1.40651 10.5311 2.99165 9.76991 3.97415Z" fill="url(#paint41_radial_1433_348)"/>
<mask id="mask1_1433_348" style="mask-type:luminance" maskUnits="userSpaceOnUse" x="8" y="0" width="7" height="6">
<path d="M9.07576 4.9861C9.63237 4.15445 10.2123 3.33163 10.8212 2.53805C11.3862 1.80261 12.2949 0.284333 13.4474 0.780838C14.0469 1.03937 14.0791 1.84972 13.9432 2.39427C13.825 2.86311 13.5612 3.28481 13.222 3.62757C12.2802 4.57739 10.621 4.83984 9.35818 5.06868L8.97613 5.14023L9.07866 4.98903L9.07576 4.9861ZM9.1515 4.99511C10.502 4.68496 12.5752 4.40936 13.3811 3.10932C13.8383 2.37351 14.0399 1.37452 13.3534 0.993277C12.5389 0.538733 11.5023 1.9633 10.9958 2.62608C10.4249 3.37025 9.78643 4.27448 9.15149 4.99802L9.1515 4.99511Z" fill="white"/>
</mask>
<g mask="url(#mask1_1433_348)">
<g style="mix-blend-mode:screen">
<g style="mix-blend-mode:screen">
<path d="M12.0498 1.25403C12.0498 1.27735 12.0322 1.29478 12.0089 1.2947C11.9856 1.29462 11.9682 1.27707 11.9682 1.25375C11.9683 1.23044 11.9859 1.21301 12.0092 1.21309C12.0325 1.21317 12.0499 1.23072 12.0498 1.25403Z" fill="#FFCC00"/>
</g>
<g style="mix-blend-mode:screen">
<path d="M12.111 1.25426C12.1108 1.31255 12.064 1.35902 12.0057 1.35882C11.9474 1.35862 11.9009 1.31183 11.9011 1.25354C11.9013 1.19525 11.9481 1.14878 12.0064 1.14898C12.0647 1.14918 12.1112 1.19597 12.111 1.25426Z" fill="#FFDB27"/>
</g>
</g>
<g style="mix-blend-mode:screen">
<g style="mix-blend-mode:screen">
<path d="M13.3923 4.14692C13.3922 4.17023 13.3746 4.18766 13.3513 4.18758C13.328 4.1875 13.3106 4.16995 13.3107 4.14664C13.3107 4.12332 13.3283 4.10589 13.3516 4.10597C13.3749 4.10605 13.3923 4.1236 13.3923 4.14692Z" fill="#FFCC00"/>
</g>
<g style="mix-blend-mode:screen">
<path d="M13.4534 4.14715C13.4532 4.20544 13.4064 4.25191 13.3481 4.25171C13.2898 4.25151 13.2433 4.20472 13.2435 4.14643C13.2437 4.08814 13.2905 4.04166 13.3488 4.04186C13.4071 4.04206 13.4536 4.08886 13.4534 4.14715Z" fill="#FFDB27"/>
</g>
</g>
</g>
<mask id="mask2_1433_348" style="mask-type:luminance" maskUnits="userSpaceOnUse" x="5" y="2" width="5" height="5">
<path d="M7.58263 2.69299C7.86832 2.67357 8.07733 2.91911 8.1904 3.09437C8.36722 3.37477 8.49732 3.68415 8.65079 3.97613C8.80424 4.27103 9.03047 4.59532 9.22189 4.86702L9.1924 4.96893C8.90036 5.13989 8.57035 5.33403 8.27542 5.49915C7.94837 5.68164 7.55139 5.85516 7.18389 5.9355C6.80179 6.02163 6.37651 5.95022 6.12709 5.59088C5.78197 5.09423 6.02064 4.33727 6.28459 3.85727C6.44296 3.56928 6.66266 3.24652 6.91114 3.02878C7.08946 2.872 7.33777 2.70673 7.58264 2.69008L7.58263 2.69299ZM7.55113 2.52967C6.5658 2.59333 5.27927 4.65241 5.97532 5.65448C6.07392 5.79763 6.2047 5.90883 6.36473 5.98516C6.59461 6.09378 6.88304 6.12683 7.2097 6.058C7.88345 5.91458 8.62842 5.39835 9.22416 5.05648L9.2978 4.82939C8.9381 4.33269 8.59385 3.57956 8.29552 3.03644C8.15069 2.77363 7.96476 2.59812 7.74052 2.54781C7.67936 2.53302 7.61526 2.52698 7.55112 2.53259L7.55113 2.52967Z" fill="white"/>
</mask>
<g mask="url(#mask2_1433_348)">
<g style="mix-blend-mode:screen">
<g style="mix-blend-mode:screen">
<path d="M5.96615 3.23541C5.96608 3.25582 5.94853 3.27324 5.92813 3.27317C5.90773 3.2731 5.8903 3.25556 5.89037 3.23515C5.89044 3.21475 5.90799 3.19733 5.92839 3.1974C5.94879 3.19747 5.96622 3.21501 5.96615 3.23541Z" fill="#FFCC00"/>
</g>
<g style="mix-blend-mode:screen">
<path d="M5.92792 3.33148C5.98103 3.33166 6.02424 3.28875 6.02442 3.23563C6.02461 3.18251 5.98169 3.13931 5.92858 3.13912C5.87546 3.13894 5.83225 3.18185 5.83207 3.23497C5.83189 3.28809 5.8748 3.3313 5.92792 3.33148Z" fill="#FFDB27"/>
</g>
</g>
</g>
<path style="mix-blend-mode:screen" opacity="0.75" d="M11.1496 4.52393C12.2146 4.17492 13.3445 3.60172 13.707 2.40217C13.6211 2.83031 13.2731 4.01825 11.1496 4.52393Z" fill="url(#paint42_radial_1433_348)"/>
<g opacity="0.75">
<g style="mix-blend-mode:screen">
<path d="M12.009 1.24217C12.0251 1.24222 12.0382 1.22922 12.0383 1.21312C12.0383 1.19703 12.0253 1.18393 12.0092 1.18388C11.9932 1.18382 11.9801 1.19683 11.98 1.21292C11.9799 1.22902 11.993 1.24211 12.009 1.24217Z" fill="#FFCC00"/>
</g>
<g style="mix-blend-mode:screen">
<path d="M12.0089 1.28884C12.0507 1.28898 12.0847 1.25517 12.0849 1.21332C12.085 1.17147 12.0512 1.13743 12.0094 1.13728C11.9675 1.13714 11.9335 1.17095 11.9333 1.2128C11.9332 1.25465 11.967 1.28869 12.0089 1.28884Z" fill="#FFDB27"/>
</g>
</g>
<path fill-rule="evenodd" clip-rule="evenodd" d="M13.9457 4.24787C14.2724 4.17904 14.5028 4.11571 14.8209 4.00022C15.5388 3.74037 15.7718 3.78197 16.293 3.9324C16.1906 4.04572 16.1027 4.17074 16.0294 4.31039C16.2035 4.53249 16.3396 4.78069 16.4349 5.0579C15.7095 4.9534 15.447 4.99914 14.8078 5.28549C14.6385 5.36068 14.4487 5.4533 14.2213 5.47292C13.7782 5.51221 13.8725 5.21525 13.8998 4.89766C13.9209 4.68205 13.9304 4.4635 13.9457 4.24496L13.9457 4.24787Z" fill="url(#paint43_linear_1433_348)"/>
<path style="mix-blend-mode:multiply" opacity="0.6" fill-rule="evenodd" clip-rule="evenodd" d="M14.7815 5.29414C14.6718 4.99066 14.5949 4.45412 14.6195 4.06657C14.3978 4.14159 14.2023 4.19046 13.9486 4.24497C13.9333 4.46351 13.9238 4.67915 13.9026 4.89767C13.8724 5.21234 13.7781 5.51221 14.2242 5.47293C14.4399 5.45327 14.6209 5.36937 14.7844 5.29415L14.7815 5.29414Z" fill="url(#paint44_linear_1433_348)"/>
<path fill-rule="evenodd" clip-rule="evenodd" d="M9.73119 5.13114C9.577 5.049 9.42869 4.95232 9.26863 4.88182C8.6604 4.61743 8.04631 4.36176 7.42339 4.13229C6.86742 3.92637 6.06533 4.09849 5.92315 4.76252C5.85207 5.09453 5.97913 5.43888 5.93171 5.66897C5.89616 5.83497 5.7503 5.87528 5.43856 5.84215C5.33368 5.83013 5.22588 5.8181 5.12674 5.83234C4.68938 5.8833 4.42299 6.22339 4.29339 6.62223C4.05773 7.35006 4.53008 8.14443 4.25995 8.7235C4.74378 8.71933 5.11432 8.60402 5.37712 8.4621C5.71352 8.9529 6.31856 9.29889 6.51516 9.76297C6.81741 9.16361 6.11768 8.38303 6.62203 7.49292C6.82727 7.13513 7.18656 6.9032 7.68195 6.9253C7.88594 6.93474 8.26742 7.02931 8.30929 6.7176C8.3422 6.46998 8.31096 6.23088 8.31756 6.00357C8.34353 5.23131 8.99233 4.71183 9.72826 5.13696L9.73119 5.13114Z" fill="url(#paint45_linear_1433_348)"/>
<path fill-rule="evenodd" clip-rule="evenodd" d="M9.39397 4.87637C9.80861 4.65046 10.1651 4.38063 10.5508 4.10798C11.2812 3.5917 12.0998 2.84256 13.0529 2.84291C13.5483 2.84461 13.944 3.06164 13.9717 3.46977C13.9967 3.82543 13.9838 4.18095 13.9884 4.53654C13.8237 4.14252 13.1801 3.9975 12.5415 4.07692C11.9525 4.14776 11.351 4.46339 10.8169 4.69763C10.3353 4.90583 10.0929 5.03032 9.67621 5.01432C9.58019 4.96736 9.48708 4.92332 9.39106 4.87636L9.39397 4.87637Z" fill="url(#paint46_linear_1433_348)"/>
<path fill-rule="evenodd" clip-rule="evenodd" d="M7.68478 6.92233C7.18938 6.90023 6.8301 7.13217 6.62486 7.48995C6.1176 8.37715 6.81733 9.15772 6.51798 9.76001L6.67821 9.78096C6.84 9.34725 6.6403 8.93561 6.60128 8.41669C6.55112 7.74326 6.86821 7.06818 7.72204 7.10608C8.37188 7.13453 8.50067 6.97468 8.44751 6.32747C8.38033 5.51991 8.72634 4.90613 9.73109 5.13108C9.71363 5.12227 9.69909 5.11348 9.68163 5.10468C8.96594 4.72916 8.34629 5.24583 8.32039 6.0006C8.31377 6.23083 8.34502 6.46701 8.31211 6.71464C8.27023 7.02926 7.88876 6.93178 7.68478 6.92233Z" fill="url(#paint47_radial_1433_348)"/>
<path d="M9.66753 5.00559C10.2621 5.00763 10.5339 4.78997 11.0389 4.56145C11.6548 4.28085 12.186 4.05243 12.874 4.00232C13.1422 3.98284 13.6522 4.02248 13.8498 4.1922C13.9631 4.28876 14.0122 4.42592 13.9881 4.64442C13.9791 4.726 13.9466 4.85413 13.9199 4.97936C13.8665 5.24732 13.8569 5.50376 14.2273 5.44965C14.4809 5.41263 14.6619 5.34331 14.875 5.25369C15.4559 4.98754 15.7883 4.9333 16.4349 5.05501L16.4024 5.19189C15.8082 5.07618 15.5107 5.13345 14.962 5.36182C14.7402 5.45433 14.5358 5.56146 14.2588 5.60423C13.9993 5.64123 13.8625 5.58247 13.7901 5.45398C13.6076 5.12693 13.9827 4.51034 13.7619 4.32013C13.6108 4.19138 13.0892 4.14587 12.8822 4.16265C12.2205 4.20993 11.6805 4.42667 11.088 4.6986C10.869 4.79695 10.1157 5.21115 9.67043 5.00852L9.66753 5.00559Z" fill="url(#paint48_radial_1433_348)"/>
<path style="mix-blend-mode:multiply" opacity="0.5" fill-rule="evenodd" clip-rule="evenodd" d="M4.77068 5.95349L7.17448 7.00513C7.32333 6.94443 7.49538 6.91588 7.68479 6.92527C7.83633 6.93162 8.08097 6.98492 8.21536 6.8892L5.7941 5.82876C5.71531 5.85763 5.59872 5.86015 5.43849 5.84211C5.3336 5.83009 5.22581 5.81807 5.12666 5.8323C4.99254 5.84933 4.87289 5.89263 4.77067 5.9564L4.77068 5.95349Z" fill="url(#paint49_linear_1433_348)"/>
<path fill-rule="evenodd" clip-rule="evenodd" d="M9.0163 4.47582C9.09744 4.61017 9.23143 4.63394 9.26025 4.72731C9.29485 4.83818 9.2414 5.12653 9.08953 5.21928C9.25574 5.19362 9.68434 5.14554 9.78397 4.99141C9.86601 4.86345 9.88473 4.50503 9.6957 4.38197C9.57937 4.30871 9.52662 4.39305 9.37497 4.42167C9.24373 4.44746 9.10084 4.47028 9.0163 4.47582Z" fill="url(#paint50_linear_1433_348)"/>
<path fill-rule="evenodd" clip-rule="evenodd" d="M9.30707 4.67789C9.2898 4.61371 9.22579 4.58143 9.12964 4.57236C9.15284 4.60741 9.17603 4.64538 9.19922 4.68043C9.23997 4.69806 9.1804 5.07091 9.15115 5.09996C9.1453 5.10577 9.13946 5.10866 9.13071 5.11155C9.06938 5.14923 9.00513 5.1869 8.94088 5.22456C8.94962 5.22459 8.95254 5.2246 8.95837 5.22462C9.03706 5.22489 9.16236 5.23115 9.22378 5.16724C9.26765 5.12368 9.29414 5.04799 9.30609 4.96351C9.321 4.86446 9.32727 4.73625 9.3129 4.67791L9.30707 4.67789Z" fill="url(#paint51_radial_1433_348)"/>
<defs>
<radialGradient id="paint0_radial_1433_348" cx="0" cy="0" r="1" gradientUnits="userSpaceOnUse" gradientTransform="translate(1.54942 18.8983) rotate(0.196341) scale(10.4223)">
<stop stop-color="#008DFF"/>
<stop offset="1" stop-color="#005FEB"/>
</radialGradient>
<radialGradient id="paint1_radial_1433_348" cx="0" cy="0" r="1" gradientUnits="userSpaceOnUse" gradientTransform="translate(14.6884 9.46817) rotate(0.196341) scale(17.9389)">
<stop offset="0.67" stop-color="#001532"/>
<stop offset="0.7" stop-color="#011B39"/>
<stop offset="0.75" stop-color="#032D4D"/>
<stop offset="0.81" stop-color="#084A6D"/>
<stop offset="0.88" stop-color="#0F729B"/>
<stop offset="0.95" stop-color="#17A5D4"/>
<stop offset="1" stop-color="#1ECBFF"/>
</radialGradient>
<radialGradient id="paint2_radial_1433_348" cx="0" cy="0" r="1" gradientUnits="userSpaceOnUse" gradientTransform="translate(9.88654 20.1393) rotate(0.196341) scale(11.9349 11.9349)">
<stop stop-color="#0055D4"/>
<stop offset="1" stop-color="#0046A8"/>
</radialGradient>
<radialGradient id="paint3_radial_1433_348" cx="0" cy="0" r="1" gradientUnits="userSpaceOnUse" gradientTransform="translate(8.72594 12.6741) rotate(0.196341) scale(11.7193 11.7193)">
<stop stop-color="#3794E6"/>
<stop offset="1" stop-color="#0054C2"/>
</radialGradient>
<radialGradient id="paint4_radial_1433_348" cx="0" cy="0" r="1" gradientUnits="userSpaceOnUse" gradientTransform="translate(7.46804 14.028) rotate(0.196341) scale(8.82516)">
<stop offset="0.08" stop-color="#406DFF"/>
<stop offset="0.16" stop-color="#456FF7"/>
<stop offset="0.28" stop-color="#5478E3"/>
<stop offset="0.42" stop-color="#6C85C3"/>
<stop offset="0.58" stop-color="#8E9795"/>
<stop offset="0.76" stop-color="#BAAF5B"/>
<stop offset="0.95" stop-color="#EECC15"/>
<stop offset="1" stop-color="#FFD500"/>
</radialGradient>
<radialGradient id="paint5_radial_1433_348" cx="0" cy="0" r="1" gradientUnits="userSpaceOnUse" gradientTransform="translate(-1.06807 14.6749) rotate(0.196341) scale(12.4537 12.4537)">
<stop stop-color="#6DC9F7"/>
<stop offset="1" stop-color="#3794E6"/>
</radialGradient>
<radialGradient id="paint6_radial_1433_348" cx="0" cy="0" r="1" gradientUnits="userSpaceOnUse" gradientTransform="translate(-2.25456 28.4071) rotate(0.196341) scale(21.7423 21.7423)">
<stop offset="0.89" stop-color="#A4D9F5"/>
<stop offset="0.9" stop-color="#5BBAEE"/>
<stop offset="0.91" stop-color="#2FA8E9"/>
<stop offset="0.92" stop-color="#21A2E8"/>
</radialGradient>
<radialGradient id="paint7_radial_1433_348" cx="0" cy="0" r="1" gradientUnits="userSpaceOnUse" gradientTransform="translate(8.81827 8.68447) rotate(0.196341) scale(10.5943 10.5943)">
<stop stop-color="#008DFF"/>
<stop offset="1" stop-color="#005FEB"/>
</radialGradient>
<radialGradient id="paint8_radial_1433_348" cx="0" cy="0" r="1" gradientUnits="userSpaceOnUse" gradientTransform="translate(1.98702 10.264) rotate(0.196341) scale(5.9835 5.98351)">
<stop stop-color="#0098FF"/>
<stop offset="1" stop-color="#001532"/>
</radialGradient>
<radialGradient id="paint9_radial_1433_348" cx="0" cy="0" r="1" gradientUnits="userSpaceOnUse" gradientTransform="translate(1.32626 4.93695) rotate(0.196341) scale(10.7138)">
<stop stop-color="#6DC9F7"/>
<stop offset="1" stop-color="#3794E6"/>
</radialGradient>
<radialGradient id="paint10_radial_1433_348" cx="0" cy="0" r="1" gradientUnits="userSpaceOnUse" gradientTransform="translate(4.74875 8.06135) rotate(0.196341) scale(15.1992 15.1992)">
<stop stop-color="#00B8FF"/>
<stop offset="1" stop-color="#0030B0"/>
</radialGradient>
<radialGradient id="paint11_radial_1433_348" cx="0" cy="0" r="1" gradientUnits="userSpaceOnUse" gradientTransform="translate(8.22848 11.5445) rotate(0.196341) scale(10.638)">
<stop offset="0.08" stop-color="#406DFF"/>
<stop offset="0.16" stop-color="#456FF7"/>
<stop offset="0.28" stop-color="#5478E3"/>
<stop offset="0.42" stop-color="#6C85C3"/>
<stop offset="0.58" stop-color="#8E9795"/>
<stop offset="0.76" stop-color="#BAAF5B"/>
<stop offset="0.95" stop-color="#EECC15"/>
<stop offset="1" stop-color="#FFD500"/>
</radialGradient>
<radialGradient id="paint12_radial_1433_348" cx="0" cy="0" r="1" gradientUnits="userSpaceOnUse" gradientTransform="translate(2.29432 5.63103) rotate(0.196341) scale(14.966 14.966)">
<stop stop-color="#6DC9F7"/>
<stop offset="1" stop-color="#3794E6"/>
</radialGradient>
<radialGradient id="paint13_radial_1433_348" cx="0" cy="0" r="1" gradientUnits="userSpaceOnUse" gradientTransform="translate(18.854 29.6569) rotate(0.196341) scale(22.3369 22.3369)">
<stop offset="0.89" stop-color="#D3ECFA"/>
<stop offset="0.9" stop-color="#A4D9F5"/>
<stop offset="0.91" stop-color="#7CC8F1"/>
<stop offset="0.92" stop-color="#5BBAEE"/>
<stop offset="0.93" stop-color="#41AFEB"/>
<stop offset="0.94" stop-color="#2FA8E9"/>
<stop offset="0.95" stop-color="#24A3E8"/>
<stop offset="0.96" stop-color="#21A2E8"/>
</radialGradient>
<radialGradient id="paint14_radial_1433_348" cx="0" cy="0" r="1" gradientUnits="userSpaceOnUse" gradientTransform="translate(13.4869 18.1902) rotate(0.196341) scale(20.1335 20.1335)">
<stop offset="0.67" stop-color="#001532"/>
<stop offset="0.7" stop-color="#011B39"/>
<stop offset="0.75" stop-color="#032D4D"/>
<stop offset="0.81" stop-color="#084A6D"/>
<stop offset="0.88" stop-color="#0F729B"/>
<stop offset="0.95" stop-color="#17A5D4"/>
<stop offset="1" stop-color="#1ECBFF"/>
</radialGradient>
<radialGradient id="paint15_radial_1433_348" cx="0" cy="0" r="1" gradientUnits="userSpaceOnUse" gradientTransform="translate(8.67529 8.7189) rotate(0.196341) scale(9.73157)">
<stop stop-color="#005EEA"/>
<stop offset="1" stop-color="#0046A8"/>
</radialGradient>
<radialGradient id="paint16_radial_1433_348" cx="0" cy="0" r="1" gradientUnits="userSpaceOnUse" gradientTransform="translate(9.39924 6.69878) rotate(0.196341) scale(10.4864 10.4864)">
<stop stop-color="#3794E6"/>
<stop offset="1" stop-color="#0054C2"/>
</radialGradient>
<radialGradient id="paint17_radial_1433_348" cx="0" cy="0" r="1" gradientUnits="userSpaceOnUse" gradientTransform="translate(8.74531 8.72789) rotate(0.196341) scale(3.89962)">
<stop stop-color="#0076FF"/>
<stop offset="0.48" stop-color="#004395"/>
<stop offset="0.84" stop-color="#00224D"/>
<stop offset="1" stop-color="#001532"/>
</radialGradient>
<linearGradient id="paint18_linear_1433_348" x1="3.41537" y1="4.22713" x2="8.88589" y2="4.24588" gradientUnits="userSpaceOnUse">
<stop stop-color="#FFBD00"/>
<stop offset="1" stop-color="#D67200"/>
</linearGradient>
<radialGradient id="paint19_radial_1433_348" cx="0" cy="0" r="1" gradientUnits="userSpaceOnUse" gradientTransform="translate(4.28459 4.05234) rotate(0.196341) scale(3.30215)">
<stop stop-color="#FFC382"/>
<stop offset="1" stop-color="#9E2410"/>
</radialGradient>
<linearGradient id="paint20_linear_1433_348" x1="8.70825" y1="4.24526" x2="14.1759" y2="4.264" gradientUnits="userSpaceOnUse">
<stop stop-color="#A63A00"/>
<stop offset="1" stop-color="#FFBD00"/>
</linearGradient>
<radialGradient id="paint21_radial_1433_348" cx="0" cy="0" r="1" gradientUnits="userSpaceOnUse" gradientTransform="translate(12.7346 2.97374) rotate(0.196341) scale(3.80345)">
<stop stop-color="#E8814D"/>
<stop offset="1" stop-color="#9E3726"/>
</radialGradient>
<linearGradient id="paint22_linear_1433_348" x1="4.10338" y1="10.1489" x2="6.57722" y2="4.37202" gradientUnits="userSpaceOnUse">
<stop stop-color="#9E6551"/>
<stop offset="0.01" stop-color="#AF7041"/>
<stop offset="0.02" stop-color="#CD8524"/>
<stop offset="0.03" stop-color="#E39410"/>
<stop offset="0.04" stop-color="#F09C04"/>
<stop offset="0.05" stop-color="#F5A000"/>
<stop offset="0.36" stop-color="#F5AF00"/>
<stop offset="0.46" stop-color="#FFDD57"/>
<stop offset="0.58" stop-color="#FFB54D"/>
<stop offset="1" stop-color="#E08A00"/>
</linearGradient>
<radialGradient id="paint23_radial_1433_348" cx="0" cy="0" r="1" gradientUnits="userSpaceOnUse" gradientTransform="translate(5.22036 7.4305) rotate(0.196341) scale(3.1914)">
<stop stop-color="#E8814D"/>
<stop offset="1" stop-color="#9E3726"/>
</radialGradient>
<linearGradient id="paint24_linear_1433_348" x1="11.0597" y1="4.41946" x2="13.3831" y2="10.2303" gradientUnits="userSpaceOnUse">
<stop stop-color="#B05B00"/>
<stop offset="0.42" stop-color="#F5A000"/>
<stop offset="0.54" stop-color="#FFCC14"/>
<stop offset="0.64" stop-color="#F5A000"/>
<stop offset="0.95" stop-color="#BD6500"/>
<stop offset="0.96" stop-color="#B96003"/>
<stop offset="0.98" stop-color="#B0530D"/>
<stop offset="0.99" stop-color="#9C3723"/>
</linearGradient>
<radialGradient id="paint25_radial_1433_348" cx="0" cy="0" r="1" gradientUnits="userSpaceOnUse" gradientTransform="translate(12.5708 7.36834) rotate(0.196341) scale(3.93751)">
<stop stop-color="#FFDD57"/>
<stop offset="1" stop-color="#9E3726"/>
</radialGradient>
<radialGradient id="paint26_radial_1433_348" cx="0" cy="0" r="1" gradientUnits="userSpaceOnUse" gradientTransform="translate(12.7956 7.29035) rotate(0.196341) scale(2.20046)">
<stop stop-color="#FFF2BB"/>
<stop offset="1"/>
</radialGradient>
<radialGradient id="paint27_radial_1433_348" cx="0" cy="0" r="1" gradientUnits="userSpaceOnUse" gradientTransform="translate(4.64637 7.35864) rotate(0.196341) scale(3.44787)">
<stop stop-color="#FFF2BB"/>
<stop offset="1"/>
</radialGradient>
<radialGradient id="paint28_radial_1433_348" cx="0" cy="0" r="1" gradientUnits="userSpaceOnUse" gradientTransform="translate(2.88396 11.3251) rotate(0.196341) scale(6.63053)">
<stop stop-color="#E8814D"/>
<stop offset="1" stop-color="#9E3726"/>
</radialGradient>
<radialGradient id="paint29_radial_1433_348" cx="0" cy="0" r="1" gradientUnits="userSpaceOnUse" gradientTransform="translate(2.29872 11.1687) rotate(0.196341) scale(7.49031)">
<stop stop-color="#FFC500"/>
<stop offset="1" stop-color="#F59714"/>
</radialGradient>
<radialGradient id="paint30_radial_1433_348" cx="0" cy="0" r="1" gradientUnits="userSpaceOnUse" gradientTransform="translate(3.98701 10.9325) rotate(0.196341) scale(2.45111 2.45111)">
<stop stop-color="#FFF2BB"/>
<stop offset="1"/>
</radialGradient>
<radialGradient id="paint31_radial_1433_348" cx="0" cy="0" r="1" gradientUnits="userSpaceOnUse" gradientTransform="translate(6.64748 13.6463) rotate(0.196341) scale(8.16065)">
<stop stop-color="#E8814D"/>
<stop offset="1" stop-color="#9E3726"/>
</radialGradient>
<radialGradient id="paint32_radial_1433_348" cx="0" cy="0" r="1" gradientUnits="userSpaceOnUse" gradientTransform="translate(7.12408 13.1845) rotate(0.196341) scale(9.84524 9.84524)">
<stop stop-color="#FFBD00"/>
<stop offset="1" stop-color="#9C3600"/>
</radialGradient>
<linearGradient id="paint33_linear_1433_348" x1="11.088" y1="5.48553" x2="12.2416" y2="0.561" gradientUnits="userSpaceOnUse">
<stop stop-color="#8F3508"/>
<stop offset="0.21" stop-color="#BD500B"/>
<stop offset="0.7" stop-color="#F7A100"/>
<stop offset="1" stop-color="#964324"/>
</linearGradient>
<linearGradient id="paint34_linear_1433_348" x1="9.71312" y1="5.23888" x2="11.7417" y2="0.124997" gradientUnits="userSpaceOnUse">
<stop offset="0.3" stop-color="#C25D0A"/>
<stop offset="0.86" stop-color="#FFF14F"/>
<stop offset="0.94" stop-color="#F5B90A"/>
<stop offset="1" stop-color="#E68A00"/>
</linearGradient>
<radialGradient id="paint35_radial_1433_348" cx="0" cy="0" r="1" gradientUnits="userSpaceOnUse" gradientTransform="translate(10.9861 1.19793) rotate(0.196341) scale(6.4848 6.4848)">
<stop stop-color="#F59F41"/>
<stop offset="1" stop-color="#A64416"/>
</radialGradient>
<linearGradient id="paint36_linear_1433_348" x1="6.94704" y1="6.165" x2="7.74589" y2="4.38696" gradientUnits="userSpaceOnUse">
<stop offset="0.05" stop-color="#B7402C"/>
<stop offset="1" stop-color="#E68A00"/>
</linearGradient>
<linearGradient id="paint37_linear_1433_348" x1="6.74876" y1="4.47383" x2="7.28411" y2="2.19067" gradientUnits="userSpaceOnUse">
<stop stop-color="#D46C2C"/>
<stop offset="1" stop-color="#964324"/>
</linearGradient>
<linearGradient id="paint38_linear_1433_348" x1="4.5456" y1="5.26779" x2="5.9156" y2="1.81876" gradientUnits="userSpaceOnUse">
<stop stop-color="#F28B1D"/>
<stop offset="0.41" stop-color="#FFDC2B"/>
<stop offset="0.55" stop-color="#FFF79D"/>
<stop offset="0.78" stop-color="#F5B90A"/>
<stop offset="1" stop-color="#E68A00"/>
</linearGradient>
<radialGradient id="paint39_radial_1433_348" cx="0" cy="0" r="1" gradientUnits="userSpaceOnUse" gradientTransform="translate(6.67612 2.71903) rotate(0.196341) scale(5.6804 5.68039)">
<stop stop-color="#F59F41"/>
<stop offset="1" stop-color="#A64416"/>
</radialGradient>
<radialGradient id="paint40_radial_1433_348" cx="0" cy="0" r="1" gradientUnits="userSpaceOnUse" gradientTransform="translate(5.97502 3.20627) rotate(0.196341) scale(2.97864 2.97864)">
<stop stop-color="#FFF2BB"/>
<stop offset="1"/>
</radialGradient>
<radialGradient id="paint41_radial_1433_348" cx="0" cy="0" r="1" gradientUnits="userSpaceOnUse" gradientTransform="translate(11.4256 1.33926) rotate(0.196341) scale(3.29632)">
<stop stop-color="#FFF2BB"/>
<stop offset="1"/>
</radialGradient>
<radialGradient id="paint42_radial_1433_348" cx="0" cy="0" r="1" gradientUnits="userSpaceOnUse" gradientTransform="translate(13.3352 3.75907) rotate(0.196341) scale(1.99644)">
<stop stop-color="#FFF2BB"/>
<stop offset="1"/>
</radialGradient>
<linearGradient id="paint43_linear_1433_348" x1="13.7921" y1="4.85065" x2="16.3731" y2="4.3582" gradientUnits="userSpaceOnUse">
<stop stop-color="#B85400"/>
<stop offset="0.36" stop-color="#F4A633"/>
<stop offset="0.68" stop-color="#FFCF21"/>
<stop offset="0.75" stop-color="#FCC921"/>
<stop offset="0.83" stop-color="#F5BA22"/>
<stop offset="0.92" stop-color="#EAA024"/>
<stop offset="0.98" stop-color="#E08A26"/>
</linearGradient>
<linearGradient id="paint44_linear_1433_348" x1="13.8007" y1="4.89149" x2="14.7398" y2="4.71109" gradientUnits="userSpaceOnUse">
<stop stop-color="#EB7900"/>
<stop offset="0.13" stop-color="#EB7A03"/>
<stop offset="0.26" stop-color="#EC800E"/>
<stop offset="0.38" stop-color="#ED8A21"/>
<stop offset="0.49" stop-color="#EF983B"/>
<stop offset="0.61" stop-color="#F2AA5D"/>
<stop offset="0.72" stop-color="#F5C087"/>
<stop offset="0.84" stop-color="#F9DAB9"/>
<stop offset="0.95" stop-color="#FDF7F0"/>
<stop offset="0.97" stop-color="white"/>
</linearGradient>
<linearGradient id="paint45_linear_1433_348" x1="5.36481" y1="9.50255" x2="7.68485" y2="4.378" gradientUnits="userSpaceOnUse">
<stop stop-color="#FFC85E"/>
<stop offset="0.16" stop-color="#FFBF21"/>
<stop offset="0.33" stop-color="#FFDD57"/>
<stop offset="0.48" stop-color="#FFB54D"/>
<stop offset="0.61" stop-color="#E07F2D"/>
<stop offset="0.77" stop-color="#F4A633"/>
<stop offset="0.88" stop-color="#FFD500"/>
<stop offset="0.94" stop-color="#E79311"/>
<stop offset="1" stop-color="#E08A00"/>
</linearGradient>
<linearGradient id="paint46_linear_1433_348" x1="9.39725" y1="3.92042" x2="13.9934" y2="3.93617" gradientUnits="userSpaceOnUse">
<stop stop-color="#B85400"/>
<stop offset="0.48" stop-color="#FFB54D"/>
<stop offset="0.69" stop-color="#F4A633"/>
<stop offset="0.84" stop-color="#FFD500"/>
<stop offset="0.98" stop-color="#BD6500"/>
</linearGradient>
<radialGradient id="paint47_radial_1433_348" cx="0" cy="0" r="1" gradientUnits="userSpaceOnUse" gradientTransform="translate(5.47597 6.80401) rotate(0.196341) scale(4.61951 4.61951)">
<stop stop-color="#F59F41"/>
<stop offset="1" stop-color="#A64416"/>
</radialGradient>
<radialGradient id="paint48_radial_1433_348" cx="0" cy="0" r="1" gradientUnits="userSpaceOnUse" gradientTransform="translate(15.5041 3.66742) rotate(0.196341) scale(5.75909 5.75909)">
<stop stop-color="#F59F41"/>
<stop offset="1" stop-color="#A64416"/>
</radialGradient>
<linearGradient id="paint49_linear_1433_348" x1="6.38875" y1="6.65561" x2="6.59142" y2="6.19872" gradientUnits="userSpaceOnUse">
<stop offset="0.03" stop-color="white"/>
<stop offset="0.55" stop-color="#EB7900"/>
<stop offset="0.61" stop-color="#EB7A03"/>
<stop offset="0.66" stop-color="#EC800E"/>
<stop offset="0.71" stop-color="#ED8A21"/>
<stop offset="0.76" stop-color="#EF983B"/>
<stop offset="0.81" stop-color="#F2AA5D"/>
<stop offset="0.86" stop-color="#F5C087"/>
<stop offset="0.91" stop-color="#F9DAB9"/>
<stop offset="0.96" stop-color="#FDF7F0"/>
<stop offset="0.97" stop-color="white"/>
</linearGradient>
<linearGradient id="paint50_linear_1433_348" x1="9.56451" y1="5.24422" x2="9.31086" y2="4.41854" gradientUnits="userSpaceOnUse">
<stop stop-color="#8F3508"/>
<stop offset="0.21" stop-color="#BD500B"/>
<stop offset="0.7" stop-color="#F7A100"/>
<stop offset="1" stop-color="#964324"/>
</linearGradient>
<radialGradient id="paint51_radial_1433_348" cx="0" cy="0" r="1" gradientUnits="userSpaceOnUse" gradientTransform="translate(8.63179 4.41618) rotate(0.196341) scale(0.970534)">
<stop stop-color="#FFC382"/>
<stop offset="1" stop-color="#9E3726"/>
</radialGradient>
</defs>
</svg>
