<svg width="155" height="20" viewBox="0 0 155 20" fill="none" xmlns="http://www.w3.org/2000/svg">
<path d="M8.66342 0C7.82205 0 7.07065 0.52657 6.7835 1.31742L0.974027 17.3174C0.500477 18.6216 1.46642 20 2.85394 20H11.3366C12.1779 20 12.9293 19.4734 13.2165 18.6826L19.026 2.68259C19.4995 1.37837 18.5336 0 17.1461 0H8.66342Z" fill="#F02D3A"/>
<path d="M23.6634 0C22.8221 0 22.0707 0.52657 21.7835 1.31742L15.974 17.3174C15.5005 18.6216 16.4664 20 17.8539 20H26.3366C27.1779 20 27.9293 19.4734 28.2165 18.6826L34.026 2.68259C34.4995 1.37838 33.5336 0 32.1461 0H23.6634Z" fill="#F02D3A"/>
<path d="M38.6634 0C37.8221 0 37.0707 0.52657 36.7835 1.31742L30.974 17.3174C30.5005 18.6216 31.4664 20 32.8539 20H41.3366C42.1779 20 42.9293 19.4734 43.2165 18.6826L49.026 2.68259C49.4995 1.37838 48.5336 0 47.1461 0H38.6634Z" fill="#F02D3A"/>
<path d="M53.6634 0C52.822 0 52.0706 0.52657 51.7835 1.31742L45.974 17.3174C45.5005 18.6216 46.4664 20 47.8539 20H56.3366C57.1779 20 57.9293 19.4734 58.2165 18.6826L64.026 2.68258C64.4995 1.37837 63.5336 0 62.1461 0H53.6634Z" fill="#F02D3A"/>
<path d="M68.6634 0C67.8221 0 67.0707 0.52657 66.7835 1.31742L60.974 17.3174C60.5005 18.6216 61.4664 20 62.8539 20H71.3366C72.1779 20 72.9293 19.4734 73.2165 18.6826L79.026 2.68259C79.4995 1.37838 78.5336 0 77.1461 0H68.6634Z" fill="#F02D3A"/>
<path d="M83.6634 0C82.8221 0 82.0707 0.52657 81.7835 1.31742L75.974 17.3174C75.5005 18.6216 76.4664 20 77.8539 20H86.3366C87.1779 20 87.9293 19.4734 88.2165 18.6826L94.026 2.68259C94.4995 1.37838 93.5336 0 92.1461 0H83.6634Z" fill="#F02D3A"/>
<path d="M98.6634 0C97.8221 0 97.0707 0.52657 96.7835 1.31742L90.974 17.3174C90.5005 18.6216 91.4664 20 92.8539 20H101.337C102.178 20 102.929 19.4734 103.216 18.6826L109.026 2.68259C109.5 1.37838 108.534 0 107.146 0H98.6634Z" fill="#F02D3A"/>
<path d="M113.663 0C112.822 0 112.071 0.52657 111.784 1.31742L105.974 17.3174C105.5 18.6216 106.466 20 107.854 20H116.337C117.178 20 117.929 19.4734 118.216 18.6826L124.026 2.68258C124.5 1.37837 123.534 0 122.146 0H113.663Z" fill="#F02D3A"/>
<path d="M128.654 0C127.812 0 127.061 0.526968 126.774 1.31825L120.972 17.3182C120.5 18.6223 121.465 20 122.853 20H131.337C132.178 20 132.929 19.4734 133.217 18.6826L139.026 2.68259C139.5 1.37837 138.534 0 137.146 0H128.654Z" fill="#F02D3A"/>
<path d="M143.663 0C142.822 0 142.071 0.52657 141.783 1.31742L135.974 17.3174C135.5 18.6216 136.466 20 137.854 20H146.337C147.178 20 147.929 19.4734 148.217 18.6826L154.026 2.68259C154.5 1.37837 153.534 0 152.146 0H143.663Z" fill="#F02D3A"/>
</svg>
