<svg width="14" height="14" viewBox="0 0 14 14" fill="none" xmlns="http://www.w3.org/2000/svg">
<path d="M1.30156 8.10021L6.24258 12.82C6.44766 13.0159 6.71836 13.125 7 13.125C7.28164 13.125 7.55234 13.0159 7.75742 12.82L12.6984 8.10021C13.5297 7.30844 14 6.19773 14 5.03665V4.87438C14 2.91874 12.6191 1.25127 10.7352 0.929531C9.48828 0.716901 8.21953 1.13377 7.32812 2.04584L7 2.38157L6.67188 2.04584C5.78047 1.13377 4.51172 0.716901 3.26484 0.929531C1.38086 1.25127 0 2.91874 0 4.87438V5.03665C0 6.19773 0.470312 7.30844 1.30156 8.10021Z" fill="#FB3640"/>
</svg>
