<svg width="22" height="19" viewBox="0 0 22 19" fill="none" xmlns="http://www.w3.org/2000/svg">
<g clip-path="url(#clip0_1444_266)">
<path fill-rule="evenodd" clip-rule="evenodd" d="M0.0960693 9.90028L0.156137 12.342L3.71217 16.1537L16.3805 11.7522L16.4106 10.6423L15.4495 10.877L16.4166 10.433L16.4286 9.86223L13.8697 10.617L16.4346 9.64025L16.4466 9.33582L12.6323 5.75879L0.0960693 9.90028Z" fill="#006633"/>
<path fill-rule="evenodd" clip-rule="evenodd" d="M15.5576 9.8432L16.4106 10.6423L10.0133 12.8114L15.5576 9.8432Z" fill="url(#paint0_linear_1444_266)"/>
<path fill-rule="evenodd" clip-rule="evenodd" d="M15.5817 9.06305L16.4286 9.86217L10.0314 12.0312L15.5817 9.06305Z" fill="url(#paint1_linear_1444_266)"/>
<path fill-rule="evenodd" clip-rule="evenodd" d="M0.0960693 9.90027L0.156137 12.342L3.71217 16.1537L3.6521 13.6802L0.0960693 9.90027Z" fill="url(#paint2_linear_1444_266)"/>
<path fill-rule="evenodd" clip-rule="evenodd" d="M3.6521 13.6803L16.4466 9.33582L16.4346 9.64024L12.0196 11.2385L16.4286 9.86222L16.4166 10.433L15.4495 10.877L16.4106 10.6423L16.3805 11.7522L3.71217 16.1537L3.6521 13.6803Z" fill="url(#paint3_linear_1444_266)"/>
<path fill-rule="evenodd" clip-rule="evenodd" d="M0.0960947 9.90028C2.18647 9.20897 4.27083 8.51767 6.3612 7.83271C8.45158 7.1414 10.5419 6.45009 12.6323 5.75879C13.269 6.35496 13.9058 6.95113 14.5365 7.5473C15.1732 8.14347 15.8039 8.73965 16.4406 9.33582C14.3082 10.0588 12.1698 10.7819 10.0434 11.5049C7.91096 12.2279 5.77854 12.9509 3.64612 13.6739C3.05145 13.046 2.46278 12.4118 1.86811 11.7839C1.27944 11.156 0.684763 10.5218 0.0900879 9.89394H0.0960947V9.90028Z" fill="url(#paint4_linear_1444_266)"/>
<path opacity="0.5" fill-rule="evenodd" clip-rule="evenodd" d="M1.67588 9.77343C3.33377 9.22166 4.99765 8.67622 6.65553 8.12445C8.31942 7.57267 9.9773 7.02724 11.6352 6.47546C11.8995 6.72915 12.4761 6.8116 12.9146 6.66573C13.2871 7.01456 13.6595 7.36972 14.0319 7.71854C14.4043 8.06737 14.7767 8.42253 15.1492 8.77136C14.7047 8.92357 14.5545 9.24703 14.8188 9.50072C13.1309 10.0715 11.437 10.6487 9.74904 11.2195C8.06113 11.7903 6.37321 12.3611 4.6853 12.9319C4.43301 12.6718 3.86837 12.5767 3.42387 12.7289C3.07547 12.3611 2.72708 11.9932 2.37868 11.6254C2.03029 11.2575 1.68189 10.8897 1.3335 10.5218C1.77199 10.3759 1.92817 10.0398 1.67588 9.77978V9.77343ZM4.67329 9.25337C5.18387 9.08213 5.77854 9.0631 6.32516 9.17092C6.87178 9.27874 7.38236 9.50072 7.70673 9.83051C8.0371 10.1603 8.1212 10.5282 7.99505 10.858C7.86891 11.1878 7.53854 11.4795 7.02195 11.6571C6.50536 11.8347 5.90468 11.8537 5.35806 11.7522C4.81144 11.6444 4.31288 11.4161 3.98851 11.0799C3.67015 10.7438 3.58004 10.3759 3.70619 10.0462C3.83233 9.71635 4.16271 9.42461 4.67329 9.25971V9.25337ZM8.39751 8.93626C9.07027 8.71428 9.73703 8.4923 10.4038 8.26398C11.0705 8.042 11.7433 7.82002 12.4101 7.5917C12.4761 7.57267 12.5602 7.58536 12.5963 7.61707C12.6804 7.69318 12.7645 7.77563 12.8426 7.85173C12.8786 7.88979 12.8606 7.93418 12.7945 7.95955C12.1217 8.18153 11.449 8.40985 10.7822 8.63183C10.1095 8.85381 9.4427 9.08213 8.76993 9.30411C8.70386 9.32313 8.61976 9.31045 8.58372 9.2724C8.50563 9.18995 8.42154 9.11384 8.34345 9.03139C8.30741 8.99334 8.32543 8.94894 8.3915 8.92357L8.39751 8.93626ZM9.10632 9.69098C10.0194 9.38656 10.9324 9.07579 11.8454 8.77136C11.8875 8.75867 11.9475 8.76502 11.9716 8.79039C12.0256 8.84112 12.0797 8.8982 12.1338 8.94894C12.1578 8.97431 12.1458 9.00602 12.1037 9.01871C11.1907 9.32313 10.2716 9.6339 9.36461 9.93833C9.31655 9.95102 9.26249 9.93833 9.23847 9.91931C9.1844 9.86223 9.13034 9.81149 9.07628 9.75441C9.05225 9.72904 9.06427 9.69733 9.10632 9.68464V9.69098Z" fill="url(#paint5_linear_1444_266)"/>
<path opacity="0.5" fill-rule="evenodd" clip-rule="evenodd" d="M1.2854 11.5682L3.6641 14.213L9.02819 12.2659L3.65809 14.01L1.2854 11.5682Z" fill="#1F3F37"/>
<path opacity="0.5" fill-rule="evenodd" clip-rule="evenodd" d="M2.60095 13.7627L3.68218 14.8218L7.34634 13.6612L3.68218 15.0058L2.60095 13.7627Z" fill="#1F3F37"/>
<path opacity="0.5" fill-rule="evenodd" clip-rule="evenodd" d="M3.24963 14.8599L3.69414 15.4244L11.8033 12.5323L3.68813 15.2468L3.24963 14.8599Z" fill="#1F3F37"/>
<path opacity="0.5" fill-rule="evenodd" clip-rule="evenodd" d="M5.65247 12.7733L6.29519 13.5344L9.71307 11.5175L5.65247 12.7733Z" fill="#1F3F37"/>
<path fill-rule="evenodd" clip-rule="evenodd" d="M14.957 6.03784L17.3717 7.55998L11.7854 10.2301L14.957 6.03784Z" fill="url(#paint6_linear_1444_266)"/>
<path fill-rule="evenodd" clip-rule="evenodd" d="M14.9749 5.40363L17.3897 6.93211L11.8033 9.6022L14.9749 5.40363Z" fill="url(#paint7_linear_1444_266)"/>
<path fill-rule="evenodd" clip-rule="evenodd" d="M15.005 4.50299L17.4137 6.02513L11.8334 8.69522L15.005 4.50299Z" fill="url(#paint8_linear_1444_266)"/>
<path fill-rule="evenodd" clip-rule="evenodd" d="M1.48364 7.49022L1.55572 9.95736L6.27107 13.2934L17.3597 7.77563L17.3717 7.55999L14.6025 8.84112L17.3717 7.40143L17.3897 6.93211L15.4195 7.81368L17.3957 6.75452L17.4137 6.02516L13.5874 7.77563L17.4197 5.8349L17.4377 5.30215L12.6143 2.25153L1.48364 7.49022Z" fill="#427F32"/>
<path fill-rule="evenodd" clip-rule="evenodd" d="M1.48364 7.49017L6.27708 10.6423L6.27107 13.2933L1.55572 9.95731L1.48364 7.49017Z" fill="url(#paint9_linear_1444_266)"/>
<path fill-rule="evenodd" clip-rule="evenodd" d="M6.27713 10.6423L17.4378 5.30212L17.4198 5.83487L13.5874 7.7756L17.4138 6.02514L17.3957 6.7545L15.4195 7.81366L17.3897 6.93208L17.3717 7.40141L14.6026 8.8411L17.3717 7.55997L17.3597 7.7756L6.27112 13.2934L6.27713 10.6423Z" fill="url(#paint10_linear_1444_266)"/>
<path fill-rule="evenodd" clip-rule="evenodd" d="M1.48367 7.49023C3.33377 6.62134 5.18987 5.74611 7.04598 4.87088C8.90209 3.99564 10.7522 3.12676 12.6083 2.25153C13.4132 2.75891 14.2181 3.27263 15.023 3.78001C15.8279 4.28739 16.6329 4.79477 17.4378 5.30215C15.5757 6.19006 13.7135 7.08432 11.8514 7.97224C9.99533 8.86015 8.13321 9.75441 6.2711 10.6423C5.47219 10.1159 4.67329 9.59585 3.87438 9.06945C3.07547 8.54304 2.27657 8.01663 1.47766 7.49657L1.48367 7.49023Z" fill="url(#paint11_linear_1444_266)"/>
<path fill-rule="evenodd" clip-rule="evenodd" d="M3.01542 7.20477C4.48709 6.51346 5.95876 5.81581 7.43043 5.12451C8.9021 4.4332 10.3738 3.73556 11.8454 3.04425C12.1818 3.25989 12.7765 3.27891 13.1609 3.10133C13.6355 3.39942 14.104 3.6975 14.5785 3.99559C15.0471 4.29367 15.5216 4.59176 15.9961 4.88985C15.6057 5.07377 15.5637 5.40357 15.9 5.61286C14.4224 6.31685 12.9507 7.02084 11.473 7.72483C10.0013 8.42882 8.52367 9.13281 7.04599 9.8368C6.70961 9.61482 6.12094 9.58945 5.7305 9.77972C5.26197 9.46895 4.79344 9.16452 4.32491 8.86009C3.85637 8.55567 3.38784 8.2449 2.91931 7.94047C3.30975 7.75654 3.3518 7.42675 3.01542 7.21111V7.20477ZM5.82661 6.3993C6.27712 6.18366 6.85978 6.10756 7.43644 6.14561C8.01309 6.18366 8.58374 6.34856 9.01623 6.62762C9.44271 6.90668 9.65295 7.24282 9.63493 7.56628C9.62292 7.88973 9.38265 8.19416 8.93213 8.40979C8.48162 8.62543 7.89896 8.70788 7.32231 8.66348C6.74565 8.61909 6.17501 8.45419 5.74852 8.17513C5.32204 7.89607 5.11781 7.55359 5.12982 7.23014C5.14183 6.90668 5.3761 6.60225 5.83262 6.38662L5.82661 6.3993ZM9.41268 5.71434C10.0013 5.43528 10.596 5.15622 11.1847 4.87716C11.7734 4.5981 12.368 4.31904 12.9567 4.03998C13.0168 4.01461 13.1009 4.01461 13.1489 4.04633C13.251 4.10975 13.3592 4.17951 13.4613 4.24294C13.5093 4.27465 13.5033 4.31904 13.4493 4.35075C12.8546 4.62981 12.2659 4.90887 11.6772 5.19427C11.0886 5.47333 10.4939 5.75239 9.90524 6.03779C9.84517 6.06316 9.76107 6.06316 9.71302 6.03145C9.6109 5.96169 9.50278 5.89826 9.40066 5.8285C9.35261 5.79679 9.35862 5.75239 9.41268 5.72068V5.71434ZM10.3497 6.35491C11.1486 5.97437 11.9536 5.59384 12.7525 5.2133C12.7885 5.19427 12.8486 5.20062 12.8846 5.2133C12.9567 5.2577 13.0288 5.30209 13.1009 5.34649C13.1309 5.36551 13.1309 5.40357 13.0889 5.41625C12.2839 5.79679 11.485 6.17732 10.6801 6.55786C10.6441 6.57688 10.584 6.57054 10.548 6.55786C10.4759 6.51346 10.4038 6.46907 10.3317 6.41833C10.3017 6.3993 10.3017 6.36759 10.3437 6.34856L10.3497 6.35491Z" fill="#9BEF66"/>
<path opacity="0.5" fill-rule="evenodd" clip-rule="evenodd" d="M4.26489 9.64024L6.27718 10.8897L14.1521 7.18579L6.27718 11.0482L4.26489 9.64024Z" fill="#1F3F37"/>
<path opacity="0.5" fill-rule="evenodd" clip-rule="evenodd" d="M2.91931 9.05676L6.27712 11.2195L8.04313 10.4521L6.27712 11.378L2.91931 9.05676Z" fill="#1F3F37"/>
<path opacity="0.5" fill-rule="evenodd" clip-rule="evenodd" d="M5.26794 11.2828L6.27709 11.898L10.3197 9.99536L6.27108 12.0439L5.26794 11.2828Z" fill="#1F3F37"/>
<path opacity="0.5" fill-rule="evenodd" clip-rule="evenodd" d="M4.06055 11.4097L6.27105 12.9002L9.08224 11.5746L6.27105 13.027L4.06055 11.4097Z" fill="#1F3F37"/>
<path style="mix-blend-mode:multiply" fill-rule="evenodd" clip-rule="evenodd" d="M1.51368 8.54299L2.18043 10.4013L3.66412 11.4541L5.27394 9.98268L1.48364 7.49017L1.51368 8.54299Z" fill="url(#paint12_radial_1444_266)"/>
<path style="mix-blend-mode:multiply" fill-rule="evenodd" clip-rule="evenodd" d="M3.6641 11.4541L2.18042 10.4013L2.18643 11.4985L3.6641 11.4541Z" fill="url(#paint13_radial_1444_266)"/>
<path fill-rule="evenodd" clip-rule="evenodd" d="M6.24109 5.25141L10.9685 8.39716L12.8606 7.49656L8.06716 4.3952L6.24109 5.25141Z" fill="#E6E6E6"/>
<path fill-rule="evenodd" clip-rule="evenodd" d="M11.443 8.16884C9.8632 7.12236 8.2774 6.08224 6.69761 5.03576L6.24109 5.2514L10.9685 8.39716L11.443 8.16884ZM7.61064 4.60449C9.20245 5.64462 10.7943 6.67841 12.3861 7.71854L12.8606 7.49022L8.06716 4.38885L7.61064 4.60449Z" fill="#FF9933"/>
<path fill-rule="evenodd" clip-rule="evenodd" d="M16.4406 4.35711L15.5697 3.77997L13.8457 5.47335L16.4406 4.35711Z" fill="url(#paint14_linear_1444_266)"/>
<path fill-rule="evenodd" clip-rule="evenodd" d="M16.4106 5.34649L15.5396 4.76935L13.8157 6.46273L16.4106 5.34649Z" fill="url(#paint15_linear_1444_266)"/>
<path opacity="0.5" fill-rule="evenodd" clip-rule="evenodd" d="M16.3926 5.96173L15.5216 5.38458L13.2631 7.26189L16.3926 5.96173Z" fill="#1F3F37"/>
<path fill-rule="evenodd" clip-rule="evenodd" d="M1.98227 8.65085L0.0540771 7.03992L1.02117 6.89404L1.98227 8.65085Z" fill="url(#paint16_linear_1444_266)"/>
<path fill-rule="evenodd" clip-rule="evenodd" d="M1.96422 7.54726L0.0300293 5.92999L1.00313 5.78412L1.96422 7.54726Z" fill="url(#paint17_linear_1444_266)"/>
<path fill-rule="evenodd" clip-rule="evenodd" d="M16.4527 3.88778L16.4407 4.24294L15.2573 4.75666L16.4407 4.3571L16.4166 5.21331L14.4584 6.08219L16.4106 5.34649L16.3986 5.80948L13.4493 7.12232L16.3986 5.96169L16.3866 6.41199L4.25282 11.3463L0.0660702 7.78192L0.0540566 7.03987L1.45364 8.11806L0.0480497 6.84326L0.0300293 5.93632L1.22539 6.81789L0.0300293 5.72703V5.26404L15.9301 3.55164L16.4587 3.88778H16.4527Z" fill="url(#paint18_linear_1444_266)"/>
<path fill-rule="evenodd" clip-rule="evenodd" d="M16.4527 3.88782C12.4281 5.66365 8.34946 7.25555 4.22278 8.70159L4.24681 11.3463L16.3806 6.41203L16.3926 5.96173L13.4432 7.12236L16.3926 5.80952L16.4046 5.34654L14.4524 6.08224L16.4106 5.21335L16.4346 4.35714L15.2513 4.75671L16.4286 4.24298L16.4406 3.89416L16.4527 3.88782Z" fill="url(#paint19_linear_1444_266)"/>
<path fill-rule="evenodd" clip-rule="evenodd" d="M4.22284 8.70154L0.0180664 5.26404L0.03008 5.72702L1.22544 6.81155L0.03008 5.92997L0.0481005 6.84326L1.44769 8.11805L0.0541073 7.03987L0.0661209 7.78191L4.24686 11.3463L4.22284 8.70154Z" fill="url(#paint20_linear_1444_266)"/>
<path fill-rule="evenodd" clip-rule="evenodd" d="M15.9421 3.27893L16.4467 3.61506C12.6023 5.60019 8.52367 7.20478 4.25283 8.52397L0 4.96596L0.967097 4.82009L15.9361 3.27258L15.9421 3.27893Z" fill="url(#paint21_linear_1444_266)"/>
<path fill-rule="evenodd" clip-rule="evenodd" d="M16.4046 3.2726C12.6503 5.58118 8.63779 7.27456 4.28886 8.16248L0.0600586 4.59813C4.22879 3.92585 8.2053 2.372 12.0136 0L16.4046 3.2726Z" fill="url(#paint22_linear_1444_266)"/>
<path fill-rule="evenodd" clip-rule="evenodd" d="M11.3228 0.887939C9.94123 1.65535 8.4996 2.41008 6.96185 3.03796C5.37605 3.67853 3.67012 4.16688 1.87408 4.61084C2.16841 4.85185 2.00623 5.13725 1.51367 5.23238C1.92814 5.5812 2.33661 5.92369 2.75108 6.27251C3.16555 6.61499 3.58002 6.96382 3.98848 7.3063C4.48104 7.19848 5.11776 7.3063 5.4121 7.5473C7.20213 7.05895 8.92008 6.5262 10.5299 5.86026C12.0977 5.20701 13.5633 4.43326 14.987 3.65316C14.6806 3.42484 14.7347 3.06333 15.0891 2.84769C14.6626 2.53058 14.2301 2.20713 13.8036 1.88367C13.3771 1.56022 12.9446 1.24311 12.5182 0.919651C12.1638 1.13529 11.6231 1.11626 11.3168 0.887939H11.3228ZM9.49673 2.40374C9.04622 2.62572 8.78793 2.93649 8.73386 3.26628C8.6798 3.59608 8.82997 3.95125 9.2084 4.24933C9.58683 4.54742 10.1274 4.73769 10.6861 4.79477C11.2387 4.85185 11.8214 4.77574 12.2779 4.55376C12.7344 4.33178 12.9807 3.99564 13.0167 3.65316C13.0528 3.30434 12.8726 2.94283 12.4821 2.64474C12.0917 2.353 11.5691 2.18176 11.0345 2.13736C10.4939 2.09297 9.94124 2.18176 9.49673 2.40374ZM7.50847 4.25567C6.85974 4.49668 6.19899 4.73769 5.52022 4.94698C4.82943 5.16262 4.12063 5.34654 3.39981 5.53047C3.33374 5.54949 3.30971 5.58755 3.35176 5.6256C3.44186 5.70171 3.53196 5.77781 3.62206 5.85392C3.66411 5.89197 3.76022 5.90466 3.8263 5.88563C4.55312 5.70171 5.26192 5.51144 5.9467 5.2958C6.62547 5.08017 7.28622 4.83916 7.93496 4.59816C8.00103 4.57279 8.01305 4.52839 7.971 4.49034C7.8809 4.41423 7.7908 4.34447 7.69469 4.26836C7.65264 4.23665 7.56854 4.22396 7.50247 4.24933L7.50847 4.25567ZM8.39748 4.92161C7.51448 5.25141 6.60145 5.56218 5.66438 5.84758C5.61633 5.86026 5.60431 5.89197 5.63435 5.91734C5.69442 5.96808 5.76049 6.01882 5.82056 6.06956C5.85059 6.09493 5.91066 6.10127 5.95872 6.08858C6.89578 5.79684 7.80881 5.48607 8.69782 5.15627C8.73987 5.13725 8.75189 5.10554 8.72185 5.08651C8.66178 5.03577 8.59571 4.98503 8.53564 4.9343C8.50561 4.90893 8.44554 4.90893 8.40349 4.92161H8.39748Z" fill="url(#paint23_linear_1444_266)"/>
<path fill-rule="evenodd" clip-rule="evenodd" d="M9.42473 6.69742C10.1095 6.44373 10.7943 6.17101 11.461 5.87292L11.419 8.42885L9.41272 9.247L9.42473 6.69742Z" fill="url(#paint24_linear_1444_266)"/>
<path fill-rule="evenodd" clip-rule="evenodd" d="M9.93531 6.5008C9.92931 7.34432 9.9233 8.19418 9.91729 9.0377L9.41272 9.24065L9.42473 6.69107C9.59292 6.62765 9.76712 6.56422 9.93531 6.5008ZM10.9204 8.6318C10.9324 7.78194 10.9445 6.93842 10.9565 6.08856C11.1247 6.01879 11.2989 5.94268 11.4671 5.86658L11.425 8.4225L10.9264 8.62546L10.9204 8.6318Z" fill="url(#paint25_linear_1444_266)"/>
<path fill-rule="evenodd" clip-rule="evenodd" d="M11.467 5.87295C10.7942 6.16469 10.1154 6.44375 9.43066 6.69744L5.15381 3.31068C5.82657 3.07602 6.49333 2.82233 7.16009 2.53693L11.473 5.87295H11.467Z" fill="url(#paint26_linear_1444_266)"/>
<path fill-rule="evenodd" clip-rule="evenodd" d="M10.9564 6.0759C9.52677 4.96601 8.09715 3.84977 6.66753 2.73988C6.82971 2.67646 6.99189 2.60669 7.15408 2.53693L11.467 5.87295C11.2988 5.94906 11.1306 6.01882 10.9564 6.09493V6.08224V6.0759ZM9.43066 6.6911L5.15381 3.30434C5.32801 3.24726 5.4962 3.18384 5.66439 3.12041C7.088 4.24299 8.51162 5.35923 9.94124 6.48181C9.77305 6.55791 9.60486 6.62768 9.43066 6.68476V6.6911Z" fill="url(#paint27_linear_1444_266)"/>
<path opacity="0.5" fill-rule="evenodd" clip-rule="evenodd" d="M8.87203 7.27457L4.22275 8.91721L1.48364 6.74182L4.22876 9.07577L8.87203 7.27457Z" fill="#1F3F37"/>
<path opacity="0.5" fill-rule="evenodd" clip-rule="evenodd" d="M6.22909 8.83473L4.22882 9.64654L3.08752 8.63812L4.22882 9.51335L6.22909 8.83473Z" fill="#1F3F37"/>
<path opacity="0.5" fill-rule="evenodd" clip-rule="evenodd" d="M7.77888 8.80307L4.23486 10.0969L1.77808 8.1181L4.23486 10.2428L7.77888 8.80307Z" fill="#1F3F37"/>
<path opacity="0.5" fill-rule="evenodd" clip-rule="evenodd" d="M5.42416 10.2935L4.24082 10.8072L3.32178 9.98273L4.24082 10.6931L5.42416 10.2935Z" fill="#1F3F37"/>
<path fill-rule="evenodd" clip-rule="evenodd" d="M17.2576 5.0611L17.3837 5.73337L13.2991 7.27454L17.2576 5.0611Z" fill="url(#paint28_linear_1444_266)"/>
<path fill-rule="evenodd" clip-rule="evenodd" d="M18.2607 5.16895L18.3869 5.84122L14.3022 7.38239L18.2607 5.16895Z" fill="url(#paint29_linear_1444_266)"/>
<path fill-rule="evenodd" clip-rule="evenodd" d="M16.8911 5.02307L17.2575 5.06112L14.9329 6.5135L17.4678 5.08649L18.2607 5.16894L16.5848 6.2281L18.5129 5.19431L18.9154 5.23871L18.9334 5.69535L10.5479 18.6716L10.3076 18.8492L8.37344 18.4877L6.51733 11.1053L16.8911 5.02307Z" fill="#003F00"/>
<path fill-rule="evenodd" clip-rule="evenodd" d="M18.9154 5.23871C15.3954 7.21749 11.9355 9.25969 8.52361 11.359L6.51733 11.1053L16.8911 5.02307L17.2575 5.06112L14.9329 6.50716L17.4678 5.08015L18.2607 5.1626L16.5908 6.22176L18.5129 5.18797L18.9154 5.23237V5.23871Z" fill="url(#paint30_linear_1444_266)"/>
<path fill-rule="evenodd" clip-rule="evenodd" d="M8.52361 11.3653L10.3076 18.8492L8.37344 18.4877L6.51733 11.1053L8.52361 11.3653Z" fill="url(#paint31_linear_1444_266)"/>
<path fill-rule="evenodd" clip-rule="evenodd" d="M19.0957 5.23871C15.5337 7.16675 12.0617 9.2153 8.68591 11.3907L10.554 18.8999L12.7165 17.2826L19.4802 7.25554L19.0957 5.24505V5.23871Z" fill="#004C00"/>
<path fill-rule="evenodd" clip-rule="evenodd" d="M19.378 5.26404C15.7619 7.03987 12.29 9.06305 9.00427 11.4287L10.8724 18.8682C14.1101 16.2615 17.5219 14.1749 21.06 12.4752L19.378 5.26404Z" fill="url(#paint32_linear_1444_266)"/>
<path fill-rule="evenodd" clip-rule="evenodd" d="M12.9687 8.78399L10.9504 8.50493L12.6984 7.48383L14.6927 7.76288C14.116 8.09902 13.5394 8.44151 12.9687 8.79033V8.78399Z" fill="url(#paint33_linear_1444_266)"/>
<path fill-rule="evenodd" clip-rule="evenodd" d="M14.2542 8.01657C13.5934 7.92144 12.9267 7.83265 12.2659 7.73752L12.7044 7.48383L14.6987 7.76288C14.5545 7.84533 14.4043 7.93413 14.2602 8.01657H14.2542ZM11.3949 8.25124C12.0617 8.34637 12.7284 8.43516 13.3952 8.5303C13.257 8.61275 13.1129 8.70154 12.9747 8.79033L10.9564 8.51127L11.3949 8.25758V8.25124Z" fill="url(#paint34_linear_1444_266)"/>
<path opacity="0.4" fill-rule="evenodd" clip-rule="evenodd" d="M18.4229 6.38666C17.0293 7.10967 15.6418 7.85172 14.2722 8.66353C12.8966 9.48168 11.5511 10.3696 10.2056 11.2829C10.3317 11.7966 10.1515 12.4181 9.79712 12.6718C9.97732 13.3948 10.1635 14.1242 10.3437 14.8472C10.5239 15.5702 10.7041 16.2996 10.8904 17.0226C11.2388 16.7626 11.6232 16.9719 11.7553 17.4856C13.0768 16.5216 14.3983 15.5829 15.7499 14.7394C17.0954 13.9022 18.471 13.1538 19.8465 12.4308C19.7264 11.9298 19.9306 11.3653 20.297 11.1877C20.1348 10.4838 19.9667 9.77976 19.8045 9.07577C19.6423 8.37178 19.4741 7.66779 19.3119 6.9638C18.9455 7.14773 18.549 6.8877 18.4289 6.38666H18.4229ZM16.3746 8.25128C15.9481 8.48594 15.6297 8.96795 15.4555 9.5451C15.2813 10.1286 15.2513 10.8135 15.4135 11.4605C15.5697 12.1074 15.882 12.5894 16.2544 12.8494C16.6269 13.1094 17.0714 13.1475 17.4919 12.9128C17.9123 12.6718 18.2307 12.2088 18.4049 11.638C18.5791 11.0672 18.6151 10.4013 18.465 9.75439C18.3148 9.11383 18.0024 8.61913 17.624 8.34641C17.2456 8.0737 16.7951 8.01662 16.3746 8.25128ZM14.2061 11.0672C13.6595 11.4097 13.1189 11.7522 12.5783 12.1137C12.0377 12.4689 11.5031 12.8431 10.9624 13.2173C10.9144 13.2553 10.8844 13.3441 10.9024 13.4202C10.9444 13.5788 10.9805 13.7437 11.0225 13.9022C11.0405 13.9783 11.1006 14.01 11.1487 13.972C11.6833 13.5915 12.2179 13.2236 12.7585 12.8621C13.2991 12.5069 13.8397 12.1518 14.3803 11.8093C14.4344 11.7776 14.4584 11.6951 14.4404 11.619C14.4043 11.4605 14.3623 11.3019 14.3263 11.1433C14.3082 11.0672 14.2482 11.0355 14.2001 11.0672H14.2061ZM14.5906 12.5133C13.8577 12.9826 13.1249 13.4583 12.3921 13.953C12.356 13.9783 12.338 14.0418 12.35 14.0925C12.374 14.2003 12.4041 14.3081 12.4281 14.4159C12.4401 14.4667 12.4762 14.4857 12.5122 14.4667C13.239 13.972 13.9719 13.4836 14.7047 13.0207C14.7407 12.9953 14.7587 12.9382 14.7467 12.8875C14.7227 12.7796 14.6927 12.6718 14.6686 12.564C14.6566 12.5133 14.6146 12.4879 14.5785 12.5133H14.5906Z" fill="url(#paint35_linear_1444_266)"/>
<path fill-rule="evenodd" clip-rule="evenodd" d="M14.6927 16.0776L12.9747 8.78404C13.5454 8.43521 14.116 8.09273 14.6987 7.75659L16.3866 15.0058C15.816 15.3483 15.2513 15.7098 14.6927 16.0776Z" fill="url(#paint36_linear_1444_266)"/>
<path fill-rule="evenodd" clip-rule="evenodd" d="M15.9601 15.2658C15.3955 12.8494 14.8308 10.433 14.2662 8.01662C14.4044 7.92783 14.5485 7.84538 14.6987 7.75659L16.3866 15.0058C16.2424 15.0946 16.1043 15.177 15.9601 15.2658ZM13.4012 8.53035C13.9719 10.9531 14.5425 13.3822 15.1132 15.8049C14.975 15.8937 14.8308 15.9888 14.6927 16.0776L12.9747 8.78404C13.1129 8.69525 13.2571 8.6128 13.3952 8.524H13.4012V8.53035Z" fill="url(#paint37_linear_1444_266)"/>
<path opacity="0.5" fill-rule="evenodd" clip-rule="evenodd" d="M11.1366 9.59583L8.35543 11.3399L9.79105 17.6759L8.16321 11.3146L11.1366 9.59583Z" fill="#1F3F37"/>
<path opacity="0.5" fill-rule="evenodd" clip-rule="evenodd" d="M9.2085 10.4013L7.85696 11.2765L8.54775 14.454L7.67676 11.2575L9.2085 10.4013Z" fill="#1F3F37"/>
<path opacity="0.5" fill-rule="evenodd" clip-rule="evenodd" d="M11.0226 8.80304L7.11812 11.1814L8.19935 15.9381L6.9259 11.1624L11.0226 8.80304Z" fill="#1F3F37"/>
</g>
<defs>
<linearGradient id="paint0_linear_1444_266" x1="13.2089" y1="12.8114" x2="13.2089" y2="9.8432" gradientUnits="userSpaceOnUse">
<stop stop-color="#126619"/>
<stop offset="1" stop-color="#154522"/>
</linearGradient>
<linearGradient id="paint1_linear_1444_266" x1="13.227" y1="12.0312" x2="13.227" y2="9.06305" gradientUnits="userSpaceOnUse">
<stop stop-color="#126619"/>
<stop offset="1" stop-color="#154522"/>
</linearGradient>
<linearGradient id="paint2_linear_1444_266" x1="3.71217" y1="13.027" x2="0.0960693" y2="13.027" gradientUnits="userSpaceOnUse">
<stop stop-color="#106B17"/>
<stop offset="1" stop-color="#1A5920"/>
</linearGradient>
<linearGradient id="paint3_linear_1444_266" x1="8.10916" y1="12.7479" x2="1.60978" y2="12.7479" gradientUnits="userSpaceOnUse">
<stop stop-color="#124017"/>
<stop offset="1" stop-color="#0E6115"/>
</linearGradient>
<linearGradient id="paint4_linear_1444_266" x1="16.4406" y1="9.7227" x2="0.0960949" y2="9.7227" gradientUnits="userSpaceOnUse">
<stop stop-color="#51B850"/>
<stop offset="1" stop-color="#309631"/>
</linearGradient>
<linearGradient id="paint5_linear_1444_266" x1="15.1432" y1="9.70367" x2="1.3335" y2="9.70367" gradientUnits="userSpaceOnUse">
<stop stop-color="#95EB88"/>
<stop offset="1" stop-color="#74D461"/>
</linearGradient>
<linearGradient id="paint6_linear_1444_266" x1="14.5786" y1="10.2301" x2="14.5786" y2="6.03784" gradientUnits="userSpaceOnUse">
<stop stop-color="#126619"/>
<stop offset="1" stop-color="#154522"/>
</linearGradient>
<linearGradient id="paint7_linear_1444_266" x1="14.5965" y1="9.6022" x2="14.5965" y2="5.40363" gradientUnits="userSpaceOnUse">
<stop stop-color="#126619"/>
<stop offset="1" stop-color="#154522"/>
</linearGradient>
<linearGradient id="paint8_linear_1444_266" x1="14.6205" y1="8.69522" x2="14.6205" y2="4.50299" gradientUnits="userSpaceOnUse">
<stop stop-color="#126619"/>
<stop offset="1" stop-color="#154522"/>
</linearGradient>
<linearGradient id="paint9_linear_1444_266" x1="6.27708" y1="10.3949" x2="1.48364" y2="10.3949" gradientUnits="userSpaceOnUse">
<stop stop-color="#106B17"/>
<stop offset="1" stop-color="#124017"/>
</linearGradient>
<linearGradient id="paint10_linear_1444_266" x1="8.45159" y1="9.29774" x2="-2.71508" y2="9.29774" gradientUnits="userSpaceOnUse">
<stop stop-color="#0E6115"/>
<stop offset="1" stop-color="#124017"/>
</linearGradient>
<linearGradient id="paint11_linear_1444_266" x1="19.6603" y1="-0.183898" x2="-2.44509" y2="12.6108" gradientUnits="userSpaceOnUse">
<stop stop-color="#127A1A"/>
<stop offset="1" stop-color="#124017"/>
</linearGradient>
<radialGradient id="paint12_radial_1444_266" cx="0" cy="0" r="1" gradientUnits="userSpaceOnUse" gradientTransform="translate(2.69702 6.39931) rotate(180) scale(5.05774 5.34017)">
<stop stop-color="#00562F"/>
<stop offset="1" stop-color="white"/>
</radialGradient>
<radialGradient id="paint13_radial_1444_266" cx="0" cy="0" r="1" gradientUnits="userSpaceOnUse" gradientTransform="translate(3.73018 7.58535) rotate(180) scale(4.63125 4.88987)">
<stop stop-color="#00562F"/>
<stop offset="1" stop-color="white"/>
</radialGradient>
<linearGradient id="paint14_linear_1444_266" x1="16.4406" y1="4.62349" x2="13.8457" y2="4.62349" gradientUnits="userSpaceOnUse">
<stop stop-color="#126619"/>
<stop offset="1" stop-color="#154522"/>
</linearGradient>
<linearGradient id="paint15_linear_1444_266" x1="16.4106" y1="5.61287" x2="13.8157" y2="5.61287" gradientUnits="userSpaceOnUse">
<stop stop-color="#126619"/>
<stop offset="1" stop-color="#154522"/>
</linearGradient>
<linearGradient id="paint16_linear_1444_266" x1="1.98227" y1="7.77562" x2="0.0480704" y2="7.77562" gradientUnits="userSpaceOnUse">
<stop stop-color="#154522"/>
<stop offset="1" stop-color="#126619"/>
</linearGradient>
<linearGradient id="paint17_linear_1444_266" x1="1.95822" y1="6.66569" x2="0.0300293" y2="6.66569" gradientUnits="userSpaceOnUse">
<stop stop-color="#154522"/>
<stop offset="1" stop-color="#126619"/>
</linearGradient>
<linearGradient id="paint18_linear_1444_266" x1="8.23534" y1="11.3463" x2="8.23534" y2="3.55164" gradientUnits="userSpaceOnUse">
<stop stop-color="#25752C"/>
<stop offset="1" stop-color="#1C5C25"/>
</linearGradient>
<linearGradient id="paint19_linear_1444_266" x1="4.22278" y1="7.61706" x2="16.4527" y2="7.61706" gradientUnits="userSpaceOnUse">
<stop stop-color="#158C1E"/>
<stop offset="1" stop-color="#1B5C21"/>
</linearGradient>
<linearGradient id="paint20_linear_1444_266" x1="4.24686" y1="8.30832" x2="0.0180664" y2="8.30832" gradientUnits="userSpaceOnUse">
<stop stop-color="#1A7321"/>
<stop offset="1" stop-color="#1E6624"/>
</linearGradient>
<linearGradient id="paint21_linear_1444_266" x1="8.22333" y1="8.52397" x2="8.22333" y2="3.27892" gradientUnits="userSpaceOnUse">
<stop stop-color="#2C8A30"/>
<stop offset="1" stop-color="#227028"/>
</linearGradient>
<linearGradient id="paint22_linear_1444_266" x1="16.4046" y1="4.08441" x2="0.0600586" y2="4.08441" gradientUnits="userSpaceOnUse">
<stop stop-color="#3B961F"/>
<stop offset="1" stop-color="#45C728"/>
</linearGradient>
<linearGradient id="paint23_linear_1444_266" x1="15.0891" y1="4.21762" x2="1.51367" y2="4.21762" gradientUnits="userSpaceOnUse">
<stop stop-color="#74C73E"/>
<stop offset="1" stop-color="#8FDB63"/>
</linearGradient>
<linearGradient id="paint24_linear_1444_266" x1="11.4971" y1="-0.380534" x2="10.1408" y2="8.6048" gradientUnits="userSpaceOnUse">
<stop stop-color="#D5DCEB"/>
<stop offset="0.38" stop-color="#C5CDE1"/>
<stop offset="1" stop-color="#A5AFCC"/>
</linearGradient>
<linearGradient id="paint25_linear_1444_266" x1="9.70705" y1="12.5957" x2="11.3101" y2="2.48003" gradientUnits="userSpaceOnUse">
<stop stop-color="#82290C"/>
<stop offset="1" stop-color="#CC3300"/>
</linearGradient>
<linearGradient id="paint26_linear_1444_266" x1="11.461" y1="4.61718" x2="5.1478" y2="4.61718" gradientUnits="userSpaceOnUse">
<stop stop-color="#F8FAFF"/>
<stop offset="0.42" stop-color="#E8EFFC"/>
<stop offset="1" stop-color="#CDDBF7"/>
</linearGradient>
<linearGradient id="paint27_linear_1444_266" x1="11.461" y1="4.61718" x2="5.1478" y2="4.61718" gradientUnits="userSpaceOnUse">
<stop stop-color="#F25E2C"/>
<stop offset="1" stop-color="#CC3300"/>
</linearGradient>
<linearGradient id="paint28_linear_1444_266" x1="17.3837" y1="6.17099" x2="13.2991" y2="6.17099" gradientUnits="userSpaceOnUse">
<stop stop-color="#126619"/>
<stop offset="1" stop-color="#154522"/>
</linearGradient>
<linearGradient id="paint29_linear_1444_266" x1="18.3869" y1="6.27884" x2="14.2962" y2="6.27884" gradientUnits="userSpaceOnUse">
<stop stop-color="#126619"/>
<stop offset="1" stop-color="#154522"/>
</linearGradient>
<linearGradient id="paint30_linear_1444_266" x1="18.9154" y1="8.1942" x2="6.51733" y2="8.1942" gradientUnits="userSpaceOnUse">
<stop stop-color="#206E27"/>
<stop offset="1" stop-color="#158C1E"/>
</linearGradient>
<linearGradient id="paint31_linear_1444_266" x1="8.40948" y1="18.8492" x2="8.40948" y2="11.1053" gradientUnits="userSpaceOnUse">
<stop stop-color="#124017"/>
<stop offset="1" stop-color="#0E6115"/>
</linearGradient>
<linearGradient id="paint32_linear_1444_266" x1="21.06" y1="12.0629" x2="9.00427" y2="12.0629" gradientUnits="userSpaceOnUse">
<stop stop-color="#1A5920"/>
<stop offset="1" stop-color="#106B17"/>
</linearGradient>
<linearGradient id="paint33_linear_1444_266" x1="14.6927" y1="8.13073" x2="10.9564" y2="8.13073" gradientUnits="userSpaceOnUse">
<stop stop-color="#D5DCEB"/>
<stop offset="0.38" stop-color="#C5CDE1"/>
<stop offset="1" stop-color="#A5AFCC"/>
</linearGradient>
<linearGradient id="paint34_linear_1444_266" x1="15.4375" y1="9.20892" x2="7.0759" y2="6.11154" gradientUnits="userSpaceOnUse">
<stop stop-color="#E99938"/>
<stop offset="1" stop-color="#E6332A"/>
</linearGradient>
<linearGradient id="paint35_linear_1444_266" x1="20.297" y1="11.9361" x2="9.79111" y2="11.9361" gradientUnits="userSpaceOnUse">
<stop stop-color="#74C73E"/>
<stop offset="1" stop-color="#8FDB63"/>
</linearGradient>
<linearGradient id="paint36_linear_1444_266" x1="14.8429" y1="6.04418" x2="14.4947" y2="17.0849" gradientUnits="userSpaceOnUse">
<stop stop-color="#A9B4CF"/>
<stop offset="0.35" stop-color="#99A5C0"/>
<stop offset="1" stop-color="#75839E"/>
</linearGradient>
<linearGradient id="paint37_linear_1444_266" x1="15.0291" y1="2.18175" x2="14.5202" y2="14.8451" gradientUnits="userSpaceOnUse">
<stop stop-color="#D17219"/>
<stop offset="1" stop-color="#A65400"/>
</linearGradient>
<clipPath id="clip0_1444_266">
<rect width="21.06" height="18.9" fill="white"/>
</clipPath>
</defs>
</svg>
