<svg width="22" height="32" viewBox="0 0 22 32" fill="none" xmlns="http://www.w3.org/2000/svg">
<path d="M10.995 10.99C8.80089 10.9192 6.64183 10.7079 4.56228 9.99033C3.26928 9.54421 2.05748 8.94443 1.08335 7.95955C0.527954 7.3984 0.096765 6.76589 0.0118854 5.95593C-0.0458328 5.40709 0.109214 4.91087 0.421571 4.46503C0.683 4.09196 1.08363 4.03682 1.46729 4.1776C1.90781 4.33909 2.35173 4.5378 2.73058 4.8076C3.59324 5.4222 4.41742 6.08999 5.2566 6.73706C6.32438 7.56045 7.42471 8.34186 8.72393 8.76391C11.3207 9.60718 13.7132 9.18653 15.8609 7.51231C16.5317 6.98951 17.1587 6.41156 17.8027 5.85517C18.4695 5.27919 19.1469 4.7158 19.958 4.34524C20.1875 4.24057 20.4396 4.17144 20.6888 4.12582C21.1209 4.04718 21.444 4.22462 21.665 4.59853C22.1431 5.40877 22.0862 6.21621 21.6418 7.01273C21.1837 7.83333 20.4882 8.4289 19.7017 8.92176C18.1232 9.91084 16.3738 10.4337 14.539 10.6701C13.3637 10.8218 12.1768 10.8865 10.995 10.99Z" fill="white"/>
<path d="M12.1596 11.7384C11.8017 11.7661 11.4313 11.7947 11.07 11.8266L11.0188 11.8311L10.9673 11.8294C8.97461 11.7653 6.62231 11.5907 4.28246 10.7832C4.10874 10.7233 3.9404 10.6617 3.7763 10.5985C3.59663 11.5319 3.46422 12.4725 3.39943 13.4213C3.32728 14.4812 3.23986 15.5361 3.03869 16.5845C2.80103 17.8212 2.8893 19.0577 3.29135 20.2578C3.55476 21.0446 3.85269 21.8204 4.13081 22.6023C4.1475 22.6494 4.14637 22.73 4.11695 22.7616C3.67529 23.2374 3.50949 23.8134 3.48233 24.4403C3.47865 24.5273 3.45149 24.5595 3.36463 24.5945C3.1745 24.6706 2.97758 24.7523 2.81829 24.8758C2.40775 25.1943 2.2728 25.6505 2.27478 26.143C2.27874 27.138 2.62589 28.0224 3.22316 28.8117C3.90786 29.7162 4.81126 30.3557 5.82557 30.8489C7.46262 31.6446 9.2052 31.9815 11.2267 32C11.4771 31.9818 11.9341 31.9617 12.3879 31.9132C13.8495 31.7573 15.241 31.3638 16.5348 30.6639C17.4894 30.1475 18.3315 29.4954 18.9383 28.5869C19.4618 27.8033 19.7679 26.9466 19.7204 25.9928C19.6859 25.3006 19.3016 24.796 18.6681 24.6029C18.5609 24.5701 18.523 24.5296 18.5176 24.4154C18.4885 23.7938 18.3167 23.2234 17.8771 22.7538C17.8499 22.7247 17.8496 22.6494 17.8655 22.6054C18.1006 21.9469 18.3332 21.2872 18.581 20.6331C19.0843 19.3043 19.2046 17.9391 18.9607 16.5472C18.8277 15.7891 18.6942 15.0337 18.6571 14.2635C18.6342 13.7888 18.5954 13.3144 18.5496 12.8411C18.4769 12.0914 18.3569 11.3488 18.2214 10.6089C17.14 11.0387 15.9571 11.334 14.6491 11.5028C13.8159 11.6102 12.9741 11.6755 12.1601 11.7384H12.1596ZM7.07727 16.2506C6.53205 16.2399 6.05022 16.1652 5.62922 15.882C5.06194 15.5002 4.77957 14.6704 5.0062 14.0312C5.10579 13.7507 5.30951 13.5568 5.60856 13.4672C6.08955 13.3234 6.55129 13.4362 7.01078 13.5615C8.03103 13.8397 8.94094 14.3469 9.8251 14.9055C9.87207 14.9352 9.91621 14.9732 9.9527 15.0149C10.009 15.0796 10.0149 15.1518 9.94648 15.2136C9.89102 15.2637 9.83416 15.3144 9.7705 15.3527C9.04845 15.7877 8.28822 16.1252 7.438 16.224C7.30248 16.2397 7.16582 16.2441 7.07698 16.2503L7.07727 16.2506ZM13.0828 21.9236C11.888 22.8721 10.1949 22.894 8.98479 21.9757C8.93273 21.9362 8.87983 21.8957 8.83541 21.8481C8.60765 21.6052 8.65037 21.3242 8.94462 21.1638C9.55575 20.8305 10.2082 20.6376 11.0253 20.6122C11.6599 20.6043 12.3619 20.7916 13.0188 21.1442C13.3861 21.3415 13.4082 21.6653 13.0828 21.9236ZM16.0046 13.4084C16.5631 13.3891 16.9635 13.7169 17.0523 14.2178C17.1816 14.9486 16.7601 15.8274 15.9837 16.0801C15.6447 16.1904 15.3007 16.257 14.9425 16.2481C14.1161 16.236 13.364 15.9665 12.6451 15.589C12.4787 15.5016 12.3149 15.4079 12.1587 15.3043C11.9516 15.1669 11.9485 15.0583 12.155 14.9245C13.0211 14.3639 13.9174 13.8579 14.9241 13.587C15.2755 13.4927 15.6425 13.421 16.0046 13.4084Z" fill="white"/>
<path d="M11.7074 1.85519C11.8362 1.30748 11.5366 0.948677 11.1557 0.656767C11.5351 0.476248 11.9038 0.301606 12.2722 0.125844C12.5981 -0.0294868 12.9289 -0.0331251 13.218 0.17986C13.6894 0.526625 14.1593 0.879828 14.5936 1.26997C15.2534 1.86303 15.5661 2.64388 15.7189 3.4975C15.8612 4.29263 16.0083 5.08691 16.1611 5.88008C16.1911 6.03541 16.1633 6.11182 15.9998 6.17171C14.1299 6.85516 12.219 7.30157 10.2068 7.17394C8.73298 7.08046 7.32653 6.70235 5.95912 6.16947C5.89348 6.144 5.81454 6.01834 5.82586 5.95341C5.99392 4.98196 6.17726 4.01275 6.35466 3.04298C6.50433 2.22519 6.90298 1.54565 7.53618 1.00633C7.88107 0.712742 8.24747 0.443502 8.60821 0.168665C8.89652 -0.0510371 9.20435 -0.0415214 9.51897 0.11325C9.89244 0.297128 10.2617 0.489682 10.6402 0.662645C11.1724 0.905577 11.5207 1.30048 11.7077 1.85519H11.7074Z" fill="white"/>
</svg>
