<svg width="196" height="29" viewBox="0 0 196 29" fill="none" xmlns="http://www.w3.org/2000/svg">
<path d="M3.10625 0C2.58302 0 2.14825 0.403334 2.10906 0.925089L0.08075 27.9251C0.0371665 28.5053 0.496141 29 1.07794 29H2.89375C3.41698 29 3.85175 28.5967 3.89094 28.0749L5.91925 1.07491C5.96283 0.494745 5.50386 0 4.92206 0H3.10625Z" fill="#2DF0CD"/>
<path d="M8.10625 0C7.58302 0 7.14825 0.403334 7.10906 0.925089L5.08075 27.9251C5.03717 28.5053 5.49614 29 6.07794 29H7.89375C8.41698 29 8.85175 28.5967 8.89094 28.0749L10.9193 1.07491C10.9628 0.494745 10.5039 0 9.92206 0H8.10625Z" fill="#2DF0CD"/>
<path d="M13.1062 0C12.583 0 12.1483 0.403334 12.1091 0.925089L10.0807 27.9251C10.0372 28.5053 10.4961 29 11.0779 29H12.8938C13.417 29 13.8517 28.5967 13.8909 28.0749L15.9193 1.07491C15.9628 0.494745 15.5039 0 14.9221 0H13.1062Z" fill="#2DF0CD"/>
<path d="M18.1062 0C17.583 0 17.1483 0.403334 17.1091 0.925089L15.0807 27.9251C15.0372 28.5053 15.4961 29 16.0779 29H17.8938C18.417 29 18.8517 28.5967 18.8909 28.0749L20.9193 1.07491C20.9628 0.494745 20.5039 0 19.9221 0H18.1062Z" fill="#2DF0CD"/>
<path d="M23.1062 0C22.583 0 22.1483 0.403334 22.1091 0.925089L20.0807 27.9251C20.0372 28.5053 20.4961 29 21.0779 29H22.8938C23.417 29 23.8517 28.5967 23.8909 28.0749L25.9193 1.07491C25.9628 0.494745 25.5039 0 24.9221 0H23.1062Z" fill="#2DF0CD"/>
<path d="M28.1062 0C27.583 0 27.1483 0.403334 27.1091 0.925089L25.0807 27.9251C25.0372 28.5053 25.4961 29 26.0779 29H27.8938C28.417 29 28.8517 28.5967 28.8909 28.0749L30.9193 1.07491C30.9628 0.494745 30.5039 0 29.9221 0H28.1062Z" fill="#2DF0CD"/>
<path d="M33.1062 0C32.583 0 32.1483 0.403334 32.1091 0.925089L30.0807 27.9251C30.0372 28.5053 30.4961 29 31.0779 29H32.8938C33.417 29 33.8517 28.5967 33.8909 28.0749L35.9193 1.07491C35.9628 0.494745 35.5039 0 34.9221 0H33.1062Z" fill="#2DF0CD"/>
<path d="M38.1062 0C37.583 0 37.1483 0.403334 37.1091 0.925089L35.0807 27.9251C35.0372 28.5053 35.4961 29 36.0779 29H37.8938C38.417 29 38.8517 28.5967 38.8909 28.0749L40.9193 1.07491C40.9628 0.494745 40.5039 0 39.9221 0H38.1062Z" fill="#2DF0CD"/>
<path d="M43.1062 0C42.583 0 42.1483 0.403334 42.1091 0.925089L40.0807 27.9251C40.0372 28.5053 40.4961 29 41.0779 29H42.8938C43.417 29 43.8517 28.5967 43.8909 28.0749L45.9193 1.07491C45.9628 0.494745 45.5039 0 44.9221 0H43.1062Z" fill="#2DF0CD"/>
<path d="M48.1062 0C47.583 0 47.1483 0.403334 47.1091 0.925089L45.0807 27.9251C45.0372 28.5053 45.4961 29 46.0779 29H47.8938C48.417 29 48.8517 28.5967 48.8909 28.0749L50.9193 1.07491C50.9628 0.494745 50.5039 0 49.9221 0H48.1062Z" fill="#2DF0CD"/>
<path d="M53.1062 0C52.583 0 52.1483 0.403334 52.1091 0.925089L50.0807 27.9251C50.0372 28.5053 50.4961 29 51.0779 29H52.8938C53.417 29 53.8517 28.5967 53.8909 28.0749L55.9193 1.07491C55.9628 0.494745 55.5039 0 54.9221 0H53.1062Z" fill="#2DF0CD"/>
<path d="M58.1062 0C57.583 0 57.1483 0.403334 57.1091 0.925089L55.0807 27.9251C55.0372 28.5053 55.4961 29 56.0779 29H57.8938C58.417 29 58.8517 28.5967 58.8909 28.0749L60.9193 1.07491C60.9628 0.494745 60.5039 0 59.9221 0H58.1062Z" fill="#2DF0CD"/>
<path d="M63.1062 0C62.583 0 62.1483 0.403334 62.1091 0.925089L60.0807 27.9251C60.0372 28.5053 60.4961 29 61.0779 29H62.8938C63.417 29 63.8517 28.5967 63.8909 28.0749L65.9193 1.07491C65.9628 0.494745 65.5039 0 64.9221 0H63.1062Z" fill="#2DF0CD"/>
<path d="M68.1062 0C67.583 0 67.1483 0.403334 67.1091 0.925089L65.0807 27.9251C65.0372 28.5053 65.4961 29 66.0779 29H67.8938C68.417 29 68.8517 28.5967 68.8909 28.0749L70.9193 1.07491C70.9628 0.494745 70.5039 0 69.9221 0H68.1062Z" fill="#2DF0CD"/>
<path d="M73.1062 0C72.583 0 72.1483 0.403334 72.1091 0.925089L70.0807 27.9251C70.0372 28.5053 70.4961 29 71.0779 29H72.8938C73.417 29 73.8517 28.5967 73.8909 28.0749L75.9193 1.07491C75.9628 0.494745 75.5039 0 74.9221 0H73.1062Z" fill="#2DF0CD"/>
<path d="M78.1062 0C77.583 0 77.1483 0.403334 77.1091 0.925089L75.0807 27.9251C75.0372 28.5053 75.4961 29 76.0779 29H77.8938C78.417 29 78.8517 28.5967 78.8909 28.0749L80.9193 1.07491C80.9628 0.494745 80.5039 0 79.9221 0H78.1062Z" fill="#2DF0CD"/>
<path d="M83.1062 0C82.583 0 82.1483 0.403334 82.1091 0.925089L80.0807 27.9251C80.0372 28.5053 80.4961 29 81.0779 29H82.8938C83.417 29 83.8517 28.5967 83.8909 28.0749L85.9193 1.07491C85.9628 0.494745 85.5039 0 84.9221 0H83.1062Z" fill="#2DF0CD"/>
<path d="M88.1062 0C87.583 0 87.1483 0.403334 87.1091 0.925089L85.0807 27.9251C85.0372 28.5053 85.4961 29 86.0779 29H87.8938C88.417 29 88.8517 28.5967 88.8909 28.0749L90.9193 1.07491C90.9628 0.494745 90.5039 0 89.9221 0H88.1062Z" fill="#2DF0CD"/>
<path d="M93.1062 0C92.583 0 92.1483 0.403334 92.1091 0.925089L90.0807 27.9251C90.0372 28.5053 90.4961 29 91.0779 29H92.8938C93.417 29 93.8517 28.5967 93.8909 28.0749L95.9193 1.07491C95.9628 0.494745 95.5039 0 94.9221 0H93.1062Z" fill="#2DF0CD"/>
<path d="M98.1062 0C97.583 0 97.1483 0.403334 97.1091 0.925089L95.0807 27.9251C95.0372 28.5053 95.4961 29 96.0779 29H97.8938C98.417 29 98.8517 28.5967 98.8909 28.0749L100.919 1.07491C100.963 0.494745 100.504 0 99.9221 0H98.1062Z" fill="#2DF0CD"/>
<path d="M103.106 0C102.583 0 102.148 0.403334 102.109 0.925089L100.081 27.9251C100.037 28.5053 100.496 29 101.078 29H102.894C103.417 29 103.852 28.5967 103.891 28.0749L105.919 1.07491C105.963 0.494745 105.504 0 104.922 0H103.106Z" fill="#2DF0CD"/>
<path d="M108.106 0C107.583 0 107.148 0.403334 107.109 0.925089L105.081 27.9251C105.037 28.5053 105.496 29 106.078 29H107.894C108.417 29 108.852 28.5967 108.891 28.0749L110.919 1.07491C110.963 0.494745 110.504 0 109.922 0H108.106Z" fill="#2DF0CD"/>
<path d="M113.106 0C112.583 0 112.148 0.403334 112.109 0.925089L110.081 27.9251C110.037 28.5053 110.496 29 111.078 29H112.894C113.417 29 113.852 28.5967 113.891 28.0749L115.919 1.07491C115.963 0.494745 115.504 0 114.922 0H113.106Z" fill="#2DF0CD"/>
<path d="M118.106 0C117.583 0 117.148 0.403334 117.109 0.925089L115.081 27.9251C115.037 28.5053 115.496 29 116.078 29H117.894C118.417 29 118.852 28.5967 118.891 28.0749L120.919 1.07491C120.963 0.494745 120.504 0 119.922 0H118.106Z" fill="#2DF0CD"/>
<path d="M123.106 0C122.583 0 122.148 0.403334 122.109 0.925089L120.081 27.9251C120.037 28.5053 120.496 29 121.078 29H122.894C123.417 29 123.852 28.5967 123.891 28.0749L125.919 1.07491C125.963 0.494745 125.504 0 124.922 0H123.106Z" fill="#2DF0CD"/>
<path d="M128.106 0C127.583 0 127.148 0.403334 127.109 0.925089L125.081 27.9251C125.037 28.5053 125.496 29 126.078 29H127.894C128.417 29 128.852 28.5967 128.891 28.0749L130.919 1.07491C130.963 0.494745 130.504 0 129.922 0H128.106Z" fill="#2DF0CD"/>
<path d="M133.106 0C132.583 0 132.148 0.403334 132.109 0.925089L130.081 27.9251C130.037 28.5053 130.496 29 131.078 29H132.894C133.417 29 133.852 28.5967 133.891 28.0749L135.919 1.07491C135.963 0.494745 135.504 0 134.922 0H133.106Z" fill="#2DF0CD"/>
<path d="M138.106 0C137.583 0 137.148 0.403334 137.109 0.925089L135.081 27.9251C135.037 28.5053 135.496 29 136.078 29H137.894C138.417 29 138.852 28.5967 138.891 28.0749L140.919 1.07491C140.963 0.494745 140.504 0 139.922 0H138.106Z" fill="#2DF0CD"/>
<path d="M143.106 0C142.583 0 142.148 0.403334 142.109 0.925089L140.081 27.9251C140.037 28.5053 140.496 29 141.078 29H142.894C143.417 29 143.852 28.5967 143.891 28.0749L145.919 1.07491C145.963 0.494745 145.504 0 144.922 0H143.106Z" fill="#2DF0CD"/>
<path d="M148.106 0C147.583 0 147.148 0.403334 147.109 0.925089L145.081 27.9251C145.037 28.5053 145.496 29 146.078 29H147.894C148.417 29 148.852 28.5967 148.891 28.0749L150.919 1.07491C150.963 0.494745 150.504 0 149.922 0H148.106Z" fill="#2DF0CD"/>
<path d="M153.106 0C152.583 0 152.148 0.403334 152.109 0.925089L150.081 27.9251C150.037 28.5053 150.496 29 151.078 29H152.894C153.417 29 153.852 28.5967 153.891 28.0749L155.919 1.07491C155.963 0.494745 155.504 0 154.922 0H153.106Z" fill="#2DF0CD"/>
<path d="M158.106 0C157.583 0 157.148 0.403334 157.109 0.925089L155.081 27.9251C155.037 28.5053 155.496 29 156.078 29H157.894C158.417 29 158.852 28.5967 158.891 28.0749L160.919 1.07491C160.963 0.494745 160.504 0 159.922 0H158.106Z" fill="#2DF0CD"/>
<path d="M163.106 0C162.583 0 162.148 0.403334 162.109 0.925089L160.081 27.9251C160.037 28.5053 160.496 29 161.078 29H162.894C163.417 29 163.852 28.5967 163.891 28.0749L165.919 1.07491C165.963 0.494745 165.504 0 164.922 0H163.106Z" fill="#2DF0CD"/>
<path d="M168.106 0C167.583 0 167.148 0.403334 167.109 0.925089L165.081 27.9251C165.037 28.5053 165.496 29 166.078 29H167.894C168.417 29 168.852 28.5967 168.891 28.0749L170.919 1.07491C170.963 0.494745 170.504 0 169.922 0H168.106Z" fill="#2DF0CD"/>
<path d="M173.106 0C172.583 0 172.148 0.403334 172.109 0.925089L170.081 27.9251C170.037 28.5053 170.496 29 171.078 29H172.894C173.417 29 173.852 28.5967 173.891 28.0749L175.919 1.07491C175.963 0.494745 175.504 0 174.922 0H173.106Z" fill="#2DF0CD"/>
<path d="M178.106 0C177.583 0 177.148 0.403334 177.109 0.925089L175.081 27.9251C175.037 28.5053 175.496 29 176.078 29H177.894C178.417 29 178.852 28.5967 178.891 28.0749L180.919 1.07491C180.963 0.494745 180.504 0 179.922 0H178.106Z" fill="#2DF0CD"/>
<path d="M183.106 0C182.583 0 182.148 0.403334 182.109 0.925089L180.081 27.9251C180.037 28.5053 180.496 29 181.078 29H182.894C183.417 29 183.852 28.5967 183.891 28.0749L185.919 1.07491C185.963 0.494745 185.504 0 184.922 0H183.106Z" fill="#2DF0CD"/>
<path d="M188.106 0C187.583 0 187.148 0.403334 187.109 0.925089L185.081 27.9251C185.037 28.5053 185.496 29 186.078 29H187.894C188.417 29 188.852 28.5967 188.891 28.0749L190.919 1.07491C190.963 0.494745 190.504 0 189.922 0H188.106Z" fill="#2DF0CD"/>
</svg>
