<svg width="17" height="28" viewBox="0 0 17 28" fill="none" xmlns="http://www.w3.org/2000/svg">
<path d="M8.61848 28C6.67225 27.9807 4.99459 27.6291 3.41853 26.799C2.44174 26.2844 1.57199 25.6172 0.913076 24.6734C0.338058 23.8499 0.00383411 22.9272 2.06324e-05 21.8891C-0.00188611 21.3749 0.128045 20.8992 0.523284 20.5669C0.676641 20.4381 0.866497 20.3528 1.04927 20.2734C1.1329 20.2372 1.15877 20.2033 1.16259 20.1125C1.18846 19.4584 1.34836 18.8574 1.77356 18.361C1.80189 18.328 1.80298 18.2439 1.78691 18.1949C1.51915 17.3787 1.23232 16.5695 0.978723 15.7487C0.591655 14.4963 0.506941 13.2065 0.735477 11.9161C0.92942 10.8222 1.01332 9.7216 1.08278 8.61576C1.14869 7.56657 1.28789 6.52672 1.47693 5.49563C1.5818 4.92416 1.67468 4.34481 1.84002 3.79204C2.17561 2.66984 2.90181 1.87557 3.82303 1.27111C4.74998 0.662563 5.76573 0.322371 6.83159 0.137236C7.76045 -0.0242458 8.69257 -0.0449786 9.62524 0.0843821C10.9409 0.266889 12.186 0.669279 13.2886 1.48983C14.2878 2.23358 14.9175 3.23225 15.1493 4.52703C15.3564 5.68281 15.5631 6.83771 15.6682 8.01013C15.7124 8.50392 15.7497 8.99888 15.7717 9.49413C15.8074 10.2977 15.936 11.0859 16.064 11.8769C16.2991 13.3291 16.1833 14.7535 15.6985 16.14C15.4599 16.8224 15.236 17.5107 15.0096 18.1978C14.9946 18.2436 14.9946 18.3222 15.0208 18.3526C15.4441 18.8426 15.6097 19.4377 15.6375 20.0862C15.6426 20.2054 15.6791 20.2477 15.7824 20.2819C16.3925 20.4834 16.7624 21.0099 16.7954 21.732C16.8409 22.7272 16.5464 23.621 16.0425 24.4386C15.4582 25.3862 14.6476 26.0666 13.7285 26.6056C12.4829 27.336 11.1433 27.7465 9.7361 27.9092C9.29919 27.9597 8.85928 27.9807 8.61821 27.9997L8.61848 28ZM4.62359 11.5674C4.70912 11.561 4.84069 11.5563 4.97116 11.54C5.7897 11.4369 6.52161 11.0847 7.21676 10.6309C7.27804 10.5909 7.33279 10.5381 7.38618 10.4858C7.4521 10.4213 7.44638 10.3459 7.39218 10.2785C7.35704 10.235 7.31482 10.1952 7.26933 10.1643C6.4181 9.58173 5.54209 9.05261 4.55985 8.76206C4.11749 8.63124 3.67294 8.51356 3.20988 8.66365C2.92196 8.7568 2.72584 8.95916 2.62996 9.25205C2.41177 9.919 2.68335 10.7848 3.22976 11.1831C3.63508 11.4786 4.09897 11.5566 4.62386 11.5677L4.62359 11.5674ZM12.1955 11.5645C12.5404 11.5741 12.8716 11.5046 13.1979 11.3893C13.9454 11.1256 14.3512 10.2087 14.2267 9.44624C14.1412 8.92325 13.7558 8.5816 13.2181 8.60174C12.8694 8.61488 12.5161 8.68964 12.1778 8.78805C11.2084 9.07042 10.3457 9.59867 9.51193 10.1836C9.31308 10.3231 9.3158 10.4364 9.51547 10.5798C9.66583 10.6879 9.82354 10.7857 9.98371 10.8768C10.6761 11.2707 11.3999 11.5519 12.1955 11.5645ZM8.42454 16.1178C7.6376 16.1444 7.00974 16.3456 6.42137 16.6934C6.13809 16.8607 6.09696 17.1541 6.31623 17.4073C6.359 17.4567 6.40966 17.4993 6.46005 17.5405C7.62507 18.4986 9.25506 18.4758 10.4054 17.4862C10.7186 17.2166 10.6976 16.8785 10.3438 16.6729C9.71132 16.305 9.03551 16.1093 8.42454 16.1178Z" fill="white"/>
</svg>
