<svg width="22" height="20" viewBox="0 0 22 20" fill="none" xmlns="http://www.w3.org/2000/svg">
<path d="M5.2966 11.2255L9.3693 15.0399L7.74091 16.5653L9.37161 18.0917L7.74206 19.617L4.88979 16.9471L1.62954 19.9989L0 18.4736L3.26024 15.4207L0.407962 12.7519L2.03751 11.2265L3.66705 12.7508L5.29544 11.2255H5.2966ZM0.62923 0L4.71577 0.00323627L18.3341 12.7519L19.9648 11.2265L21.5943 12.7519L18.7432 15.4218L22.0023 18.4736L20.3728 19.9989L17.1125 16.9471L14.2602 19.617L12.6307 18.0917L14.2602 16.5653L0.632687 3.80906L0.62923 0ZM17.29 0L21.3731 0.00323627L21.3754 3.80367L16.7046 8.17476L12.6295 4.36138L17.29 0Z" fill="white"/>
</svg>
