<svg width="19" height="24" viewBox="0 0 19 24" fill="none" xmlns="http://www.w3.org/2000/svg">
<path d="M15.0886 3.2124H4.38147V7.54475H15.0886V3.2124Z" fill="#F89501"/>
<path d="M15.0886 7.53886H4.38147V5.42869C5.92799 4.45612 7.76485 3.89026 9.73207 3.89026C11.6993 3.89026 13.5362 4.45612 15.0886 5.42869V7.53886Z" fill="#A86700"/>
<path d="M15.7191 20.3327C19.315 16.7556 19.315 10.9559 15.7191 7.37874C12.1231 3.8016 6.29292 3.8016 2.69697 7.37874C-0.898989 10.9559 -0.898988 16.7556 2.69697 20.3327C6.29292 23.9098 12.1231 23.9098 15.7191 20.3327Z" fill="#F69534"/>
<path d="M13.29 21.9805C17.9805 20.0259 20.19 14.6588 18.225 9.99285C16.2601 5.32691 10.8648 3.12899 6.17428 5.08367C1.48379 7.03835 -0.725687 12.4054 1.23927 17.0714C3.20424 21.7373 8.59955 23.9352 13.29 21.9805Z" fill="#F8B101"/>
<path d="M12.6052 20.3758C16.4037 18.7967 18.1961 14.4535 16.6087 10.6749C15.0214 6.89636 10.6553 5.11331 6.85683 6.69237C3.05838 8.27143 1.26594 12.6147 2.85331 16.3932C4.44068 20.1718 8.80675 21.9548 12.6052 20.3758Z" fill="#F89501"/>
<path d="M8.94406 7.04959C13.0622 7.04959 16.3982 10.3681 16.3982 14.4647C16.3982 16.0621 15.8886 17.5415 15.0235 18.7558C16.3626 17.4178 17.1862 15.5669 17.1862 13.5334C17.1862 9.43681 13.8503 6.11829 9.73214 6.11829C7.21978 6.11829 5.00369 7.35021 3.65271 9.24229C5.00369 7.88659 6.87611 7.04959 8.94406 7.04959Z" fill="#A86700"/>
<path d="M15.3672 3.45999H4.09711C3.36829 3.45999 2.77576 2.91771 2.77576 2.25754V1.20245C2.77576 0.536386 3.36829 0 4.09711 0H15.3672C16.096 0 16.6885 0.542281 16.6885 1.20245V2.25754C16.6885 2.9236 16.096 3.45999 15.3672 3.45999ZM4.09711 0.795738C3.85417 0.795738 3.65864 0.978463 3.65864 1.19655V2.25164C3.65864 2.46973 3.85417 2.65246 4.09711 2.65246H15.3672C15.6101 2.65246 15.8056 2.46973 15.8056 2.25164V1.19655C15.8056 0.978463 15.6101 0.795738 15.3672 0.795738H4.09711Z" fill="#F6AF3E"/>
<path d="M9.7321 8.72949L11.569 11.3937L14.6857 12.3074L12.7066 14.8714L12.7955 18.1015L9.7321 17.017L6.67462 18.1015L6.7635 14.8714L4.78442 12.3074L7.89524 11.3937L9.7321 8.72949Z" fill="white"/>
</svg>
