<svg width="19" height="24" viewBox="0 0 19 24" fill="none" xmlns="http://www.w3.org/2000/svg">
<path d="M15.0854 3.2338H4.3783V7.56614H15.0854V3.2338Z" fill="#B26B29"/>
<path d="M15.0854 7.56026H4.3783V5.45008C5.92482 4.47751 7.76168 3.91165 9.7289 3.91165C11.6961 3.91165 13.533 4.47751 15.0854 5.45008V7.56026Z" fill="#8B531C"/>
<path d="M15.7191 20.3466C19.315 16.7695 19.315 10.9698 15.7191 7.39268C12.1231 3.81555 6.29292 3.81555 2.69697 7.39268C-0.898989 10.9698 -0.898988 16.7695 2.69697 20.3466C6.29292 23.9238 12.1231 23.9238 15.7191 20.3466Z" fill="#AC6C2C"/>
<path d="M13.2975 22.0027C17.988 20.048 20.1975 14.6809 18.2325 10.015C16.2675 5.34903 10.8722 3.15112 6.18173 5.10579C1.49124 7.06047 -0.71824 12.4275 1.24672 17.0935C3.21168 21.7594 8.60699 23.9573 13.2975 22.0027Z" fill="#DC852F"/>
<path d="M12.6063 20.3945C16.4048 18.8154 18.1972 14.4722 16.6098 10.6936C15.0224 6.91507 10.6564 5.13202 6.85793 6.71108C3.05948 8.29014 1.26704 12.6334 2.85441 16.4119C4.44178 20.1905 8.80785 21.9736 12.6063 20.3945Z" fill="#B26B29"/>
<path d="M8.94675 7.07111C13.0649 7.07111 16.4009 10.3896 16.4009 14.4862C16.4009 16.0836 15.8913 17.5631 15.0262 18.7773C16.3653 17.4393 17.1889 15.5885 17.1889 13.5549C17.1889 9.45832 13.853 6.1398 9.73482 6.1398C7.22247 6.1398 5.00638 7.37172 3.6554 9.26381C5.00638 7.90811 6.8788 7.07111 8.94675 7.07111Z" fill="#8B531C"/>
<path d="M15.3698 3.47552H4.0998C3.37098 3.47552 2.77844 2.93324 2.77844 2.27307V1.21798C2.77844 0.55192 3.37098 0.0155334 4.0998 0.0155334H15.3698C16.0987 0.0155334 16.6912 0.557815 16.6912 1.21798V2.27307C16.6912 2.93913 16.0987 3.47552 15.3698 3.47552ZM4.0998 0.817166C3.85686 0.817166 3.66132 0.999891 3.66132 1.21798V2.27307C3.66132 2.49116 3.85686 2.67389 4.0998 2.67389H15.3698C15.6128 2.67389 15.8083 2.49116 15.8083 2.27307V1.21798C15.8083 0.999891 15.6128 0.817166 15.3698 0.817166H4.0998Z" fill="#BC783E"/>
<path d="M9.73486 8.75101L11.5717 11.4153L14.6825 12.3289L12.7035 14.887L12.7923 18.1171L9.73486 17.0385L6.67144 18.1171L6.76032 14.887L4.78125 12.3289L7.89799 11.4153L9.73486 8.75101Z" fill="white"/>
</svg>
