<svg width="19" height="24" viewBox="0 0 19 24" fill="none" xmlns="http://www.w3.org/2000/svg">
<path d="M15.0868 3.2419H4.37964V7.57425H15.0868V3.2419Z" fill="#949494"/>
<path d="M15.0868 7.56836H4.37964V5.45818C5.92616 4.48561 7.76302 3.91975 9.73024 3.91975C11.6975 3.91975 13.5343 4.48561 15.0868 5.45818V7.56836Z" fill="#787272"/>
<path d="M15.7191 20.3634C19.315 16.7863 19.315 10.9866 15.7191 7.40945C12.1231 3.83232 6.29292 3.83232 2.69697 7.40945C-0.898988 10.9866 -0.898989 16.7863 2.69697 20.3634C6.29292 23.9405 12.1231 23.9405 15.7191 20.3634Z" fill="#B3B3B3"/>
<path d="M13.2897 22.0065C17.9802 20.0518 20.1896 14.6847 18.2247 10.0188C16.2597 5.35286 10.8644 3.15495 6.17392 5.10962C1.48342 7.0643 -0.726053 12.4314 1.23891 17.0973C3.20387 21.7633 8.59918 23.9612 13.2897 22.0065Z" fill="#F8F8F8"/>
<path d="M12.607 20.4104C16.4055 18.8314 18.1979 14.4881 16.6106 10.7096C15.0232 6.93099 10.6571 5.14793 6.85866 6.72699C3.06021 8.30605 1.26777 12.6493 2.85514 16.4278C4.44251 20.2064 8.80858 21.9895 12.607 20.4104Z" fill="#949494"/>
<path d="M8.94211 7.07909C13.0602 7.07909 16.3962 10.3976 16.3962 14.4942C16.3962 16.0916 15.8866 17.571 15.0215 18.7853C16.3607 17.4473 17.1843 15.5964 17.1843 13.5629C17.1843 9.4663 13.8483 6.14778 9.73018 6.14778C7.21783 6.14778 5.00174 7.3797 3.65076 9.27179C5.00174 7.91609 6.87416 7.07909 8.94211 7.07909Z" fill="#787272"/>
<path d="M15.3652 3.48948H4.09516C3.36634 3.48948 2.7738 2.9472 2.7738 2.28703V1.23194C2.7738 0.565882 3.36634 0.0294952 4.09516 0.0294952H15.3652C16.094 0.0294952 16.6866 0.571776 16.6866 1.23194V2.28703C16.6866 2.9531 16.094 3.48948 15.3652 3.48948ZM4.09516 0.831128C3.85222 0.831128 3.65668 1.01385 3.65668 1.23194V2.28703C3.65668 2.50512 3.85222 2.68785 4.09516 2.68785H15.3652C15.6081 2.68785 15.8037 2.50512 15.8037 2.28703V1.23194C15.8037 1.01385 15.6081 0.831128 15.3652 0.831128H4.09516Z" fill="#787272"/>
<path d="M9.73015 8.75899L11.567 11.4232L14.6838 12.3369L12.7047 14.9009L12.7936 18.131L9.73015 17.0464L6.67266 18.131L6.76154 14.9009L4.78247 12.3369L7.89329 11.4232L9.73015 8.75899Z" fill="white"/>
</svg>
