<svg width="115" height="125" viewBox="0 0 115 125" fill="none" xmlns="http://www.w3.org/2000/svg">
<g id="Layer 1">
<g id="Group">
<path id="Vector" fill-rule="evenodd" clip-rule="evenodd" d="M58.5555 62.9678L4.62207 53.8542C10.0126 72.2517 14.8476 91.3912 18.4867 109.519C18.5919 110.014 18.969 110.362 19.439 110.476L69.37 122.99C70.0287 123.153 70.6926 123.172 71.3068 123.042C71.921 122.911 72.5196 122.623 73.0551 122.206L113.579 90.4655C113.976 90.1494 114.179 89.6783 114.06 89.2042C110.008 71.1465 106.64 51.695 104.085 32.7127L58.5214 62.975L58.5555 62.9678Z" fill="#0068FF"/>
<path id="Vector_2" fill-rule="evenodd" clip-rule="evenodd" d="M58.5555 62.9678L4.62207 53.8542C10.0126 72.2517 14.8476 91.3912 18.4867 109.519C18.5919 110.014 18.969 110.362 19.439 110.476L69.37 122.99C70.0287 123.153 70.6926 123.172 71.3068 123.042L58.5384 62.9714L58.5555 62.9678Z" fill="url(#paint0_radial_1269_596)"/>
<g id="Group_2" style="mix-blend-mode:screen" opacity="0.65">
<path id="Vector_3" fill-rule="evenodd" clip-rule="evenodd" d="M58.5555 62.9678L4.62207 53.8542C10.0126 72.2517 14.8476 91.3912 18.4867 109.519C18.5919 110.014 18.969 110.362 19.439 110.476L69.37 122.99C70.0287 123.153 70.6926 123.172 71.3068 123.042L58.5384 62.9714L58.5555 62.9678Z" fill="url(#paint1_radial_1269_596)"/>
</g>
<path id="Vector_4" fill-rule="evenodd" clip-rule="evenodd" d="M58.5559 62.9678L104.12 32.7054C106.678 51.7048 110.046 71.1563 114.095 89.197C114.2 89.6917 113.997 90.1628 113.614 90.4582L73.0895 122.199C72.5541 122.616 71.9555 122.904 71.3413 123.034L58.5729 62.9641L58.5559 62.9678Z" fill="url(#paint2_radial_1269_596)"/>
<path id="Vector_5" style="mix-blend-mode:screen" opacity="0.3" fill-rule="evenodd" clip-rule="evenodd" d="M76.7144 115.598C77.8939 114.687 78.5009 112.258 78.0792 110.19C77.6404 108.126 76.3495 107.17 75.1529 108.084C73.9528 108.981 73.3457 111.41 73.7882 113.492C74.2306 115.573 75.5385 116.525 76.7144 115.598ZM84.1707 101.014C84.9537 100.419 85.3827 98.8304 85.0962 97.4826C84.8098 96.1348 83.9642 95.5122 83.1811 96.1066C82.398 96.701 81.9825 98.2693 82.2519 99.6207C82.5384 100.968 83.384 101.591 84.167 100.997L84.1707 101.014ZM77.2836 100.659C77.9008 100.207 78.2245 98.9611 77.9996 97.9033C77.7748 96.8456 77.1019 96.3645 76.4848 96.8166C75.8676 97.2688 75.5403 98.4974 75.7688 99.5722C75.9936 100.63 76.6494 101.115 77.2666 100.663L77.2836 100.659ZM69.5782 90.5815C70.4295 89.9726 70.8611 88.3117 70.5528 86.8616C70.2482 85.4285 69.3163 84.735 68.465 85.3439C67.6137 85.9528 67.1651 87.6173 67.4733 89.0675C67.7815 90.5176 68.7099 91.194 69.5612 90.5851L69.5782 90.5815ZM77.2643 90.2495C78.3766 89.4425 78.9626 87.2495 78.5807 85.3692C78.1989 83.4889 76.9943 82.6037 75.882 83.4107C74.7661 84.2007 74.1802 86.3937 74.5656 88.2911C74.9681 90.1848 76.1691 91.0529 77.2814 90.2459L77.2643 90.2495ZM88.6653 104.962C89.1703 104.569 89.4351 103.55 89.2672 102.677C89.0823 101.806 88.5543 101.419 88.0493 101.812C87.5443 102.205 87.2759 103.207 87.4437 104.081C87.6287 104.951 88.1604 105.355 88.6653 104.962ZM102.642 94.9656C103.605 94.2083 104.139 92.2759 103.842 90.6272C103.545 88.9785 102.5 88.2556 101.534 88.9959C100.568 89.7362 100.037 91.6856 100.334 93.3343C100.648 94.9794 101.68 95.723 102.642 94.9656ZM70.5189 78.6485C71.1568 78.2098 71.4877 76.9983 71.2799 75.9369C71.0551 74.8791 70.3786 74.381 69.7407 74.8197C69.1029 75.2584 68.772 76.47 68.9968 77.5277C69.2217 78.5855 69.9018 79.1007 70.536 78.6449L70.5189 78.6485ZM66.5574 69.826C67.555 69.1503 68.0929 67.235 67.7412 65.5801C67.3858 63.9082 66.3054 63.1036 65.3078 63.7793C64.3102 64.4549 63.7722 66.3702 64.1276 68.0422C64.483 69.7141 65.5634 70.5187 66.561 69.843L66.5574 69.826ZM74.3666 72.3386C75.235 71.7261 75.7043 70.075 75.4131 68.6212C75.1219 67.1674 74.19 66.474 73.3216 67.0865C72.4532 67.699 71.9876 69.3672 72.2787 70.8209C72.587 72.2711 73.519 72.9646 74.3703 72.3557L74.3666 72.3386ZM75.0081 63.1083C76.0971 62.3597 76.6914 60.2897 76.3277 58.4947C75.964 56.6998 74.7801 55.828 73.6874 56.5596C72.5947 57.2911 72.0005 59.361 72.3678 61.1731C72.7351 62.9851 73.919 63.8569 75.0081 63.1083ZM84.2392 90.5144C85.0698 89.8921 85.522 88.2446 85.2552 86.8213C84.9713 85.4017 84.0672 84.7558 83.233 85.361C82.3987 85.9663 81.9294 87.6174 82.217 89.0541C82.5009 90.4738 83.4086 91.1367 84.2392 90.5144ZM108.638 87.7712C109.817 86.8607 110.497 84.5229 110.145 82.5294C109.793 80.5359 108.537 79.6616 107.337 80.5586C106.136 81.4556 105.464 83.8276 105.833 85.8175C106.203 87.8074 107.458 88.6817 108.638 87.7712ZM83.6554 111.341C84.1603 110.948 84.4215 109.912 84.2536 109.038C84.0687 108.168 83.52 107.768 83.015 108.16C82.51 108.553 82.2488 109.589 82.4338 110.459C82.6187 111.329 83.1674 111.73 83.6724 111.337L83.6554 111.341ZM102.35 66.9969C102.855 66.6042 103.116 65.568 102.948 64.6943C102.763 63.8242 102.214 63.4237 101.709 63.8163C101.205 64.209 100.943 65.2452 101.128 66.1153C101.313 66.9854 101.862 67.3859 102.367 66.9932L102.35 66.9969ZM82.861 61.2964C83.5599 60.8091 83.9543 59.477 83.7382 58.2926C83.5087 57.1289 82.7458 56.5599 82.0299 57.0509C81.3141 57.5418 80.9367 58.8703 81.1698 60.0511C81.3993 61.2148 82.1622 61.7837 82.861 61.2964ZM98.91 86.7184C99.693 86.124 100.129 84.5691 99.8842 83.2482C99.6391 81.9273 98.7971 81.3217 97.997 81.9197C97.2139 82.5141 96.7777 84.069 97.0228 85.3899C97.2679 86.7109 98.1099 87.3165 98.8929 86.7221L98.91 86.7184ZM70.105 102.791C70.6271 102.395 70.9017 101.338 70.7059 100.417C70.51 99.4953 69.9235 99.085 69.3979 99.4642C68.8758 99.8605 68.5976 100.9 68.7934 101.822C68.9892 102.743 69.5794 103.17 70.1014 102.774L70.105 102.791ZM90.9927 59.6215C91.9867 58.9287 92.5355 57.0646 92.2422 55.433C91.9318 53.805 90.8794 53.0479 89.8818 53.7236C88.8878 54.4163 88.3219 56.2841 88.6323 57.9121C88.9427 59.5401 89.9951 60.2971 90.9891 59.6044L90.9927 59.6215ZM103.736 76.1173C104.827 75.2968 105.462 73.1648 105.125 71.3284C104.788 69.4921 103.636 68.6849 102.524 69.492C101.411 70.299 100.797 72.4444 101.134 74.2808C101.471 76.1172 102.644 76.9377 103.736 76.1173ZM103.73 60.5696C104.951 59.686 105.655 57.3787 105.302 55.3851C104.95 53.3916 103.653 52.4904 102.425 53.3399C101.2 54.2065 100.496 56.5137 100.852 58.5243C101.225 60.5313 102.505 61.4361 103.73 60.5696ZM98.5856 51.5526C99.8003 50.7238 100.495 48.4542 100.15 46.4948C99.7874 44.539 98.5074 43.6342 97.2891 44.446C96.0744 45.2748 95.3763 47.5273 95.7251 49.5037C96.0909 51.4766 97.3709 52.3814 98.5856 51.5526ZM61.4649 76.7393L62.9734 83.8365C63.6953 82.7023 64.0052 80.889 63.6607 79.2682C63.3162 77.6474 62.4188 76.697 61.4649 76.7393ZM86.0064 45.81C86.2323 46.9566 87.6559 48.7047 88.8535 47.8795C90.0548 47.0714 90.5861 44.0341 90.3808 42.9009C90.1756 41.7676 90.226 42.2562 90.1095 41.96C88.7046 42.9005 87.2961 43.824 85.9083 44.7609C85.9125 45.1167 85.7805 44.6633 86.0064 45.81ZM100.992 37.4536C101.599 37.0392 102.231 37.4934 102.403 38.4732C102.576 39.4529 102.227 40.5791 101.619 40.9935C101.012 41.4079 100.377 40.9366 100.191 39.9776C100.022 39.015 100.371 37.8887 100.978 37.4743L100.992 37.4536Z" fill="url(#paint3_radial_1269_596)"/>
<path id="Vector_6" fill-rule="evenodd" clip-rule="evenodd" d="M20.6313 105.764C16.8807 90.8878 11.2665 67.8305 7.44336 63.686C11.6951 78.991 15.509 94.5852 18.5006 109.498C18.6057 109.993 18.9828 110.341 19.4528 110.455L55.3159 119.451C46.3797 116.25 28.555 111.248 22.8045 108.69C20.8338 107.808 21.1129 107.695 20.6276 105.747L20.6313 105.764Z" fill="url(#paint4_radial_1269_596)"/>
<path id="Vector_7" style="mix-blend-mode:screen" opacity="0.3" fill-rule="evenodd" clip-rule="evenodd" d="M11.7271 59.5123C13.208 59.7681 14.7899 61.5895 15.2787 63.554C15.7506 65.5222 14.9601 66.9206 13.472 66.6306C11.9875 66.3577 10.4092 64.5534 9.92033 62.5889C9.43144 60.6244 10.2426 59.2394 11.7271 59.5123ZM24.7401 68.8895C25.707 69.0762 26.7514 70.2986 27.0684 71.6221C27.3854 72.9455 26.8284 73.8485 25.8615 73.6617C24.8945 73.475 23.8501 72.2526 23.5368 70.9462C23.2234 69.6398 23.7561 68.7063 24.7401 68.8895ZM18.5536 72.1659C19.3147 72.3073 20.1196 73.2417 20.3713 74.2581C20.623 75.2745 20.204 75.9876 19.4393 75.8292C18.6745 75.6708 17.8696 74.7364 17.635 73.7163C17.3833 72.7 17.8059 72.0039 18.55 72.1488L18.5536 72.1659ZM17.0041 84.6741C18.0295 84.8841 19.1261 86.1845 19.4674 87.5385C19.7953 88.9131 19.2419 89.8332 18.2336 89.6195C17.2046 89.3925 16.1152 88.1262 15.7873 86.7515C15.4424 85.3805 15.9922 84.4434 17.0212 84.6705L17.0041 84.6741ZM24.7992 81.7512C26.1436 82.036 27.5905 83.7256 28.0162 85.5609C28.4384 87.3791 27.7212 88.6192 26.3768 88.3344C25.0324 88.0496 23.599 86.3393 23.1598 84.5247C22.7206 82.7101 23.4548 81.4663 24.8163 81.7475L24.7992 81.7512ZM29.5574 60.4298C30.1882 60.5454 30.8715 61.3274 31.0699 62.1768C31.2549 63.0469 30.9164 63.6359 30.2892 63.5374C29.6584 63.4219 28.9921 62.6363 28.7938 61.7869C28.5954 60.9375 28.9436 60.3107 29.5744 60.4262L29.5574 60.4298ZM40.3903 62.9061C41.5935 63.1139 42.881 64.6412 43.2571 66.3266C43.6295 67.9949 42.9527 69.173 41.7495 68.9651C40.5426 68.7402 39.2551 67.2129 38.8827 65.5446C38.5102 63.8763 39.187 62.6982 40.3903 62.9061ZM24.6001 95.3275C25.3478 95.4895 26.16 96.4581 26.4117 97.4745C26.6634 98.4909 26.2371 99.1699 25.5065 99.0043C24.7551 98.8252 23.9466 97.8736 23.712 96.8536C23.4639 95.8543 23.8695 95.1618 24.6172 95.3239L24.6001 95.3275ZM20.417 101.905C21.8819 102.253 23.4575 104.129 23.9294 106.098C24.4012 108.066 23.6097 109.375 22.1618 109.023C20.714 108.671 19.1347 106.778 18.6494 104.83C18.1641 102.883 18.9557 101.574 20.417 101.905ZM31.3414 94.6613C32.3704 94.8884 33.4914 96.2193 33.8301 97.6451C34.1652 99.0539 33.6057 100.029 32.556 99.7882C31.5234 99.5441 30.4195 98.2096 30.0844 96.8008C29.7493 95.392 30.3125 94.4343 31.3451 94.6784L31.3414 94.6613ZM31.3762 106.066C32.2614 106.288 33.2195 107.44 33.5147 108.661C33.8099 109.882 33.3237 110.698 32.4385 110.476C31.5532 110.254 30.5952 109.103 30.3 107.882C30.0047 106.661 30.4946 105.861 31.3798 106.083L31.3762 106.066ZM31.5885 77.1162C32.6139 77.3262 33.7069 78.6096 34.025 80.022C34.343 81.4344 33.7798 82.3922 32.7715 82.1785C31.7462 81.9685 30.6531 80.6852 30.3217 79.2935C29.9902 77.9018 30.5668 76.9233 31.5921 77.1333L31.5885 77.1162ZM51.5151 64.9101C52.9959 65.1659 54.5545 67.0457 55.014 69.1235C55.4564 71.2049 54.6257 72.6653 53.1448 72.4095C51.6602 72.1366 50.098 70.2397 49.6422 68.179C49.2034 66.1147 50.0342 64.6543 51.5151 64.9101ZM19.9843 60.0218C20.6152 60.1373 21.2985 60.9193 21.4969 61.7687C21.6953 62.6181 21.3568 63.2071 20.726 63.0916C20.0952 62.976 19.4155 62.2111 19.2171 61.3617C19.0187 60.5123 19.3571 59.9233 19.9843 60.0218ZM38.5733 91.2697C39.9932 91.5741 41.4861 93.3966 41.9373 95.3513C42.3884 97.306 41.6005 98.6325 40.1941 98.3074C38.7876 97.9822 37.2776 96.1634 36.8301 94.2258C36.3826 92.2881 37.1534 90.9652 38.5733 91.2697ZM39.846 105.478C40.8957 105.719 42.0141 107.122 42.3564 108.564C42.6817 110.011 42.1186 110.969 41.0689 110.728C40.0156 110.471 38.9044 109.102 38.5621 107.659C38.2197 106.216 38.7963 105.238 39.846 105.478ZM41.6038 84.1349C42.3685 84.2933 43.1636 85.2655 43.4019 86.3026C43.6402 87.3397 43.2248 88.0699 42.46 87.9115C41.7123 87.7495 40.9002 86.7809 40.6619 85.7438C40.4407 84.7031 40.839 83.9765 41.5867 84.1385L41.6038 84.1349ZM46.7259 74.0057C47.6929 74.1924 48.7238 75.4355 49.0274 76.7796C49.3175 78.1445 48.7848 79.0779 47.8008 78.8948C46.8339 78.708 45.8029 77.465 45.4994 76.1208C45.2129 74.7731 45.742 73.8225 46.7089 74.0093L46.7259 74.0057ZM35.0682 68.6556C36.5528 68.9285 38.1077 70.7912 38.577 72.8313C39.0463 74.8713 38.2217 76.2769 36.7372 76.004C35.2661 75.7104 33.6941 73.8513 33.2284 71.8284C32.7628 69.8054 33.5837 68.3827 35.0682 68.6556ZM11.1186 73.1757C11.7701 73.3047 12.4741 74.1001 12.6761 74.9665C12.8952 75.8294 12.5361 76.405 11.8846 76.276C11.233 76.147 10.5461 75.348 10.327 74.4851C10.108 73.6223 10.4634 73.0296 11.1149 73.1586L11.1186 73.1757ZM50.4412 102.138C51.6212 102.405 52.8611 103.96 53.2299 105.611C53.5988 107.263 52.9586 108.361 51.775 108.078C50.5914 107.795 49.3514 106.24 48.9862 104.605C48.621 102.971 49.2612 101.872 50.4412 102.138ZM49.3115 93.5521C50.3746 93.7719 51.4894 95.1576 51.8049 96.6418C52.1204 98.1261 51.5474 99.1216 50.5013 98.8982C49.4553 98.6748 48.3235 97.2927 47.9909 95.812C47.6754 94.3278 48.2484 93.3322 49.3115 93.5521ZM52.996 82.7833C54.3368 83.0511 55.7811 84.8125 56.1836 86.7063C56.5862 88.6 55.8287 89.9022 54.4843 89.6173C53.1399 89.3325 51.7163 87.5845 51.3004 85.7115C50.8978 83.8177 51.6382 82.5192 52.979 82.7869L52.996 82.7833ZM60.5227 88.2447C61.1572 88.3773 61.8136 89.2007 62.0022 90.0878C62.1907 90.975 61.8389 91.5847 61.2081 91.4691C60.5736 91.3365 59.9172 90.5132 59.7286 89.626C59.54 88.7389 59.8919 88.1291 60.5227 88.2447ZM59.1208 97.6723C60.5785 97.9866 62.1345 99.9383 62.594 102.016C63.0364 104.097 62.2154 105.52 60.7541 105.189C59.2929 104.857 57.7368 102.906 57.281 100.845C56.8422 98.7808 57.6461 97.3617 59.1208 97.6723ZM57.6434 107.08C58.8064 107.35 60.0256 108.892 60.3908 110.526C60.739 112.164 60.1024 113.28 58.9566 113.007C57.8107 112.733 56.5707 111.178 56.2056 109.544C55.8574 107.906 56.4976 106.807 57.6434 107.08ZM66.1971 115.444C66.9484 115.623 67.7337 116.633 67.9622 117.708C68.1906 118.783 67.7716 119.496 67.0203 119.317C66.286 119.134 65.48 118.111 65.2552 117.053C65.0267 115.978 65.4458 115.265 66.18 115.448L66.1971 115.444ZM62.9907 83.8329L61.4822 76.7357C61.1512 76.5207 61.3937 76.487 60.4852 76.3235C59.5767 76.16 58.1699 77.511 58.6293 79.5888C59.0717 81.6702 61.2002 83.7142 62.1123 83.8947C63.0038 84.0619 62.7457 83.9384 63.0114 83.8463L62.9907 83.8329ZM53.7681 119.049C53.1728 117.339 51.8682 115.815 50.6091 115.512C49.3671 115.205 48.6162 116.203 48.7792 117.809C50.4365 118.223 52.0938 118.638 53.751 119.052L53.7681 119.049Z" fill="url(#paint5_radial_1269_596)"/>
<g id="Group_3" style="mix-blend-mode:multiply" opacity="0.8">
<path id="Vector_8" fill-rule="evenodd" clip-rule="evenodd" d="M8.43975 67.2009C19.4605 66.5345 46.1748 72.0009 61.5897 77.1586L58.5726 62.9642L4.63916 53.8506L8.43975 67.2009Z" fill="url(#paint6_radial_1269_596)"/>
</g>
<path id="Vector_9" fill-rule="evenodd" clip-rule="evenodd" d="M1.02299 44.7225L4.98749 60.6057C5.11334 61.1139 5.51472 61.4922 6.0323 61.5783L59.2081 71.4056C60.0069 71.5568 60.7576 71.3972 61.426 70.9342L106.007 40.328C106.441 40.0217 106.658 39.5299 106.566 39.0145L103.728 22.892C103.637 22.4655 103.315 22.1238 102.876 22.0744L49.5557 15.8441C48.8809 15.7736 48.2838 15.9005 47.6961 16.2394L1.51939 43.6185C1.13895 43.842 0.962824 44.2717 1.07417 44.7117L1.02299 44.7225Z" fill="#0068FF"/>
<path id="Vector_10" fill-rule="evenodd" clip-rule="evenodd" d="M4.98414 60.589C5.10999 61.0972 5.50774 61.4584 6.01189 61.5652L59.1877 71.3926C59.5956 71.4663 59.9684 71.4584 60.3437 71.3786L56.5216 53.3968L1.08656 44.014C0.986343 44.2136 0.965242 44.4499 1.01238 44.6717L4.97689 60.5549L4.98414 60.589Z" fill="url(#paint7_radial_1269_596)"/>
<g id="Group_4" style="mix-blend-mode:screen" opacity="0.4">
<path id="Vector_11" fill-rule="evenodd" clip-rule="evenodd" d="M4.98389 60.589C5.10974 61.0972 5.50749 61.4584 6.01164 61.5652L59.1874 71.3926C59.5954 71.4663 59.9682 71.4584 60.3435 71.3786C55.9716 70.5248 39.1655 66.8753 26.1348 64.5453C15.3838 62.6223 9.95783 62.0103 7.35176 61.4944C5.06112 61.0362 4.98389 60.589 4.98389 60.589Z" fill="url(#paint8_radial_1269_596)"/>
</g>
<path id="Vector_12" style="mix-blend-mode:screen" opacity="0.4" fill-rule="evenodd" clip-rule="evenodd" d="M3.45534 47.8613C3.13581 46.6097 3.73417 45.7336 4.77297 45.9229C5.80814 46.0952 6.89284 47.2554 7.21237 48.5071C7.51484 49.7623 6.93354 50.6348 5.89475 50.4454C4.85957 50.2732 3.77124 49.0958 3.4724 47.8577L3.45534 47.8613ZM11.8331 53.5519C11.3939 51.7373 12.2512 50.4852 13.7321 50.741C15.2129 50.9968 16.7828 52.6781 17.205 54.4963C17.6442 56.3109 16.7869 57.563 15.3061 57.3072C13.8215 57.0343 12.2723 55.3665 11.8161 53.5555L11.8331 53.5519ZM7.85396 58.3206C7.66646 57.5224 8.03281 56.9809 8.6807 57.0928C9.32859 57.2047 10.0217 57.949 10.2227 58.7265C10.4102 59.5247 10.0438 60.0662 9.39592 59.9543C8.74803 59.8424 8.0549 59.0981 7.85034 58.3035L7.85396 58.3206ZM27.8444 60.5086C27.4331 58.7416 28.2599 57.5138 29.6896 57.7805C31.1157 58.0301 32.6064 59.6747 33.0177 61.4418C33.429 63.2088 32.6022 64.4366 31.1725 64.1699C29.7428 63.9032 28.2557 62.2757 27.8444 60.5086ZM19.5417 51.3963C19.2392 50.141 19.851 49.2442 20.8691 49.4201C21.9043 49.5924 22.9756 50.7734 23.2817 52.0456C23.5878 53.3179 22.9894 54.194 21.9542 54.0218C20.9191 53.8495 19.8307 52.6722 19.5417 51.3963ZM20.6804 60.4444C20.4965 59.6632 20.8628 59.1217 21.4937 59.2373C22.1245 59.3528 22.7933 60.0666 22.9772 60.8477C23.1611 61.6289 22.7947 62.1704 22.1639 62.0548C21.5331 61.9393 20.8606 61.2085 20.6804 60.4444ZM34.5319 49.69C32.4408 49.3321 30.3498 48.9741 28.2417 48.6198C28.262 48.883 28.0657 48.2114 28.361 49.4325C28.6427 50.6743 30.6966 53.6257 32.4758 53.9429C34.2551 54.2602 35.0632 51.7703 34.7814 50.5285C34.5167 49.2831 34.6276 49.9728 34.5319 49.69ZM36.8243 59.3845C36.5244 58.0574 37.146 57.1228 38.2225 57.322C39.2954 57.504 40.3946 58.7325 40.6982 60.0767C40.981 61.4074 40.3765 62.3383 39.2999 62.1392C38.227 61.9571 37.1242 60.7116 36.8243 59.3845ZM43.0385 55.5672C42.7012 53.9806 43.4303 52.8805 44.7054 53.091C45.9805 53.3014 47.2912 54.7702 47.6456 56.3532C47.9828 57.9399 47.2367 59.0435 45.9786 58.8295C44.6999 58.602 43.4098 57.1466 43.0555 55.5636L43.0385 55.5672ZM44.9556 65.3414C44.7525 64.386 45.1994 63.7204 45.9435 63.8654C46.7046 64.0068 47.4987 64.89 47.6981 65.8284C47.9012 66.7838 47.4713 67.4457 46.7102 67.3044C45.949 67.163 45.155 66.2798 44.9556 65.3414ZM50.1028 62.1254C49.606 59.7881 50.6844 58.1502 52.5562 58.4834C54.4244 58.7996 56.3491 60.976 56.8496 63.3304C57.35 65.6847 56.251 67.3092 54.3792 66.976C52.5244 66.6391 50.5996 64.4627 50.0858 62.129L50.1028 62.1254Z" fill="url(#paint9_radial_1269_596)"/>
<path id="Vector_13" fill-rule="evenodd" clip-rule="evenodd" d="M1.08995 44.0311L56.525 53.4138L103.351 22.2948C103.203 22.1837 103.024 22.0969 102.822 22.0686L49.5009 15.8383C48.8262 15.7677 48.2291 15.8947 47.6413 16.2336L1.46463 43.6126C1.29147 43.7208 1.15968 43.8558 1.07289 44.0347L1.08995 44.0311Z" fill="url(#paint10_radial_1269_596)"/>
<path id="Vector_14" fill-rule="evenodd" clip-rule="evenodd" d="M4.98396 60.589C5.11642 57.1015 2.74166 47.1036 3.42128 46.4421C3.99599 45.8741 24.5414 48.4078 30.8882 49.0737C26.0561 48.068 4.13025 44.2408 3.9997 43.6266C3.83652 42.8588 21.2172 32.0141 23.0501 30.8221L1.46468 43.6126C1.08424 43.8362 0.90811 44.2659 1.01945 44.7058L4.98396 60.589Z" fill="url(#paint11_radial_1269_596)"/>
<path id="Vector_15" style="mix-blend-mode:screen" opacity="0.5" fill-rule="evenodd" clip-rule="evenodd" d="M13.6878 39.9625C14.9718 39.2081 17.197 38.7708 18.6742 39.0096C20.1685 39.2447 20.3426 40.0636 19.0622 40.835C17.7819 41.6065 15.5531 42.0267 14.0588 41.7916C12.5645 41.5564 12.4075 40.7339 13.6708 39.9661L13.6878 39.9625ZM28.8746 34.9869C29.7136 34.4876 31.1844 34.1928 32.1575 34.3248C33.1343 34.4738 33.2467 35.0027 32.4114 35.519C31.5761 36.0354 30.1052 36.3302 29.1285 36.1812C28.1517 36.0321 28.0393 35.5033 28.8746 34.9869ZM26.04 39.3519C26.6851 38.9473 27.8354 38.7384 28.6064 38.842C29.3809 38.9627 29.4509 39.3758 28.8058 39.7804C28.1607 40.185 27.014 40.4109 26.2565 40.2866C25.499 40.1623 25.3949 39.7565 26.0571 39.3482L26.04 39.3519ZM32.0497 43.5487C32.9325 43.0044 34.4887 42.6915 35.5202 42.8467C36.5554 43.0189 36.6787 43.599 35.7958 44.1433C34.9166 44.7046 33.3605 45.0176 32.3253 44.8453C31.2901 44.673 31.1668 44.093 32.0497 43.5487ZM36.1858 38.176C37.3504 37.4471 39.3671 37.0362 40.7312 37.2456C42.0952 37.4549 42.2547 38.2056 41.0902 38.9346C39.9256 39.6635 37.8747 40.0816 36.5277 39.8687C35.1637 39.6593 35.0212 38.905 36.1687 38.1797L36.1858 38.176ZM27.7642 30.2658C28.3007 29.9378 29.2597 29.7518 29.904 29.8467C30.5312 29.9452 30.6001 30.2693 30.0635 30.5973C29.527 30.9254 28.568 31.1114 27.9237 31.0165C27.2965 30.918 27.2276 30.5939 27.7642 30.2658ZM37.4004 24.8475C38.443 24.2157 40.2721 23.8448 41.4681 24.0185C42.6775 24.1716 42.8117 24.8028 41.7691 25.4345C40.7265 26.0663 38.8974 26.4372 37.705 26.2805C36.492 26.1104 36.3578 25.4792 37.4004 24.8475ZM43.7727 41.8237C44.4178 41.4191 45.5608 41.1761 46.3147 41.2833C47.0893 41.404 47.1629 41.8341 46.5178 42.2387C45.8727 42.6433 44.7296 42.8863 43.9758 42.779C43.2012 42.6584 43.1276 42.2282 43.7727 41.8237ZM44.4989 46.1628C45.772 45.3573 47.9899 44.8858 49.4671 45.1246C50.9614 45.3597 51.1428 46.2128 49.8733 47.0354C48.6038 47.858 46.3823 48.3124 44.8879 48.0772C43.39 47.825 43.2087 46.972 44.4818 46.1664L44.4989 46.1628ZM48.3772 37.564C49.2735 36.999 50.8601 36.6617 51.9087 36.8133C52.9573 36.9649 53.0635 37.5486 52.1879 38.127C51.2916 38.6919 49.7221 39.0256 48.6735 38.874C47.6248 38.7224 47.4809 38.1289 48.3942 37.5603L48.3772 37.564ZM54.8982 40.4753C55.6689 39.9905 57.013 39.6869 57.935 39.8298C58.8398 39.9762 58.962 40.4673 58.1779 40.9728C57.4108 41.4747 56.046 41.7648 55.1411 41.6183C54.2363 41.4718 54.1275 40.96 54.8982 40.4753ZM38.6354 33.0905C39.5183 32.5462 41.0574 32.2369 42.0853 32.3751C43.1168 32.5303 43.2536 33.0896 42.3536 33.6375C41.4708 34.1818 39.9146 34.4948 38.8867 34.3566C37.8552 34.2014 37.7355 33.6384 38.6184 33.0941L38.6354 33.0905ZM46.9921 19.1354C48.2725 18.364 50.494 17.9096 51.9738 18.0765C53.4536 18.2434 53.6168 19.0112 52.3364 19.7826C51.0561 20.554 48.8382 21.0254 47.3718 20.8378C45.8884 20.6539 45.7252 19.8862 47.0056 19.1147L46.9921 19.1354ZM20.2259 35.4879C20.7625 35.1599 21.7215 34.9739 22.3657 35.0687C22.9929 35.1672 23.0655 35.5084 22.5289 35.8365C21.9924 36.1645 21.0334 36.3505 20.3891 36.2556C19.7619 36.1571 19.6894 35.8159 20.2259 35.4879ZM51.8112 32.4119C53.0404 31.6513 55.173 31.198 56.6052 31.3929C58.0375 31.5877 58.1873 32.3761 56.9788 33.1501C55.7703 33.9241 53.6206 34.381 52.1847 34.1691C50.7525 33.9743 50.582 33.1724 51.8112 32.4119ZM60.7653 35.1091C61.675 34.5234 63.258 34.1691 64.3444 34.3305C65.4101 34.4785 65.554 35.072 64.6272 35.6612C63.7175 36.2469 62.1004 36.6085 61.0311 36.4435C59.9654 36.2955 59.8556 35.6948 60.7482 35.1127L60.7653 35.1091ZM50.0932 28.9433C50.7383 28.5387 51.8814 28.2957 52.6353 28.403C53.3891 28.5102 53.4762 28.9196 52.8311 29.3242C52.186 29.7288 51.0429 29.9718 50.289 29.8645C49.5352 29.7573 49.4481 29.3479 50.0932 28.9433ZM48.344 23.7339C49.1793 23.2175 50.6636 22.902 51.6367 23.034C52.6098 23.1659 52.7186 23.6778 51.8833 24.1941C51.048 24.7104 49.5808 25.0223 48.6077 24.8904C47.6345 24.7584 47.5087 24.2502 48.3611 23.7302L48.344 23.7339ZM36.5382 29.0963C37.8186 28.3248 40.0401 27.8705 41.5101 28.0751C42.9801 28.2798 43.1676 29.078 41.8873 29.8494C40.6069 30.6209 38.389 31.0923 36.9154 30.8706C35.4454 30.6659 35.2579 29.8677 36.5382 29.0963ZM21.022 43.9312C21.5891 43.5789 22.5652 43.3893 23.2131 43.5012C23.878 43.6095 23.9542 43.9678 23.3871 44.3201C22.8201 44.6724 21.844 44.8621 21.1961 44.7502C20.5312 44.6419 20.455 44.2836 21.022 43.9312ZM65.6785 29.7852C66.7004 29.1401 68.5052 28.7386 69.6805 28.8989C70.8728 29.0556 70.9936 29.7075 69.9924 30.3661C68.9741 31.0284 67.2034 31.4226 66.0074 31.2488C64.8151 31.0921 64.6737 30.4268 65.6956 29.7816L65.6785 29.7852ZM61.0937 26.5872C62.007 26.0186 63.6071 25.6607 64.6728 25.8086C65.7348 25.9395 65.8581 26.5196 64.9484 27.1052C64.035 27.6738 62.4349 28.0318 61.3693 27.8838C60.3036 27.7359 60.1839 27.1729 61.0937 26.5872ZM57.9058 22.0759C59.074 21.364 61.1177 20.9117 62.4744 21.087C63.8276 21.2451 63.9628 21.9653 62.8153 22.6907C61.6508 23.4197 59.6205 23.8512 58.2674 23.693C56.9106 23.5178 56.7583 22.8013 57.9265 22.0893L57.9058 22.0759ZM70.6852 21.7133C71.9583 20.9077 74.1726 20.4193 75.6524 20.5862C77.1358 20.7701 77.2856 21.5585 76.0295 22.3605C74.7564 23.166 72.5458 23.6716 71.0794 23.484C69.5959 23.3 69.4291 22.5152 70.7023 21.7097L70.6852 21.7133ZM74.7503 24.6473C75.7551 24.0058 77.5258 23.6116 78.6975 23.7548C79.8691 23.8981 79.9899 24.55 79.0021 25.1879C77.9972 25.8295 76.2473 26.2371 75.072 26.0768C73.9003 25.9335 73.7625 25.2852 74.7674 24.6437L74.7503 24.6473ZM85.4646 22.9584C86.1061 22.5367 87.2625 22.2731 88.0298 22.3596C88.7801 22.4498 88.8671 22.8592 88.2257 23.2809C87.5842 23.7025 86.4448 23.9625 85.6945 23.8724C84.9443 23.7822 84.8402 23.3764 85.4987 22.9511L85.4646 22.9584ZM76.8215 28.1835C78.0739 27.3645 80.3052 26.8724 81.7716 27.06C83.238 27.2476 83.4291 28.0628 82.1596 28.8855C80.9072 29.7044 78.6624 30.2172 77.1754 30.0162C75.7053 29.8116 75.5313 28.9927 76.7873 28.1907L76.8215 28.1835ZM70.9471 33.5155C71.9958 32.829 73.8689 32.413 75.1026 32.5966C76.3327 32.763 76.4814 33.4625 75.4326 34.1491C74.3838 34.8356 72.5278 35.2479 71.2978 35.0815C70.064 34.8979 69.8983 34.202 70.9678 33.5289L70.9471 33.5155ZM58.717 44.264C59.7658 43.5775 61.6083 43.1858 62.8457 43.3865C64.0794 43.57 64.2317 44.2865 63.1829 44.9731C62.1341 45.6596 60.2952 46.0683 59.0543 45.8507C57.8169 45.65 57.6682 44.9506 58.717 44.264ZM65.8684 38.7319C67.372 37.7525 70.0128 37.1734 71.7775 37.4224C73.5422 37.6714 73.7562 38.6779 72.2562 39.6744C70.7562 40.6708 68.0983 41.2536 66.33 40.9875C64.5616 40.7215 64.3647 39.7113 65.8513 38.7355L65.8684 38.7319ZM83.2271 30.8875C84.1197 30.3054 85.6991 29.9341 86.7441 30.0686C87.7891 30.2031 87.916 30.8002 87.0233 31.3823C86.1306 31.9643 84.5513 32.3357 83.5063 32.2011C82.4613 32.0666 82.3344 31.4695 83.2271 30.8875ZM91.2788 24.5577C92.5312 23.7387 94.7723 23.2089 96.2351 23.3794C97.6978 23.5499 97.8719 24.3688 96.6231 25.2049C95.3743 26.0409 93.1332 26.5708 91.6668 26.3832C90.2004 26.1956 90.0263 25.3767 91.2788 24.5577ZM53.9123 49.5113C54.5709 49.086 55.7139 48.8431 56.4714 48.9674C57.2289 49.0917 57.3403 49.5316 56.6854 49.9739C56.0268 50.3992 54.8838 50.6422 54.1263 50.5179C53.3688 50.3936 53.2574 49.9537 53.916 49.5284L53.9123 49.5113ZM28.1906 48.6307L34.4808 49.7009C35.3909 48.8655 35.0255 48.0694 33.4898 47.8074C31.9542 47.5454 29.7316 47.9108 28.2077 48.6271L28.1906 48.6307ZM67.1703 46.2831C65.489 46.4265 63.6279 46.9826 62.4401 47.77C61.2522 48.5574 61.0194 49.3915 61.7166 49.9031C63.5459 48.694 65.3581 47.4886 67.1703 46.2831ZM78.2806 35.7191C78.9391 35.2939 80.0614 35.0375 80.8153 35.1447C81.5692 35.2519 81.6769 35.6748 81.022 36.1172C80.3635 36.5424 79.2448 36.8159 78.4873 36.6916C77.7334 36.5844 77.622 36.1444 78.2806 35.7191Z" fill="url(#paint12_radial_1269_596)"/>
<g id="Group_5" style="mix-blend-mode:multiply">
<path id="Vector_16" fill-rule="evenodd" clip-rule="evenodd" d="M106.612 49.6326C97.5675 51.6264 71.8812 66.1802 61.5901 77.1586L58.573 62.9642L104.137 32.7018L106.629 49.629L106.612 49.6326Z" fill="url(#paint13_radial_1269_596)"/>
</g>
<g id="Group_6" style="mix-blend-mode:screen" opacity="0.5">
<path id="Vector_17" fill-rule="evenodd" clip-rule="evenodd" d="M1.02299 44.7225L4.98749 60.6057C5.11334 61.1139 5.51472 61.4922 6.0323 61.5783L59.2081 71.4056C60.0069 71.5568 60.7576 71.3972 61.426 70.9342L106.007 40.328C106.441 40.0217 106.658 39.5299 106.566 39.0145L103.728 22.892C103.637 22.4655 103.315 22.1238 102.876 22.0744L49.5557 15.8441C48.8809 15.7736 48.2838 15.9005 47.6961 16.2394L1.51939 43.6185C1.13895 43.842 0.962824 44.2717 1.07417 44.7117L1.02299 44.7225Z" fill="url(#paint14_radial_1269_596)"/>
</g>
<path id="Vector_18" fill-rule="evenodd" clip-rule="evenodd" d="M56.525 53.4138L60.3471 71.3957C60.7224 71.3159 61.0662 71.1715 61.4089 70.9382L105.99 40.3319C106.424 40.0257 106.624 39.5375 106.549 39.0185L103.711 22.896C103.66 22.6571 103.544 22.4498 103.372 22.3082L56.5456 53.4273L56.525 53.4138Z" fill="url(#paint15_radial_1269_596)"/>
<path id="Vector_19" style="mix-blend-mode:screen" opacity="0.4" fill-rule="evenodd" clip-rule="evenodd" d="M67.2629 46.2991C65.4336 47.5082 63.6214 48.7136 61.8092 49.9191C61.719 50.6693 61.567 50.5412 61.9079 52.1449C62.2487 53.7486 64.2091 55.7569 65.8787 54.6353C67.5482 53.5137 68.3062 49.6972 67.9823 48.0898C67.6415 46.4861 67.5935 46.7638 67.2593 46.2821L67.2629 46.2991ZM62.0226 60.8222C63.0812 60.0979 64.2154 60.8197 64.5526 62.4064C64.8935 64.01 64.2935 65.8851 63.2349 66.6093C62.1763 67.3336 61.0422 66.6118 60.7049 65.0252C60.3677 63.4385 60.964 61.5465 62.0226 60.8222ZM70.055 55.1563C70.8184 54.6374 71.6216 55.1443 71.8609 56.2703C72.1002 57.3963 71.6546 58.7392 70.8912 59.2581C70.1277 59.777 69.3246 59.2701 69.1023 58.1405C68.88 57.0109 69.2915 55.6752 70.055 55.1563ZM84.6257 38.222C85.8745 37.386 87.1875 38.1946 87.5244 40.031C87.8783 41.8637 87.1486 44.0516 85.8998 44.8876C84.6546 45.7407 83.3586 44.9285 83.0011 43.0787C82.6436 41.2289 83.3769 39.0581 84.6257 38.222ZM76.1903 44.5085C77.7818 43.4392 79.4466 44.4762 79.9092 46.8207C80.3719 49.1653 79.4647 51.9437 77.8732 53.013C76.2987 54.0788 74.6169 53.0454 74.1542 50.7009C73.6879 48.3393 74.5817 45.5815 76.1903 44.5085ZM90.4272 43.0337C91.4248 42.3581 92.4349 42.9993 92.709 44.4567C92.9831 45.9141 92.4052 47.6417 91.4247 48.3138C90.4442 48.9858 89.4171 48.3482 89.143 46.8908C88.8689 45.4334 89.4467 43.7058 90.4443 43.0301L90.4272 43.0337ZM82.5671 49.9291C83.2049 49.4903 83.8803 49.8996 84.0663 50.8586C84.2487 51.8005 83.8826 52.9304 83.2448 53.3691C82.6069 53.8078 81.9486 53.395 81.7626 52.436C81.5631 51.4976 81.9463 50.3641 82.5877 49.9425L82.5671 49.9291ZM92.922 32.0364C93.7976 31.458 94.6835 32.0186 94.9177 33.2884C95.152 34.5581 94.6366 36.0763 93.778 36.6511C92.9024 37.2295 91.9995 36.6725 91.7652 35.4028C91.531 34.1331 92.0464 32.6148 92.922 32.0364ZM106.081 36.479C105.857 35.2604 105.648 34.0212 105.441 32.799C105.218 31.5805 105.008 30.3412 104.802 29.119C104.215 28.9585 103.654 29.0063 102.921 29.5009C102.171 29.9991 101.387 31.0929 100.981 32.2849C100.571 33.4597 100.434 34.8263 100.661 36.0619C100.888 37.2975 101.432 38.1804 102.114 38.6237C102.814 39.0634 103.757 38.97 104.504 38.4547C105.25 37.9394 105.687 37.3116 106.098 36.4754L106.081 36.479ZM100.287 43.3631C100.107 42.3493 98.734 40.8401 97.5328 41.6482C96.3351 42.4734 95.7774 45.3023 95.9572 46.3161C96.1371 47.33 96.066 46.828 96.1643 47.0389C97.5656 46.0812 98.9498 45.1273 100.351 44.1696C100.348 43.9029 100.463 44.3599 100.266 43.3497L100.287 43.3631Z" fill="url(#paint16_radial_1269_596)"/>
<g id="Group_7" style="mix-blend-mode:screen">
<path id="Vector_20" fill-rule="evenodd" clip-rule="evenodd" d="M35.5122 49.8561C38.2631 50.4661 54.4413 53.6784 55.5591 54.7425C56.5698 55.7224 59.0708 65.9788 59.657 68.0653C59.3438 65.9207 57.4109 55.401 57.9356 54.0947C58.48 52.713 67.8722 46.0626 69.6994 44.6757C67.7264 45.8796 57.7131 52.3767 56.3788 52.6425C54.8774 52.9616 38.4352 50.269 35.5293 49.8525L35.5122 49.8561Z" fill="url(#paint17_radial_1269_596)"/>
</g>
<path id="Vector_21" fill-rule="evenodd" clip-rule="evenodd" d="M52.2815 30.8497C44.6585 27.6199 40.9277 26.5941 32.6739 25.5133C32.0674 25.4282 31.4815 25.3566 30.875 25.2716C30.2514 25.1901 29.6605 25.2622 29.169 25.6342C26.1587 27.9145 22.8799 29.7705 19.5137 31.4667C19.2077 31.6209 19.0719 31.9886 19.1615 32.3262C19.2122 32.565 19.2666 32.8209 19.3174 33.0598C19.4771 32.9723 19.6332 32.8678 19.793 32.7804C20.2899 32.8531 20.7868 32.9258 21.2873 33.0155C30.4006 34.4486 39.7599 34.4385 49.0166 33.8617L52.2851 30.8668L52.2815 30.8497Z" fill="url(#paint18_linear_1269_596)"/>
<path id="Vector_22" fill-rule="evenodd" clip-rule="evenodd" d="M22.2949 32.3021C31.6285 33.8488 40.4692 33.6637 49.8794 33.0543C49.5817 33.3315 49.2975 33.5881 48.9998 33.8654C39.7467 34.4592 30.3703 34.4729 21.2704 33.0192C20.7735 32.9465 20.2766 32.8738 19.7761 32.784C19.6164 32.8715 19.4603 32.976 19.3006 33.0634C19.2498 32.8246 19.1954 32.5687 19.1446 32.3298C19.099 31.9472 19.5012 31.8261 20.132 31.9416L22.312 32.2985L22.2949 32.3021Z" fill="url(#paint19_radial_1269_596)"/>
<path id="Vector_23" fill-rule="evenodd" clip-rule="evenodd" d="M51.2372 31.0539C56.8874 25.0027 59.8785 22.5482 66.9791 18.2037C67.4986 17.8793 68.0047 17.5756 68.5241 17.2512C69.0607 16.9232 69.6299 16.7487 70.2302 16.8886C73.9077 17.7474 77.6579 18.1093 81.423 18.2897C81.7653 18.3061 82.0389 18.5867 82.0944 18.9316C82.1452 19.1704 82.1995 19.4263 82.2503 19.6652C82.0688 19.6503 81.8837 19.6183 81.7022 19.6034C81.2779 19.8719 80.8535 20.1404 80.4327 20.426C72.6902 25.4418 64.1359 29.2394 55.4449 32.4776C54.0436 32.0087 52.6422 31.5398 51.2408 31.0709L51.2372 31.0539Z" fill="url(#paint20_linear_1269_596)"/>
<path id="Vector_24" fill-rule="evenodd" clip-rule="evenodd" d="M79.2224 20.184C71.3248 25.3933 63.1731 28.8199 54.3286 32.0908C54.7133 32.223 55.0773 32.3417 55.4621 32.4739C64.1567 29.2528 72.728 25.4516 80.4499 20.4223C80.8743 20.1538 81.2986 19.8853 81.7194 19.5997C81.9009 19.6146 82.086 19.6466 82.2675 19.6615C82.2167 19.4227 82.1623 19.1668 82.1115 18.9279C81.9976 18.5599 81.5809 18.6128 81.0516 18.9749L79.2053 20.1876L79.2224 20.184Z" fill="url(#paint21_radial_1269_596)"/>
<path id="Vector_25" fill-rule="evenodd" clip-rule="evenodd" d="M38.1195 67.49L38.9013 67.6448C38.9666 67.9519 39.0137 68.1737 38.4994 68.3543L37.4877 68.712C37.3414 68.7788 37.1976 68.7737 37.0332 68.7551L24.7434 66.3033C23.886 66.1289 23.7736 65.6 23.5861 64.8018L19.6881 48.4765C19.5333 47.8319 19.7853 47.172 20.3523 46.8197L23.1229 45.0896C31.0506 40.1057 38.4731 36.3526 47.3921 33.0124L52.666 33.4962C50.1812 38.5001 42.7583 43.9294 36.5535 47.9587L35.0168 49.0342C34.4876 49.3964 34.2246 50.005 34.3588 50.6363L38.0988 67.4766L38.1195 67.49Z" fill="url(#paint22_linear_1269_596)"/>
<path id="Vector_26" fill-rule="evenodd" clip-rule="evenodd" d="M38.1194 67.49L34.3794 50.6497C34.2452 50.0185 34.5118 49.4269 35.0374 49.0477L36.5741 47.9721C42.7753 43.9258 50.2188 38.5099 52.6866 33.5097L52.1215 33.4515C52.1215 33.4515 52.0812 33.5135 52.0848 33.5306C48.696 39.315 39.9025 44.8396 33.8636 48.7266C33.2051 49.1518 32.9842 50.126 33.1438 50.8767C34.0395 55.0906 35.4292 61.1254 37.026 67.8829C37.1058 68.2582 37.0926 68.8673 38.0702 68.5168L38.5163 68.3507C39.0307 68.17 38.9836 67.9482 38.9183 67.6411L38.1365 67.4863L38.1194 67.49Z" fill="url(#paint23_radial_1269_596)"/>
<path id="Vector_27" fill-rule="evenodd" clip-rule="evenodd" d="M79.0888 58.8173L78.4375 59.2767C78.5028 59.5838 78.5499 59.8055 79.0933 59.7614L80.163 59.6766C80.3238 59.6781 80.453 59.615 80.5957 59.5312L90.8258 52.2926C91.538 51.7846 91.4256 51.2557 91.2722 50.4502L88.1932 33.9509C88.0724 33.299 87.5738 32.7987 86.9125 32.7075L83.6777 32.2538C74.4083 30.9253 66.101 30.5156 56.5945 31.0919L51.9733 33.679C56.2786 37.2396 65.268 39.1804 72.5752 40.3376L74.4165 40.6951C75.0474 40.8107 75.5351 41.2598 75.6693 41.891L79.1022 58.7966L79.0888 58.8173Z" fill="url(#paint24_linear_1269_596)"/>
<path id="Vector_28" fill-rule="evenodd" clip-rule="evenodd" d="M79.0889 58.8173L75.656 41.9117C75.5219 41.2805 75.0377 40.8484 74.4033 40.7158L72.562 40.3583C65.2512 39.184 56.2483 37.2639 51.9601 33.6997L52.4527 33.4167C52.4527 33.4167 52.5148 33.457 52.5184 33.4741C57.967 37.38 68.2472 38.8503 75.345 39.945C76.1196 40.0657 76.7176 40.8658 76.8771 41.6165C77.7729 45.8305 78.9578 51.9087 80.2476 58.7315C80.3274 59.1068 80.5871 59.6578 79.5516 59.7353L79.0764 59.765C78.533 59.8092 78.4859 59.5874 78.4206 59.2803L79.0719 58.8209L79.0889 58.8173Z" fill="url(#paint25_radial_1269_596)"/>
<path id="Vector_29" style="mix-blend-mode:screen" fill-rule="evenodd" clip-rule="evenodd" d="M67.8931 38.6938C69.1428 38.7848 72.8977 39.2527 75.1506 39.7011C76.344 39.9467 76.9119 40.5214 77.1969 42.03C77.7259 44.7705 78.8021 50.337 78.9253 51.7552C78.5949 50.4524 77.3568 44.7955 76.7192 42.1315C76.4167 40.8763 76.08 40.4664 75.0634 40.1297C73.0472 39.4527 69.1997 38.9689 67.8931 38.6938Z" fill="url(#paint26_radial_1269_596)"/>
<path id="Vector_30" style="mix-blend-mode:screen" fill-rule="evenodd" clip-rule="evenodd" d="M40.166 44.5696C39.0613 45.161 35.8214 47.1157 33.9456 48.4416C32.9553 49.1514 32.6702 49.9074 33.0235 51.4015C33.6548 54.1203 35.3453 60.9827 37.026 67.8829C35.286 60.0324 34.0193 53.9894 33.5012 51.3C33.2669 50.0302 33.4079 49.5188 34.1997 48.7978C35.7662 47.3592 39.0842 45.3523 40.166 44.5696Z" fill="url(#paint27_radial_1269_596)"/>
<g id="Group_8" opacity="0.75">
<g id="Group_9" style="mix-blend-mode:screen">
<path id="Vector_31" d="M20.6184 47.9043C20.6184 47.9043 20.5792 48.0553 20.5109 48.0698C20.4427 48.0843 20.3599 48.0306 20.3454 47.9623C20.3309 47.8941 20.3846 47.8113 20.4529 47.7968C20.5211 47.7823 20.6039 47.8361 20.6184 47.9043Z" fill="#579DD9"/>
</g>
<g id="Vector_32" style="mix-blend-mode:screen">
<path d="M20.8233 47.8608C20.8632 48.0484 20.7423 48.2346 20.5546 48.2745C20.367 48.3144 20.1808 48.1935 20.1409 48.0058C20.101 47.8182 20.2219 47.632 20.4096 47.5921C20.5972 47.5522 20.7834 47.6731 20.8233 47.8608Z" fill="#A4FFFD"/>
</g>
</g>
<g id="Group_10" style="mix-blend-mode:multiply">
<path id="Vector_33" fill-rule="evenodd" clip-rule="evenodd" d="M44.6548 110.822C43.9383 110.974 42.9362 110.706 42.2447 110.389C41.0336 109.808 39.8419 108.564 39.3724 107.362C39.1043 106.688 38.9676 106.129 38.9027 105.572C38.8378 105.015 39.0507 104.506 39.4507 104.207C39.5288 104.155 39.6409 104.095 39.7774 104.066C40.6987 103.87 42.3995 104.49 43.1805 105.144C44.5624 106.277 45.4996 108.253 45.3922 109.845C45.3496 110.567 44.996 110.749 44.6378 110.825L44.6548 110.822ZM41.978 99.319C41.5685 99.406 41.0862 99.4016 40.8219 99.3329C39.3643 99.0186 37.6833 97.4858 37.3042 96.122C36.8356 94.4207 37.1403 93.5892 37.4994 93.0136C37.9758 92.2347 38.6979 91.6889 39.4468 91.1018C40.0433 90.6362 40.6702 90.1463 41.1829 89.5381C41.7797 88.8228 42.0333 88.0021 41.9837 87.0141C41.902 85.6228 41.4997 84.3175 40.8095 83.2516C39.8581 81.7955 37.0483 79.9855 34.7793 80.4679C34.3698 80.5549 33.9955 80.7236 33.6663 80.9362C32.7504 81.5767 32.5589 82.4376 32.4434 83.0685C32.4016 83.2913 32.3598 83.5142 32.2668 83.7479C32.2105 83.9025 32.0762 84.1094 31.6497 84.2001C31.2743 84.2798 30.7811 84.2242 30.3379 84.0688C29.5612 83.7702 28.8252 83.1599 28.2297 82.2879C26.9622 80.4354 26.8687 78.0659 28.0113 76.6462C28.7022 75.7861 29.5887 75.2588 30.7488 75.0122C31.9089 74.7657 33.3633 74.8131 35.1023 75.1924C40.9158 76.4531 45.307 80.3342 47.135 85.83C48.5653 90.1265 47.9506 92.7714 45.1005 94.7145C43.8078 95.5956 42.9834 96.1631 42.6341 96.701C42.1639 97.425 42.2164 98.0914 42.3215 98.5862C42.4194 99.0468 42.1486 99.2827 41.9439 99.3262L41.978 99.319Z" fill="#6689BA"/>
</g>
<path id="Vector_34" fill-rule="evenodd" clip-rule="evenodd" d="M35.9157 104.352C36.0284 105.47 41.7324 111.835 42.1915 111.898C43.4173 111.709 45.1457 110.361 45.2357 109.022C45.3558 107.071 44.2071 104.854 42.7144 103.62C41.83 102.899 39.7982 102.065 38.5125 102.392C37.752 102.589 36.2738 103.688 35.9328 104.349L35.9157 104.352ZM28.66 85.3171C29.643 85.4113 31.5985 84.4607 32.0768 83.2713C32.4254 82.3948 32.2368 81.5076 33.1698 80.8636C34.8931 79.6592 38.0819 81.4065 39.0819 82.9235C39.6919 83.8638 40.0408 85.0021 40.1107 86.2533C40.1519 87.1183 39.9194 87.7026 39.5045 88.1831C38.4389 89.4617 36.7542 90.1764 35.7673 91.7414C35.17 92.7064 34.9988 93.8305 35.4638 95.5148C35.936 97.2332 38.1547 99.9534 39.873 100.319C40.7043 100.036 42.2021 98.8613 42.2795 98.4704C42.4096 97.9078 41.7408 97.1941 42.3221 96.3216C42.6176 95.8665 43.6493 95.1836 44.5554 94.5809C48.108 92.1674 48.2731 88.8335 46.9204 84.7345C44.9542 78.8401 40.3122 74.8697 34.2929 73.5636C32.4614 73.1683 30.5028 73.014 28.8268 73.6021C27.9139 73.921 25.9775 75.0458 25.3001 75.8852C25.0884 77.9095 26.6221 84.5377 28.6735 85.2964L28.66 85.3171Z" fill="url(#paint28_radial_1269_596)"/>
<path id="Vector_35" fill-rule="evenodd" clip-rule="evenodd" d="M36.4831 103.75C35.8696 104.219 35.5163 104.99 35.5988 105.882C35.6756 106.579 35.8512 107.237 36.1157 107.894C36.67 109.327 38.0381 110.731 39.4075 111.385C40.9351 112.112 43.6632 112.531 43.8121 110.127C43.9323 108.176 42.7836 105.959 41.2909 104.725C40.2544 103.876 37.6698 102.874 36.5038 103.764L36.4831 103.75ZM25.0847 83.01C25.7288 83.943 26.59 84.7228 27.6005 85.1143C28.6073 85.4888 30.1434 85.501 30.6181 84.2946C30.9667 83.4181 30.7745 82.5139 31.7075 81.8698C33.4478 80.6618 36.6366 82.4091 37.6402 83.9432C38.2502 84.8834 38.6028 86.0389 38.669 87.273C38.7102 88.138 38.4778 88.7223 38.0628 89.2028C36.9972 90.4814 35.2954 91.1997 34.3122 92.7817C33.7149 93.7467 33.5437 94.8709 34.0123 96.5722C34.4846 98.2906 36.4381 100.015 38.16 100.398C38.7396 100.525 39.7277 100.475 40.2508 100.168C40.5056 100.024 40.7837 99.8226 40.8487 99.5413C40.9788 98.9787 40.31 98.2649 40.8913 97.3925C41.1868 96.9374 42.2185 96.2544 43.1246 95.6517C46.6943 93.2347 46.8557 89.8837 45.486 85.7883C43.5162 79.8769 38.8571 75.9101 32.8171 74.5905C29.9944 73.978 26.8259 73.9204 24.8777 76.3316C23.4825 78.0725 23.5705 80.8355 25.047 83.0002L25.0847 83.01Z" fill="url(#paint29_radial_1269_596)"/>
<path id="Vector_36" style="mix-blend-mode:screen" fill-rule="evenodd" clip-rule="evenodd" d="M26.4658 74.9954C30.4553 72.7922 35.7697 74.6405 38.9122 77.093C35.4581 75.1881 30.967 73.5216 26.4658 74.9954Z" fill="url(#paint30_radial_1269_596)"/>
<g id="Group_11">
<g id="Group_12" style="mix-blend-mode:multiply">
<path id="Vector_37" fill-rule="evenodd" clip-rule="evenodd" d="M80.1033 78.2697C79.5095 76.3988 80.1928 73.4897 81.186 71.0318C82.8507 66.9512 87.4174 61.2552 91.9568 60.9679C95.457 60.7411 97.3407 63.479 98.1455 66.6781C99.1523 70.7436 98.4928 73.9329 96.9371 77.6872C96.136 79.6228 94.8546 81.7318 94.2934 83.7056C94.1954 84.083 94.0766 84.4471 94.054 84.8442C94.0176 85.5117 94.3373 85.9252 94.1008 86.7422C93.7394 87.978 92.7783 89.4127 91.5252 89.893C89.7443 90.5747 88.7925 89.3683 88.5696 87.9001C88.1077 85.0561 88.9165 82.9049 90.0146 80.3534C91.0529 77.9394 93.3746 73.5943 91.9947 71.2129C91.3764 70.1497 90.5852 69.7829 89.7786 69.8473C86.6864 70.148 86.1607 74.2183 85.7305 76.5565C85.4932 77.873 85.0128 78.8845 83.9625 79.7318C82.367 81.0339 80.6862 80.0894 80.1033 78.2697Z" fill="#6689BA"/>
</g>
<g id="Group_13" style="mix-blend-mode:multiply">
<path id="Vector_38" fill-rule="evenodd" clip-rule="evenodd" d="M92.2776 93.2638C90.3647 94.9185 89.5007 97.3133 90.1837 99.7715C90.5736 101.186 91.7944 102.567 93.4134 101.795C96.3149 100.43 97.3421 97.3762 96.6356 94.388C96.0404 91.8398 93.9025 91.8485 92.2776 93.2638Z" fill="#6689BA"/>
</g>
</g>
<g id="Group_14">
<path id="Vector_39" fill-rule="evenodd" clip-rule="evenodd" d="M78.0247 77.8021C77.4308 75.9312 78.1142 73.0221 79.1074 70.5642C80.7721 66.4836 85.3388 60.7876 89.8782 60.5004C91.0746 60.4244 92.5653 60.6425 93.5891 61.0133C97.8108 63.593 96.3837 73.4897 94.8585 77.2197C94.5295 78.0207 90.911 88.5971 90.6763 89.8416C90.1314 90.0466 88.4437 89.6565 88.0626 89.5413C87.1603 89.323 86.6635 88.4122 86.5008 87.3947C86.0425 84.5678 86.8477 82.3995 87.9458 79.848C88.9841 77.4341 91.3058 73.089 89.9259 70.7076C89.3076 69.6443 88.5164 69.2776 87.7098 69.342C84.6176 69.6427 84.0919 73.713 83.6617 76.0512C83.4244 77.3676 83.5151 79.2206 82.4514 80.0887C81.8714 80.212 80.0068 79.9129 79.4214 79.5915C78.7982 79.2603 78.284 78.6029 78.0174 77.768L78.0247 77.8021ZM90.1781 92.7827C88.2652 94.4375 87.4012 96.8323 88.0842 99.2905C88.3203 100.15 88.8537 100.981 89.5901 101.342C90.1063 101.589 92.1461 101.958 92.5033 101.793C93.8866 99.9116 94.7641 93.8051 94.7691 92.2348C93.7561 91.9152 92.9304 91.8054 92.2774 91.8373C91.5866 91.8593 90.8417 92.2137 90.161 92.7864L90.1781 92.7827Z" fill="url(#paint31_radial_1269_596)"/>
<g id="Clip path group">
<mask id="mask0_1269_596" style="mask-type:luminance" maskUnits="userSpaceOnUse" x="77" y="60" width="20" height="42">
<g id="clippath-12">
<path id="Vector_40" d="M78.0247 77.8021C77.4308 75.9312 78.1142 73.0221 79.1074 70.5642C80.7721 66.4836 85.3388 60.7876 89.8782 60.5004C91.0746 60.4244 92.5653 60.6425 93.5891 61.0133C97.8108 63.593 96.3837 73.4897 94.8585 77.2197C94.5295 78.0207 90.911 88.5971 90.6763 89.8416C90.1314 90.0466 88.4437 89.6565 88.0626 89.5413C87.1603 89.323 86.6635 88.4122 86.5008 87.3947C86.0425 84.5678 86.8477 82.3995 87.9458 79.848C88.9841 77.4341 91.3058 73.089 89.9259 70.7076C89.3076 69.6443 88.5164 69.2776 87.7098 69.342C84.6176 69.6427 84.0919 73.713 83.6617 76.0512C83.4244 77.3676 83.5151 79.2206 82.4514 80.0887C81.8714 80.212 80.0068 79.9129 79.4214 79.5915C78.7982 79.2603 78.284 78.6029 78.0174 77.768L78.0247 77.8021ZM90.1781 92.7827C88.2652 94.4375 87.4012 96.8323 88.0842 99.2905C88.3203 100.15 88.8537 100.981 89.5901 101.342C90.1063 101.589 92.1461 101.958 92.5033 101.793C93.8866 99.9116 94.7641 93.8051 94.7691 92.2348C93.7561 91.9152 92.9304 91.8054 92.2774 91.8373C91.5866 91.8593 90.8417 92.2137 90.161 92.7864L90.1781 92.7827Z" fill="white"/>
</g>
</mask>
<g mask="url(#mask0_1269_596)">
</g>
</g>
</g>
<path id="Vector_41" fill-rule="evenodd" clip-rule="evenodd" d="M79.7454 78.0961C79.1515 76.2252 79.8349 73.3161 80.8281 70.8582C82.4928 66.7776 87.0595 61.0816 91.5989 60.7943C95.0991 60.5674 96.9828 63.3054 97.7876 66.5045C98.7944 70.57 98.1349 73.7593 96.5792 77.5136C95.7781 79.4492 94.4967 81.5582 93.9355 83.532C93.8374 83.9094 93.7187 84.2735 93.6961 84.6706C93.6597 85.3381 93.9794 85.7516 93.7429 86.5686C93.3815 87.8044 92.4204 89.2391 91.1673 89.7194C89.3864 90.4011 88.4346 89.1947 88.2117 87.7265C87.7498 84.8824 88.5586 82.7313 89.6567 80.1798C90.6949 77.7658 93.0167 73.4207 91.6368 71.0393C91.0185 69.976 90.2273 69.6093 89.4207 69.6737C86.3285 69.9744 85.8028 74.0447 85.3726 76.3829C85.1353 77.6994 84.6548 78.7109 83.6046 79.5582C82.0091 80.8603 80.3283 79.9158 79.7454 78.0961ZM91.8988 93.0767C89.9859 94.7315 89.1219 97.1262 89.8049 99.5845C90.1948 100.999 91.4156 102.38 93.0346 101.608C95.9362 100.243 96.9633 97.1892 96.2568 94.201C95.6617 91.6528 93.5237 91.6614 91.8988 93.0767Z" fill="url(#paint32_radial_1269_596)"/>
<g id="Group_15" opacity="0.75">
<g id="Group_16" style="mix-blend-mode:screen">
<path id="Vector_42" d="M29.7023 74.4501C29.8154 74.4261 29.8973 74.3608 29.8853 74.3043C29.8733 74.2477 29.7719 74.2214 29.6588 74.2454C29.5458 74.2695 29.4638 74.3348 29.4759 74.3913C29.4879 74.4478 29.5893 74.4742 29.7023 74.4501Z" fill="#579DD9"/>
</g>
<g id="Vector_43" style="mix-blend-mode:screen">
<path d="M29.7349 74.6037C30.0175 74.5436 30.2223 74.3803 30.1923 74.239C30.1622 74.0977 29.9087 74.0318 29.6261 74.0919C29.3434 74.152 29.1386 74.3153 29.1687 74.4566C29.1987 74.5979 29.4522 74.6638 29.7349 74.6037Z" fill="#A4FFFD"/>
</g>
</g>
</g>
<g id="Group_17">
<path id="Vector_44" fill-rule="evenodd" clip-rule="evenodd" d="M62.6224 7.51833C64.4833 15.1826 61.0052 21.2178 56.3429 25.7929C55.5284 27.7492 54.7443 29.6811 54.0006 31.551C59.307 29.3354 66.2832 26.5865 71.3744 22.687C74.4249 20.3446 77.2014 16.5448 78.0527 12.2448C79.0206 7.40292 77.2697 1.76592 72.9782 1.62604C72.6432 1.64376 72.3082 1.66148 71.9695 1.66214C71.7953 1.68134 71.6381 1.69692 71.4675 1.73318C66.9774 2.42012 64.4651 4.86208 62.6054 7.52196L62.6224 7.51833Z" fill="url(#paint33_linear_1269_596)"/>
<path id="Vector_45" fill-rule="evenodd" clip-rule="evenodd" d="M50.1707 30.8138L53.9619 31.4523C56.3482 25.6492 58.7794 19.89 61.4408 14.2067C64.1756 8.36512 66.4987 2.43275 72.2641 1.11812C67.3591 1.44745 63.3887 0.971879 59.1616 0.21205C55.5447 -0.44566 53.206 1.63844 52.3545 6.77655C51.0197 14.6743 50.4885 22.8291 50.1707 30.8138Z" fill="url(#paint34_linear_1269_596)"/>
<path id="Vector_46" d="M53.5748 31.392C55.7792 25.8237 58.1309 20.2775 60.6895 14.8657C63.0647 9.84947 66.4606 -0.180319 73.8294 1.26689C77.663 2.02119 78.8759 6.72052 78.7692 10.0777C78.6706 12.9695 77.661 15.7696 76.1099 18.2034C71.8022 24.9499 62.4283 28.5829 55.3312 31.5179L53.1869 32.4195L53.5955 31.4054L53.5748 31.392ZM54.0292 31.3489C61.5366 27.8273 73.315 23.5941 76.3857 14.9708C78.1296 10.0888 78.0459 3.99041 73.5482 2.62835C68.2092 0.99934 63.9466 10.6427 61.8219 15.1599C59.4235 20.2346 56.8321 26.3309 54.0329 31.3659L54.0292 31.3489Z" fill="url(#paint35_radial_1269_596)"/>
<path id="Vector_47" fill-rule="evenodd" clip-rule="evenodd" d="M33.9813 35.7706C40.4939 45.941 47.6594 37.0358 54.3393 31.5504L50.2353 30.7822C45.5509 33.2401 39.0072 35.2551 33.9849 35.7877L33.9813 35.7706Z" fill="url(#paint36_linear_1269_596)"/>
<path id="Vector_48" fill-rule="evenodd" clip-rule="evenodd" d="M24.3276 17.8693C26.5256 16.885 27.5184 16.9414 30.5836 17.5203C33.5185 18.0733 36.0977 18.6306 39.0831 18.8341C42.1916 19.0293 43.3698 18.868 45.1717 20.2146C46.2972 21.0631 47.2929 22.2245 48.2205 23.4004C50.2178 25.918 52.1229 28.1699 54.4789 30.3617C54.4977 30.7856 54.5165 31.2096 54.5317 31.6165C52.2334 31.3739 50.3921 31.0164 48.3262 30.1895C43.7647 28.3595 40.0318 24.8913 36.1518 21.9892C33.5214 20.0163 30.8135 18.4343 26.9614 17.8444C25.9846 17.6954 25.0953 17.7061 24.3276 17.8693Z" fill="url(#paint37_linear_1269_596)"/>
<path id="Vector_49" fill-rule="evenodd" clip-rule="evenodd" d="M42.7496 18.8036C39.8685 19.5943 38.681 20.9701 36.8375 24.1258C35.1615 26.9785 34.0823 30.5423 34.396 33.8636C34.6666 36.7305 36.0548 39.2349 39.1649 40.6958C34.1295 39.5728 29.3109 38.5464 23.8358 38.1232C22.8275 37.9096 21.8853 37.5036 21.0749 36.9626C13.1058 31.6844 18.3796 18.2419 26.8753 16.6858C27.353 16.5842 27.8587 16.5302 28.308 16.6309C33.0243 17.679 37.3109 18.551 42.7801 18.7793L42.7496 18.8036Z" fill="url(#paint38_linear_1269_596)"/>
<path id="Vector_50" fill-rule="evenodd" clip-rule="evenodd" d="M41.9417 19.867C43.5882 19.3922 45.1212 20.5642 46.0041 21.4464C47.393 22.863 48.5451 24.5082 49.8119 26.0221C51.0824 27.553 52.8156 29.1639 54.2789 30.5112L54.2352 31.1445C52.7431 32.5138 51.0582 34.0666 49.5418 35.4053C47.8595 36.8863 45.7568 38.4031 43.7087 39.3377C41.5826 40.3246 39.0047 40.4446 37.0915 38.658C34.4448 36.1892 34.8838 31.4597 35.8209 28.3184C36.3832 26.4335 37.2602 24.2678 38.4384 22.6801C39.2833 21.5376 40.5267 20.2569 41.938 19.8499L41.9417 19.867ZM41.5509 18.9515C35.8679 20.5696 30.9457 34.2404 36.2841 39.2219C37.0418 39.9345 37.9474 40.4197 38.98 40.6638C40.4619 41.0086 42.1908 40.8372 44.0146 40.0216C47.7743 38.3309 51.4792 34.3694 54.5317 31.6165L54.6753 30.1951C51.9433 27.7445 48.9775 23.7744 46.5458 20.9746C45.3664 19.6205 44.0569 18.8289 42.6816 18.8181C42.3052 18.809 41.9226 18.8546 41.5546 18.9685L41.5509 18.9515Z" fill="url(#paint39_radial_1269_596)"/>
<path id="Vector_51" style="mix-blend-mode:screen" fill-rule="evenodd" clip-rule="evenodd" d="M40.3126 19.5001C35.2407 23.5738 33.2707 31.0003 34.8089 37.1461C32.5685 32.0589 34.5998 22.9076 40.3126 19.5001Z" fill="url(#paint40_radial_1269_596)"/>
<path id="Vector_52" style="mix-blend-mode:screen" fill-rule="evenodd" clip-rule="evenodd" d="M56.356 24.5955C58.8092 18.1005 63.4042 4.82015 68.4417 2.42988C63.1685 7.40231 59.566 17.8861 56.356 24.5955Z" fill="url(#paint41_radial_1269_596)"/>
<g id="Clip path group_2">
<mask id="mask1_1269_596" style="mask-type:luminance" maskUnits="userSpaceOnUse" x="53" y="1" width="26" height="32">
<g id="clippath-13">
<path id="Vector_53" d="M53.5748 31.392C55.7792 25.8237 58.1309 20.2775 60.6895 14.8657C63.0647 9.84947 66.4606 -0.180319 73.8294 1.26689C77.663 2.02119 78.8759 6.72052 78.7692 10.0777C78.6706 12.9695 77.661 15.7696 76.1099 18.2034C71.8022 24.9499 62.4283 28.5829 55.3312 31.5179L53.1869 32.4195L53.5955 31.4054L53.5748 31.392ZM54.0292 31.3489C61.5366 27.8273 73.315 23.5941 76.3857 14.9708C78.1296 10.0888 78.0459 3.99041 73.5482 2.62835C68.2092 0.99934 63.9466 10.6427 61.8219 15.1599C59.4235 20.2346 56.8321 26.3309 54.0329 31.3659L54.0292 31.3489Z" fill="white"/>
</g>
</mask>
<g mask="url(#mask1_1269_596)">
<g id="Group_18">
<g id="Group_19" style="mix-blend-mode:screen">
<g id="Group_20" style="mix-blend-mode:screen">
<path id="Vector_54" d="M66.2521 5.80183C66.2811 5.93831 66.2005 6.06244 66.064 6.09145C65.9275 6.12046 65.8034 6.03985 65.7744 5.90337C65.7454 5.76688 65.826 5.64276 65.9625 5.61375C66.099 5.58474 66.2231 5.66535 66.2521 5.80183Z" fill="#F20A45"/>
</g>
<g id="Vector_55" style="mix-blend-mode:screen">
<path d="M66.6104 5.72567C66.6829 6.06689 66.468 6.39788 66.1267 6.4704C65.7855 6.54293 65.4545 6.32798 65.382 5.98677C65.3095 5.64556 65.5244 5.31457 65.8656 5.24204C66.2069 5.16951 66.5379 5.38446 66.6104 5.72567Z" fill="#F20A45"/>
</g>
</g>
<g id="Group_21" style="mix-blend-mode:screen">
<g id="Group_22" style="mix-blend-mode:screen">
<path id="Vector_56" d="M77.7619 21.0263C77.7909 21.1627 77.7103 21.2869 77.5738 21.3159C77.4373 21.3449 77.3132 21.2643 77.2842 21.1278C77.2552 20.9913 77.3358 20.8672 77.4722 20.8382C77.6087 20.8092 77.7329 20.8898 77.7619 21.0263Z" fill="#F20A45"/>
</g>
<g id="Vector_57" style="mix-blend-mode:screen">
<path d="M78.1201 20.9501C78.1927 21.2913 77.9777 21.6223 77.6365 21.6948C77.2953 21.7674 76.9643 21.5524 76.8918 21.2112C76.8193 20.87 77.0342 20.539 77.3754 20.4665C77.7166 20.3939 78.0476 20.6089 78.1201 20.9501Z" fill="#F20A45"/>
</g>
</g>
</g>
</g>
</g>
<g id="Clip path group_3">
<mask id="mask2_1269_596" style="mask-type:luminance" maskUnits="userSpaceOnUse" x="33" y="18" width="22" height="23">
<g id="clippath-14">
<path id="Vector_58" d="M41.9417 19.867C43.5882 19.3922 45.1212 20.5642 46.0041 21.4464C47.393 22.863 48.5451 24.5082 49.8119 26.0221C51.0824 27.553 52.8156 29.1639 54.2789 30.5112L54.2352 31.1445C52.7431 32.5138 51.0582 34.0666 49.5418 35.4053C47.8595 36.8863 45.7568 38.4031 43.7087 39.3377C41.5826 40.3246 39.0047 40.4446 37.0915 38.658C34.4448 36.1892 34.8838 31.4597 35.8209 28.3184C36.3832 26.4335 37.2602 24.2678 38.4384 22.6801C39.2833 21.5376 40.5267 20.2569 41.938 19.8499L41.9417 19.867ZM41.5509 18.9515C35.8679 20.5696 30.9457 34.2404 36.2841 39.2219C37.0418 39.9345 37.9474 40.4197 38.98 40.6638C40.4619 41.0086 42.1908 40.8372 44.0146 40.0216C47.7743 38.3309 51.4792 34.3694 54.5317 31.6165L54.6753 30.1951C51.9433 27.7445 48.9775 23.7744 46.5458 20.9746C45.3664 19.6205 44.0569 18.8289 42.6816 18.8181C42.3052 18.809 41.9226 18.8546 41.5546 18.9685L41.5509 18.9515Z" fill="white"/>
</g>
</mask>
<g mask="url(#mask2_1269_596)">
<g id="Group_23">
</g>
</g>
</g>
<path id="Vector_59" style="mix-blend-mode:screen" opacity="0.75" d="M65.1206 26.0669C70.9089 22.679 76.7933 17.8976 77.3977 10.4226C77.4361 13.0356 76.9024 20.4243 65.1206 26.0669Z" fill="url(#paint42_radial_1269_596)"/>
<g id="Group_24" opacity="0.75">
<g id="Group_25" style="mix-blend-mode:screen">
<path id="Vector_60" d="M65.9985 5.78435C66.0927 5.76432 66.1529 5.6717 66.1328 5.57748C66.1128 5.48326 66.0202 5.42311 65.926 5.44314C65.8318 5.46317 65.7716 5.55578 65.7916 5.65001C65.8117 5.74423 65.9043 5.80438 65.9985 5.78435Z" fill="#F20A45"/>
</g>
<g id="Vector_61" style="mix-blend-mode:screen">
<path d="M66.0565 6.05733C66.3014 6.00526 66.4578 5.76445 66.4058 5.51947C66.3537 5.27449 66.1129 5.11811 65.8679 5.17018C65.6229 5.22225 65.4665 5.46306 65.5186 5.70804C65.5707 5.95302 65.8115 6.1094 66.0565 6.05733Z" fill="#F20A45"/>
</g>
</g>
<g id="Group_26">
<path id="Vector_62" fill-rule="evenodd" clip-rule="evenodd" d="M81.1262 20.9173C82.9499 20.1017 84.2179 19.4399 85.9325 18.3622C89.803 15.9346 91.2186 15.8834 94.4574 16.1044C94.0017 16.8966 93.6458 17.739 93.3934 18.6486C94.6926 19.7276 95.8027 21.0073 96.7102 22.5084C92.3352 22.8143 90.8578 23.4136 87.4805 25.8968C86.5853 26.5507 85.5924 27.3323 84.287 27.7346C81.7446 28.5247 81.9207 26.6684 81.6789 24.7762C81.53 23.4883 81.3092 22.1979 81.1225 20.9002L81.1262 20.9173Z" fill="url(#paint43_linear_1269_596)"/>
<path id="Vector_63" style="mix-blend-mode:multiply" opacity="0.6" fill-rule="evenodd" clip-rule="evenodd" d="M87.3378 25.9806C86.3124 24.3441 85.1845 21.3029 84.8387 19.0048C83.6363 19.724 82.5549 20.257 81.1396 20.8966C81.3262 22.1943 81.5434 23.4677 81.696 24.7726C81.917 26.6514 81.7446 28.5247 84.3041 27.731C85.5412 27.3432 86.4938 26.6236 87.3549 25.977L87.3378 25.9806Z" fill="url(#paint44_linear_1269_596)"/>
<path id="Vector_64" fill-rule="evenodd" clip-rule="evenodd" d="M57.5908 31.412C56.5851 31.1265 55.5953 30.7485 54.5699 30.5385C50.6779 29.7609 46.7626 29.0418 42.8288 28.4871C39.3164 27.9855 34.8423 30.0064 34.8502 34.0702C34.8542 36.1022 36.0327 37.9558 36.0462 39.3616C36.0482 40.3775 35.246 40.7977 33.3806 40.9981C32.7519 41.0604 32.1062 41.1263 31.5442 41.3349C29.0504 42.1859 27.9222 44.512 27.6683 47.0089C27.2101 51.5641 30.9773 55.6135 30.1294 59.3422C32.9542 58.7061 34.9758 57.5631 36.3336 56.4008C38.9218 58.8463 42.8983 60.1052 44.635 62.5712C45.6453 58.6832 40.5654 55.002 42.3902 49.1577C43.1384 46.8055 44.9467 44.9946 47.8724 44.4975C49.0775 44.2949 51.4285 44.3657 51.2793 42.4895C51.1588 40.9994 50.6737 39.6404 50.425 38.3024C49.6005 33.7523 52.7389 29.8934 57.581 31.4498L57.5908 31.412Z" fill="url(#paint45_linear_1269_596)"/>
<path id="Vector_65" fill-rule="evenodd" clip-rule="evenodd" d="M55.2961 30.3484C57.4359 28.5027 59.18 26.4737 61.0912 24.3913C64.7108 20.4479 68.5522 15.0309 74.1274 13.8281C77.0277 13.2116 79.6162 13.9809 80.2945 16.3331C80.8905 18.3819 81.2647 20.4778 81.7412 22.5519C80.2792 20.4554 76.3311 20.4209 72.6964 21.6927C69.3408 22.8518 66.2216 25.4584 63.3932 27.5039C60.8394 29.3306 59.5793 30.3652 57.1215 30.7985C56.5004 30.6452 55.9001 30.5053 55.2791 30.352L55.2961 30.3484Z" fill="url(#paint46_linear_1269_596)"/>
<path id="Vector_66" fill-rule="evenodd" clip-rule="evenodd" d="M47.8857 44.4768C44.96 44.9739 43.1517 46.7848 42.4035 49.1371C40.558 54.9679 45.6379 58.6491 44.6483 62.5506L45.6121 62.4705C46.0101 59.7291 44.3216 57.5737 43.4372 54.5877C42.2925 50.712 43.2937 46.3623 48.336 45.5045C52.1731 44.8494 52.7243 43.7515 51.5951 40.0329C50.1812 35.3942 51.4292 31.3665 57.5907 31.412C57.4774 31.3826 57.3812 31.3495 57.268 31.3201C52.6069 30.0284 49.6356 33.834 50.4383 38.2817C50.6907 39.6368 51.1721 40.9788 51.2926 42.4688C51.4454 44.3621 49.0908 44.2742 47.8857 44.4768Z" fill="url(#paint47_radial_1269_596)"/>
<path id="Vector_67" d="M57.0592 30.7582C60.5396 30.0184 61.8542 28.4016 64.5192 26.4265C67.7673 24.0064 70.5858 21.9987 74.5468 20.8357C76.091 20.3827 79.1238 19.9699 80.4942 20.7128C81.2792 21.1344 81.7397 21.8746 81.8752 23.1831C81.9256 23.6717 81.8975 24.4623 81.8998 25.2285C81.9264 26.8633 82.1943 28.3756 84.2921 27.5909C85.7292 27.0536 86.7 26.4193 87.833 25.6257C90.8944 23.3345 92.7704 22.5969 96.7065 22.4914L96.6893 23.3331C93.0675 23.4075 91.3999 24.1186 88.479 26.1481C87.2984 26.9697 86.2383 27.8548 84.672 28.4552C83.2007 28.9997 82.3263 28.8289 81.7403 28.1689C80.2593 26.4866 81.6743 22.4056 80.142 21.5723C79.0953 21.0102 75.987 21.4034 74.7975 21.7632C70.9864 22.8764 68.1021 24.8268 64.9797 27.1667C63.8235 28.0187 59.9404 31.394 57.0799 30.7716L57.0592 30.7582Z" fill="url(#paint48_radial_1269_596)"/>
<path id="Vector_68" style="mix-blend-mode:multiply" opacity="0.5" fill-rule="evenodd" clip-rule="evenodd" d="M29.6149 42.4938L45.0051 45.6062C45.7991 45.063 46.7694 44.6784 47.8892 44.4939C48.7836 44.3394 50.282 44.3419 50.9471 43.6121L35.4436 40.4703C35.0192 40.7388 34.3404 40.901 33.3803 40.998C32.7516 41.0604 32.1059 41.1263 31.544 41.3349C30.7809 41.6041 30.1358 42.0086 29.6185 42.5109L29.6149 42.4938Z" fill="url(#paint49_linear_1269_596)"/>
</g>
<path id="Vector_69" fill-rule="evenodd" clip-rule="evenodd" d="M52.5819 28.4825C53.2264 29.1658 54.0402 29.1355 54.3268 29.6451C54.6693 30.2499 54.7213 32.0042 53.9502 32.7387C54.89 32.3785 57.3362 31.5554 57.7241 30.5278C58.0422 29.6756 57.6986 27.5554 56.4373 27.0746C55.6642 26.7931 55.4623 27.3532 54.6114 27.7123C53.8763 28.0291 53.0694 28.3433 52.5819 28.4825Z" fill="url(#paint50_linear_1269_596)"/>
<path id="Vector_70" fill-rule="evenodd" clip-rule="evenodd" d="M54.538 29.2971C54.3559 28.9435 53.9407 28.8356 53.3668 28.9041C53.5468 29.0798 53.7304 29.2726 53.9104 29.4483C54.171 29.4999 54.294 31.7562 54.1596 31.963C54.1328 32.0044 54.1023 32.0287 54.0547 32.0567C53.7436 32.3546 53.4154 32.6562 53.0872 32.9577C53.1384 32.9469 53.1554 32.9432 53.1896 32.936C53.6502 32.8381 54.3911 32.7163 54.6696 32.2648C54.8711 31.9545 54.9303 31.4783 54.8934 30.969C54.8554 30.3708 54.73 29.6129 54.5721 29.2898L54.538 29.2971Z" fill="url(#paint51_radial_1269_596)"/>
</g>
</g>
<defs>
<radialGradient id="paint0_radial_1269_596" cx="0" cy="0" r="1" gradientUnits="userSpaceOnUse" gradientTransform="translate(27.0762 121.994) rotate(-12) scale(62.3716)">
<stop stop-color="#008DFF"/>
<stop offset="1" stop-color="#005FEB"/>
</radialGradient>
<radialGradient id="paint1_radial_1269_596" cx="0" cy="0" r="1" gradientUnits="userSpaceOnUse" gradientTransform="translate(92.0084 50.2224) rotate(-12) scale(107.354 107.354)">
<stop offset="0.67" stop-color="#001532"/>
<stop offset="0.7" stop-color="#011B39"/>
<stop offset="0.75" stop-color="#032D4D"/>
<stop offset="0.81" stop-color="#084A6D"/>
<stop offset="0.88" stop-color="#0F729B"/>
<stop offset="0.95" stop-color="#17A5D4"/>
<stop offset="1" stop-color="#1ECBFF"/>
</radialGradient>
<radialGradient id="paint2_radial_1269_596" cx="0" cy="0" r="1" gradientUnits="userSpaceOnUse" gradientTransform="translate(77.4126 118.713) rotate(-12) scale(71.4238 71.4239)">
<stop stop-color="#0055D4"/>
<stop offset="1" stop-color="#0046A8"/>
</radialGradient>
<radialGradient id="paint3_radial_1269_596" cx="0" cy="0" r="1" gradientUnits="userSpaceOnUse" gradientTransform="translate(61.1851 76.5134) rotate(-12) scale(70.1332 70.1332)">
<stop stop-color="#3794E6"/>
<stop offset="1" stop-color="#0054C2"/>
</radialGradient>
<radialGradient id="paint4_radial_1269_596" cx="0" cy="0" r="1" gradientUnits="userSpaceOnUse" gradientTransform="translate(55.5393 86.023) rotate(-12) scale(52.8135 52.8135)">
<stop offset="0.08" stop-color="#406DFF"/>
<stop offset="0.16" stop-color="#456FF7"/>
<stop offset="0.28" stop-color="#5478E3"/>
<stop offset="0.42" stop-color="#6C85C3"/>
<stop offset="0.58" stop-color="#8E9795"/>
<stop offset="0.76" stop-color="#BAAF5B"/>
<stop offset="0.95" stop-color="#EECC15"/>
<stop offset="1" stop-color="#FFD500"/>
</radialGradient>
<radialGradient id="paint5_radial_1269_596" cx="0" cy="0" r="1" gradientUnits="userSpaceOnUse" gradientTransform="translate(6.42707 100.599) rotate(-12) scale(74.5285 74.5285)">
<stop stop-color="#6DC9F7"/>
<stop offset="1" stop-color="#3794E6"/>
</radialGradient>
<radialGradient id="paint6_radial_1269_596" cx="0" cy="0" r="1" gradientUnits="userSpaceOnUse" gradientTransform="translate(16.8471 182.423) rotate(-12) scale(130.115 130.115)">
<stop offset="0.89" stop-color="#A4D9F5"/>
<stop offset="0.9" stop-color="#5BBAEE"/>
<stop offset="0.91" stop-color="#2FA8E9"/>
<stop offset="0.92" stop-color="#21A2E8"/>
</radialGradient>
<radialGradient id="paint7_radial_1269_596" cx="0" cy="0" r="1" gradientUnits="userSpaceOnUse" gradientTransform="translate(56.6817 53.0596) rotate(-12) scale(63.4007 63.4007)">
<stop stop-color="#008DFF"/>
<stop offset="1" stop-color="#005FEB"/>
</radialGradient>
<radialGradient id="paint8_radial_1269_596" cx="0" cy="0" r="1" gradientUnits="userSpaceOnUse" gradientTransform="translate(18.7201 70.9358) rotate(-12) scale(35.8079 35.8079)">
<stop stop-color="#0098FF"/>
<stop offset="1" stop-color="#001532"/>
</radialGradient>
<radialGradient id="paint9_radial_1269_596" cx="0" cy="0" r="1" gradientUnits="userSpaceOnUse" gradientTransform="translate(8.11958 40.6111) rotate(-12) scale(64.1158)">
<stop stop-color="#6DC9F7"/>
<stop offset="1" stop-color="#3794E6"/>
</radialGradient>
<radialGradient id="paint10_radial_1269_596" cx="0" cy="0" r="1" gradientUnits="userSpaceOnUse" gradientTransform="translate(32.09 54.5599) rotate(-12) scale(90.9586 90.9586)">
<stop stop-color="#00B8FF"/>
<stop offset="1" stop-color="#0030B0"/>
</radialGradient>
<radialGradient id="paint11_radial_1269_596" cx="0" cy="0" r="1" gradientUnits="userSpaceOnUse" gradientTransform="translate(56.8476 70.5347) rotate(-12) scale(63.6623 63.6623)">
<stop offset="0.08" stop-color="#406DFF"/>
<stop offset="0.16" stop-color="#456FF7"/>
<stop offset="0.28" stop-color="#5478E3"/>
<stop offset="0.42" stop-color="#6C85C3"/>
<stop offset="0.58" stop-color="#8E9795"/>
<stop offset="0.76" stop-color="#BAAF5B"/>
<stop offset="0.95" stop-color="#EECC15"/>
<stop offset="1" stop-color="#FFD500"/>
</radialGradient>
<radialGradient id="paint12_radial_1269_596" cx="0" cy="0" r="1" gradientUnits="userSpaceOnUse" gradientTransform="translate(14.6603 43.4469) rotate(-12) scale(89.5633 89.5632)">
<stop stop-color="#6DC9F7"/>
<stop offset="1" stop-color="#3794E6"/>
</radialGradient>
<radialGradient id="paint13_radial_1269_596" cx="0" cy="0" r="1" gradientUnits="userSpaceOnUse" gradientTransform="translate(141.899 163.047) rotate(-12) scale(133.673 133.673)">
<stop offset="0.89" stop-color="#D3ECFA"/>
<stop offset="0.9" stop-color="#A4D9F5"/>
<stop offset="0.91" stop-color="#7CC8F1"/>
<stop offset="0.92" stop-color="#5BBAEE"/>
<stop offset="0.93" stop-color="#41AFEB"/>
<stop offset="0.94" stop-color="#2FA8E9"/>
<stop offset="0.95" stop-color="#24A3E8"/>
<stop offset="0.96" stop-color="#21A2E8"/>
</radialGradient>
<radialGradient id="paint14_radial_1269_596" cx="0" cy="0" r="1" gradientUnits="userSpaceOnUse" gradientTransform="translate(96.0075 102.759) rotate(-12) scale(120.487 120.487)">
<stop offset="0.67" stop-color="#001532"/>
<stop offset="0.7" stop-color="#011B39"/>
<stop offset="0.75" stop-color="#032D4D"/>
<stop offset="0.81" stop-color="#084A6D"/>
<stop offset="0.88" stop-color="#0F729B"/>
<stop offset="0.95" stop-color="#17A5D4"/>
<stop offset="1" stop-color="#1ECBFF"/>
</radialGradient>
<radialGradient id="paint15_radial_1269_596" cx="0" cy="0" r="1" gradientUnits="userSpaceOnUse" gradientTransform="translate(55.889 53.442) rotate(-12) scale(58.2379 58.2379)">
<stop stop-color="#005EEA"/>
<stop offset="1" stop-color="#0046A8"/>
</radialGradient>
<radialGradient id="paint16_radial_1269_596" cx="0" cy="0" r="1" gradientUnits="userSpaceOnUse" gradientTransform="translate(57.5693 40.7099) rotate(-12) scale(62.7553 62.7553)">
<stop stop-color="#3794E6"/>
<stop offset="1" stop-color="#0054C2"/>
</radialGradient>
<radialGradient id="paint17_radial_1269_596" cx="0" cy="0" r="1" gradientUnits="userSpaceOnUse" gradientTransform="translate(56.3093 53.4062) rotate(-12) scale(23.337 23.337)">
<stop stop-color="#0076FF"/>
<stop offset="0.48" stop-color="#004395"/>
<stop offset="0.84" stop-color="#00224D"/>
<stop offset="1" stop-color="#001532"/>
</radialGradient>
<linearGradient id="paint18_linear_1269_596" x1="19.4428" y1="33.8177" x2="51.4655" y2="27.0111" gradientUnits="userSpaceOnUse">
<stop stop-color="#FFBD00"/>
<stop offset="1" stop-color="#D67200"/>
</linearGradient>
<radialGradient id="paint19_radial_1269_596" cx="0" cy="0" r="1" gradientUnits="userSpaceOnUse" gradientTransform="translate(24.3059 31.6964) rotate(-12) scale(19.7615)">
<stop stop-color="#FFC382"/>
<stop offset="1" stop-color="#9E2410"/>
</radialGradient>
<linearGradient id="paint20_linear_1269_596" x1="50.4249" y1="27.2323" x2="82.4306" y2="20.4293" gradientUnits="userSpaceOnUse">
<stop stop-color="#A63A00"/>
<stop offset="1" stop-color="#FFBD00"/>
</linearGradient>
<radialGradient id="paint21_radial_1269_596" cx="0" cy="0" r="1" gradientUnits="userSpaceOnUse" gradientTransform="translate(72.3694 14.7042) rotate(-12) scale(22.7615 22.7614)">
<stop stop-color="#E8814D"/>
<stop offset="1" stop-color="#9E3726"/>
</radialGradient>
<linearGradient id="paint22_linear_1269_596" x1="30.954" y1="67.5866" x2="38.1207" y2="30.6679" gradientUnits="userSpaceOnUse">
<stop stop-color="#9E6551"/>
<stop offset="0.01" stop-color="#AF7041"/>
<stop offset="0.02" stop-color="#CD8524"/>
<stop offset="0.03" stop-color="#E39410"/>
<stop offset="0.04" stop-color="#F09C04"/>
<stop offset="0.05" stop-color="#F5A000"/>
<stop offset="0.36" stop-color="#F5AF00"/>
<stop offset="0.46" stop-color="#FFDD57"/>
<stop offset="0.58" stop-color="#FFB54D"/>
<stop offset="1" stop-color="#E08A00"/>
</linearGradient>
<radialGradient id="paint23_radial_1269_596" cx="0" cy="0" r="1" gradientUnits="userSpaceOnUse" gradientTransform="translate(34.0499 50.274) rotate(-12) scale(19.0987)">
<stop stop-color="#E8814D"/>
<stop offset="1" stop-color="#9E3726"/>
</radialGradient>
<linearGradient id="paint24_linear_1269_596" x1="64.3993" y1="25.2783" x2="85.3361" y2="56.3303" gradientUnits="userSpaceOnUse">
<stop stop-color="#B05B00"/>
<stop offset="0.42" stop-color="#F5A000"/>
<stop offset="0.54" stop-color="#FFCC14"/>
<stop offset="0.64" stop-color="#F5A000"/>
<stop offset="0.95" stop-color="#BD6500"/>
<stop offset="0.96" stop-color="#B96003"/>
<stop offset="0.98" stop-color="#B0530D"/>
<stop offset="0.99" stop-color="#9C3723"/>
</linearGradient>
<radialGradient id="paint25_radial_1269_596" cx="0" cy="0" r="1" gradientUnits="userSpaceOnUse" gradientTransform="translate(76.9677 40.6165) rotate(-12) scale(23.5638 23.5638)">
<stop stop-color="#FFDD57"/>
<stop offset="1" stop-color="#9E3726"/>
</radialGradient>
<radialGradient id="paint26_radial_1269_596" cx="0" cy="0" r="1" gradientUnits="userSpaceOnUse" gradientTransform="translate(78.1835 39.8766) rotate(-12) scale(13.1685 13.1685)">
<stop stop-color="#FFF2BB"/>
<stop offset="1"/>
</radialGradient>
<radialGradient id="paint27_radial_1269_596" cx="0" cy="0" r="1" gradientUnits="userSpaceOnUse" gradientTransform="translate(30.6018 50.5789) rotate(-12) scale(20.6336 20.6336)">
<stop stop-color="#FFF2BB"/>
<stop offset="1"/>
</radialGradient>
<radialGradient id="paint28_radial_1269_596" cx="0" cy="0" r="1" gradientUnits="userSpaceOnUse" gradientTransform="translate(25.3084 76.0083) rotate(-12) scale(39.6799 39.6799)">
<stop stop-color="#E8814D"/>
<stop offset="1" stop-color="#9E3726"/>
</radialGradient>
<radialGradient id="paint29_radial_1269_596" cx="0" cy="0" r="1" gradientUnits="userSpaceOnUse" gradientTransform="translate(21.6869 75.8329) rotate(-12) scale(44.8252 44.8252)">
<stop stop-color="#FFC500"/>
<stop offset="1" stop-color="#F59714"/>
</radialGradient>
<radialGradient id="paint30_radial_1269_596" cx="0" cy="0" r="1" gradientUnits="userSpaceOnUse" gradientTransform="translate(31.2638 72.3173) rotate(-12) scale(14.6685 14.6685)">
<stop stop-color="#FFF2BB"/>
<stop offset="1"/>
</radialGradient>
<radialGradient id="paint31_radial_1269_596" cx="0" cy="0" r="1" gradientUnits="userSpaceOnUse" gradientTransform="translate(50.2567 84.8278) rotate(-12) scale(48.8368 48.8368)">
<stop stop-color="#E8814D"/>
<stop offset="1" stop-color="#9E3726"/>
</radialGradient>
<radialGradient id="paint32_radial_1269_596" cx="0" cy="0" r="1" gradientUnits="userSpaceOnUse" gradientTransform="translate(52.4609 81.524) rotate(-12) scale(58.9181 58.9182)">
<stop stop-color="#FFBD00"/>
<stop offset="1" stop-color="#9C3600"/>
</radialGradient>
<linearGradient id="paint33_linear_1269_596" x1="65.9762" y1="31.7694" x2="66.4977" y2="1.50569" gradientUnits="userSpaceOnUse">
<stop stop-color="#8F3508"/>
<stop offset="0.21" stop-color="#BD500B"/>
<stop offset="0.7" stop-color="#F7A100"/>
<stop offset="1" stop-color="#964324"/>
</linearGradient>
<linearGradient id="paint34_linear_1269_596" x1="57.6227" y1="32.065" x2="63.023" y2="-0.412584" gradientUnits="userSpaceOnUse">
<stop offset="0.3" stop-color="#C25D0A"/>
<stop offset="0.86" stop-color="#FFF14F"/>
<stop offset="0.94" stop-color="#F5B90A"/>
<stop offset="1" stop-color="#E68A00"/>
</linearGradient>
<radialGradient id="paint35_radial_1269_596" cx="0" cy="0" r="1" gradientUnits="userSpaceOnUse" gradientTransform="translate(59.9597 6.81836) rotate(-12) scale(38.8078 38.8078)">
<stop stop-color="#F59F41"/>
<stop offset="1" stop-color="#A64416"/>
</radialGradient>
<linearGradient id="paint36_linear_1269_596" x1="42.6133" y1="40.9792" x2="45.0381" y2="29.5689" gradientUnits="userSpaceOnUse">
<stop offset="0.05" stop-color="#B7402C"/>
<stop offset="1" stop-color="#E68A00"/>
</linearGradient>
<linearGradient id="paint37_linear_1269_596" x1="39.3158" y1="31.3379" x2="39.5607" y2="17.3061" gradientUnits="userSpaceOnUse">
<stop stop-color="#D46C2C"/>
<stop offset="1" stop-color="#964324"/>
</linearGradient>
<linearGradient id="paint38_linear_1269_596" x1="27.4321" y1="38.7675" x2="31.0851" y2="16.8608" gradientUnits="userSpaceOnUse">
<stop stop-color="#F28B1D"/>
<stop offset="0.41" stop-color="#FFDC2B"/>
<stop offset="0.55" stop-color="#FFF79D"/>
<stop offset="0.78" stop-color="#F5B90A"/>
<stop offset="1" stop-color="#E68A00"/>
</linearGradient>
<radialGradient id="paint39_radial_1269_596" cx="0" cy="0" r="1" gradientUnits="userSpaceOnUse" gradientTransform="translate(36.6721 21.1654) rotate(-12) scale(33.9939 33.9939)">
<stop stop-color="#F59F41"/>
<stop offset="1" stop-color="#A64416"/>
</radialGradient>
<radialGradient id="paint40_radial_1269_596" cx="0" cy="0" r="1" gradientUnits="userSpaceOnUse" gradientTransform="translate(33.187 24.9019) rotate(-12) scale(17.8255 17.8254)">
<stop stop-color="#FFF2BB"/>
<stop offset="1"/>
</radialGradient>
<radialGradient id="paint41_radial_1269_596" cx="0" cy="0" r="1" gradientUnits="userSpaceOnUse" gradientTransform="translate(62.7097 7.0897) rotate(-12) scale(19.7266 19.7266)">
<stop stop-color="#FFF2BB"/>
<stop offset="1"/>
</radialGradient>
<radialGradient id="paint42_radial_1269_596" cx="0" cy="0" r="1" gradientUnits="userSpaceOnUse" gradientTransform="translate(76.938 18.8297) rotate(-12) scale(11.9476 11.9476)">
<stop stop-color="#FFF2BB"/>
<stop offset="1"/>
</radialGradient>
<linearGradient id="paint43_linear_1269_596" x1="80.9897" y1="24.6374" x2="95.4646" y2="18.4937" gradientUnits="userSpaceOnUse">
<stop stop-color="#B85400"/>
<stop offset="0.36" stop-color="#F4A633"/>
<stop offset="0.68" stop-color="#FFCF21"/>
<stop offset="0.75" stop-color="#FCC921"/>
<stop offset="0.83" stop-color="#F5BA22"/>
<stop offset="0.92" stop-color="#EAA024"/>
<stop offset="0.98" stop-color="#E08A26"/>
</linearGradient>
<linearGradient id="paint44_linear_1269_596" x1="81.0916" y1="24.8654" x2="86.3566" y2="22.6229" gradientUnits="userSpaceOnUse">
<stop stop-color="#EB7900"/>
<stop offset="0.13" stop-color="#EB7A03"/>
<stop offset="0.26" stop-color="#EC800E"/>
<stop offset="0.38" stop-color="#ED8A21"/>
<stop offset="0.49" stop-color="#EF983B"/>
<stop offset="0.61" stop-color="#F2AA5D"/>
<stop offset="0.72" stop-color="#F5C087"/>
<stop offset="0.84" stop-color="#F9DAB9"/>
<stop offset="0.95" stop-color="#FDF7F0"/>
<stop offset="0.97" stop-color="white"/>
</linearGradient>
<linearGradient id="paint45_linear_1269_596" x1="37.577" y1="62.5023" x2="44.6689" y2="29.5938" gradientUnits="userSpaceOnUse">
<stop stop-color="#FFC85E"/>
<stop offset="0.16" stop-color="#FFBF21"/>
<stop offset="0.33" stop-color="#FFDD57"/>
<stop offset="0.48" stop-color="#FFB54D"/>
<stop offset="0.61" stop-color="#E07F2D"/>
<stop offset="0.77" stop-color="#F4A633"/>
<stop offset="0.88" stop-color="#FFD500"/>
<stop offset="0.94" stop-color="#E79311"/>
<stop offset="1" stop-color="#E08A00"/>
</linearGradient>
<linearGradient id="paint46_linear_1269_596" x1="54.1067" y1="24.7525" x2="81.0112" y2="19.0338" gradientUnits="userSpaceOnUse">
<stop stop-color="#B85400"/>
<stop offset="0.48" stop-color="#FFB54D"/>
<stop offset="0.69" stop-color="#F4A633"/>
<stop offset="0.84" stop-color="#FFD500"/>
<stop offset="0.98" stop-color="#BD6500"/>
</linearGradient>
<radialGradient id="paint47_radial_1269_596" cx="0" cy="0" r="1" gradientUnits="userSpaceOnUse" gradientTransform="translate(34.816 46.5773) rotate(-12) scale(27.6451 27.6451)">
<stop stop-color="#F59F41"/>
<stop offset="1" stop-color="#A64416"/>
</radialGradient>
<radialGradient id="paint48_radial_1269_596" cx="0" cy="0" r="1" gradientUnits="userSpaceOnUse" gradientTransform="translate(89.5076 15.5516) rotate(-12) scale(34.4649 34.4648)">
<stop stop-color="#F59F41"/>
<stop offset="1" stop-color="#A64416"/>
</radialGradient>
<linearGradient id="paint49_linear_1269_596" x1="39.9672" y1="44.5551" x2="40.5751" y2="41.6263" gradientUnits="userSpaceOnUse">
<stop offset="0.03" stop-color="white"/>
<stop offset="0.55" stop-color="#EB7900"/>
<stop offset="0.61" stop-color="#EB7A03"/>
<stop offset="0.66" stop-color="#EC800E"/>
<stop offset="0.71" stop-color="#ED8A21"/>
<stop offset="0.76" stop-color="#EF983B"/>
<stop offset="0.81" stop-color="#F2AA5D"/>
<stop offset="0.86" stop-color="#F5C087"/>
<stop offset="0.91" stop-color="#F9DAB9"/>
<stop offset="0.96" stop-color="#FDF7F0"/>
<stop offset="0.97" stop-color="white"/>
</linearGradient>
<linearGradient id="paint50_linear_1269_596" x1="56.76" y1="32.2841" x2="54.2325" y2="27.7751" gradientUnits="userSpaceOnUse">
<stop stop-color="#8F3508"/>
<stop offset="0.21" stop-color="#BD500B"/>
<stop offset="0.7" stop-color="#F7A100"/>
<stop offset="1" stop-color="#964324"/>
</linearGradient>
<radialGradient id="paint51_radial_1269_596" cx="0" cy="0" r="1" gradientUnits="userSpaceOnUse" gradientTransform="translate(50.2572 28.62) rotate(-12) scale(5.80809 5.80809)">
<stop stop-color="#FFC382"/>
<stop offset="1" stop-color="#9E3726"/>
</radialGradient>
</defs>
</svg>
