<svg width="130" height="46" viewBox="0 0 130 46" fill="none" xmlns="http://www.w3.org/2000/svg">
<path d="M22.0151 4.33964C22.0151 6.48939 22.0151 8.58868 22.0151 10.7435C21.8336 10.7031 21.6723 10.6779 21.5211 10.6375C19.0611 9.98652 16.5659 9.57777 14.0202 9.54245C13.012 9.52731 11.9988 9.52731 11.0209 9.79981C10.5571 9.92597 10.0883 10.1076 9.69007 10.37C8.5609 11.122 8.48529 12.6409 9.52372 13.519C9.82617 13.7763 10.179 14.0034 10.542 14.1548C11.4695 14.5434 12.4122 14.8966 13.3548 15.2398C14.8671 15.7898 16.3945 16.2945 17.8967 16.8799C19.041 17.3239 20.1046 17.9396 21.0926 18.6764C22.9376 20.054 23.9155 21.9111 24.1676 24.1769C24.3642 25.9381 24.2331 27.669 23.6383 29.3444C22.8569 31.5496 21.3598 33.1544 19.3585 34.31C17.8261 35.1931 16.1626 35.7179 14.4285 35.9804C10.2647 36.6011 6.16143 36.3033 2.12869 35.0972C1.58428 34.9358 1.06002 34.7137 0.525683 34.522C0.525683 32.3167 0.525683 30.1569 0.525683 27.9768C1.35743 28.1585 2.15894 28.3402 2.96045 28.5016C5.33472 28.976 7.72915 29.2788 10.1538 29.3292C11.1469 29.3494 12.1349 29.3091 13.1028 29.0618C13.4103 28.9861 13.7178 28.8801 14.0001 28.7439C15.1091 28.1989 15.5879 26.9322 15.0788 25.7968C14.9477 25.5041 14.7108 25.2215 14.4537 25.0348C14.0454 24.7471 13.5968 24.4948 13.133 24.3182C11.5653 23.7227 9.98748 23.1626 8.40463 22.6024C6.91252 22.0726 5.47082 21.4569 4.12994 20.6041C1.68509 19.0448 0.329087 16.8344 0.0619185 13.9429C-0.0489816 12.762 -0.0237771 11.5963 0.243392 10.4357C0.742442 8.27581 1.9573 6.59537 3.71154 5.27826C5.25406 4.1176 7.01838 3.43634 8.8936 3.04777C11.1318 2.5835 13.3901 2.57341 15.6585 2.81059C17.6698 3.02254 19.6308 3.45653 21.5312 4.13779C21.6875 4.20339 21.8387 4.26899 22.0151 4.33964Z" fill="#FFA104"/>
<path d="M52.3314 11.7228C54.6956 11.7228 57.0094 11.7228 59.3585 11.7228C59.6004 12.4898 59.8424 13.2518 60.1045 14.0845C60.2961 13.9533 60.4422 13.8574 60.5884 13.7565C62.1259 12.6765 63.7642 11.8086 65.6041 11.3746C67.3029 10.9709 69.0219 10.8447 70.7459 11.1979C73.3671 11.7379 75.0357 13.4991 75.439 16.1383C75.5347 16.7641 75.5751 17.41 75.5801 18.0459C75.5902 23.6726 75.5852 29.3043 75.5852 34.931C75.5852 35.0976 75.5852 35.2641 75.5852 35.4659C72.6967 35.4659 69.8536 35.4659 66.9349 35.4659C66.9299 35.2843 66.9198 35.0925 66.9198 34.8957C66.9198 29.9906 66.9198 25.0856 66.9148 20.1754C66.9148 19.691 66.8896 19.1964 66.7938 18.7271C66.6123 17.8188 66.1133 17.3848 65.1958 17.2233C64.4649 17.0921 63.7491 17.188 63.0585 17.41C62.4889 17.5917 61.9444 17.8693 61.3899 18.1014C61.0774 18.2326 60.9514 18.4395 60.9564 18.7978C60.9816 19.8373 60.9665 20.8819 60.9665 21.9215C60.9665 26.2059 60.9665 30.4902 60.9665 34.7746C60.9665 34.9916 60.9665 35.2086 60.9665 35.4155C60.5683 35.5215 52.8809 35.5416 52.3314 35.4407C52.3314 27.5532 52.3314 19.6658 52.3314 11.7228Z" fill="#FFA104"/>
<path d="M27.9535 18.3183C27.9434 18.1871 27.9283 18.0407 27.9283 17.8944C27.9283 16.4309 27.9384 14.9725 27.9182 13.5091C27.9132 13.1609 28.0493 13.0045 28.3417 12.8733C29.8943 12.1617 31.5275 11.7277 33.2011 11.4249C35.1267 11.0767 37.0675 10.9556 39.0183 11.0263C40.3138 11.0767 41.5942 11.2483 42.8343 11.6369C45.5513 12.4847 47.1342 14.3367 47.6282 17.1173C47.7593 17.8591 47.8349 18.616 47.8349 19.3679C47.855 24.5758 47.845 29.7836 47.845 34.9965C47.845 35.1429 47.8298 35.2943 47.8248 35.4709C45.5766 35.4709 43.3485 35.4709 41.075 35.4709C40.8734 34.9108 40.6617 34.3304 40.4348 33.7097C40.3189 33.7804 40.2181 33.8308 40.1374 33.8964C38.5949 35.2287 36.8054 36.031 34.784 36.2632C33.2314 36.4398 31.6888 36.3338 30.2371 35.698C27.7166 34.5979 26.3455 32.65 26.0884 29.9148C26.0027 29.0065 26.0279 28.1032 26.2497 27.21C26.7235 25.2823 27.8628 23.839 29.5263 22.7944C30.9478 21.9012 32.5206 21.4622 34.1791 21.2956C35.9484 21.119 37.6976 21.2654 39.4418 21.5732C39.5375 21.5883 39.6384 21.5883 39.7997 21.5984C39.8148 20.4983 39.9307 19.4133 39.4418 18.3839C39.1544 17.7783 38.6503 17.4402 38.0303 17.2535C37.1179 16.981 36.1803 16.9507 35.2376 16.9911C32.9743 17.087 30.7865 17.5815 28.6189 18.2073C28.4425 18.2577 28.261 18.3031 28.0846 18.3435C28.0543 18.3637 28.0191 18.3385 27.9535 18.3183ZM39.8148 26.0039C39.1948 25.9434 38.6302 25.8576 38.0656 25.8475C37.4304 25.8374 36.7852 25.8424 36.1652 25.9433C35.2628 26.0846 34.5722 26.554 34.29 27.4774C34.1034 28.083 34.0883 28.7037 34.2748 29.3143C34.5269 30.1167 35.0562 30.6466 35.898 30.7879C37.3397 31.025 38.5646 30.5002 39.6535 29.607C39.7442 29.5364 39.8098 29.3799 39.8098 29.2639C39.8198 28.1991 39.8148 27.1444 39.8148 26.0039Z" fill="#FFA104"/>
<path d="M112.827 21.5982C112.868 20.5536 112.913 19.5342 112.53 18.5552C112.258 17.8588 111.718 17.4602 111.023 17.2583C110.125 16.9959 109.203 16.9656 108.28 17.001C106.017 17.0968 103.829 17.5863 101.662 18.207C101.455 18.2676 101.248 18.3231 100.996 18.3938C100.996 16.5922 100.996 14.8411 100.996 13.0648C102.045 12.5147 103.174 12.1312 104.328 11.8335C106.95 11.1573 109.616 10.905 112.313 11.0362C113.573 11.0967 114.813 11.2935 116.018 11.6972C118.498 12.5198 120.001 14.2154 120.575 16.7486C120.847 17.9345 120.883 19.1457 120.852 20.3568C120.852 20.4224 120.827 20.483 120.812 20.5435C120.182 20.6243 119.567 20.6747 118.957 20.7807C118.549 20.8513 118.14 20.9725 117.747 21.1138C116.437 21.5932 115.771 22.668 115.907 24.0659C116.003 25.0701 116.361 25.9936 116.875 26.8515C117.626 28.0979 118.594 29.1678 119.668 30.1417C119.965 30.4142 120.293 30.5353 120.731 30.2931C120.782 30.4949 120.847 30.6514 120.847 30.8078C120.852 32.3015 120.847 33.8003 120.842 35.294C120.842 35.3445 120.817 35.3899 120.797 35.4707C118.574 35.4707 116.346 35.4707 114.077 35.4707C113.871 34.9004 113.654 34.31 113.422 33.6742C113.226 33.8356 113.074 33.9669 112.918 34.088C110.191 36.2175 107.141 36.919 103.824 35.8996C101.107 35.0619 99.5445 33.1241 99.1361 30.2881C99 29.3494 99.0101 28.4108 99.2017 27.4823C99.6554 25.3073 100.931 23.7328 102.821 22.6327C104.177 21.8455 105.664 21.4569 107.222 21.3055C108.976 21.139 110.71 21.2752 112.434 21.5831C112.55 21.5932 112.666 21.5881 112.827 21.5982ZM112.847 26.0289C111.693 25.8674 110.594 25.7413 109.485 25.8876C109.188 25.928 108.89 26.0037 108.608 26.1046C107.771 26.4124 107.318 27.0432 107.207 27.9112C107.166 28.2392 107.166 28.5824 107.207 28.9154C107.313 29.9096 107.978 30.6413 108.961 30.7927C110.387 31.0147 111.592 30.4849 112.671 29.6017C112.762 29.526 112.837 29.3797 112.842 29.2636C112.852 28.2039 112.847 27.1492 112.847 26.0289Z" fill="#FFA104"/>
<path d="M80.5254 17.5912C79.4164 17.5912 78.383 17.5912 77.3597 17.5912C77.2336 17.1976 77.2034 13.3674 77.3143 12.7013C77.9444 12.5499 78.5947 12.3884 79.245 12.232C79.6029 12.1462 79.9608 12.0453 80.3237 11.9847C80.6463 11.9292 80.7925 11.7829 80.8631 11.4448C81.2311 9.65329 81.6344 7.86688 82.0225 6.08046C82.0628 5.89879 82.1082 5.72217 82.1536 5.51527C84.4825 5.51527 86.8063 5.51527 89.1907 5.51527C89.1907 7.56409 89.1907 9.58769 89.1907 11.6567C89.7401 11.7425 90.2392 11.692 90.7332 11.7021C91.2222 11.7122 91.7061 11.7021 92.1951 11.7021C92.6992 11.7021 93.2032 11.7021 93.7073 11.7021C94.1913 11.7021 94.6702 11.7021 95.1843 11.7021C95.1843 13.6652 95.1843 15.5727 95.1843 17.5559C94.5492 17.6114 93.8989 17.571 93.2537 17.5811C92.5832 17.5862 91.9128 17.5811 91.2373 17.5811C90.587 17.5811 89.9367 17.5811 89.236 17.5811C89.2209 17.7931 89.2008 17.9546 89.2008 18.1161C89.2008 21.0379 89.1957 23.9598 89.2008 26.8866C89.2008 27.1692 89.226 27.4569 89.2713 27.7395C89.4074 28.5217 89.8359 29.0667 90.6223 29.2635C91.0609 29.3695 91.5145 29.4603 91.9632 29.4603C92.8 29.4502 93.6368 29.3695 94.4735 29.314C94.7256 29.2988 94.9726 29.2584 95.2952 29.2231C95.3305 31.1155 95.3003 32.9877 95.3154 34.8801C95.1843 34.9356 95.0684 35.0012 94.9424 35.0416C92.0438 35.9701 89.0949 36.1922 86.1006 35.6068C85.7074 35.5311 85.3193 35.41 84.9412 35.2737C82.6274 34.4512 81.3017 32.7657 80.8379 30.3989C80.6564 29.4653 80.5606 28.5015 80.5506 27.5477C80.5153 24.4593 80.5354 21.3659 80.5354 18.2775C80.5254 18.0706 80.5254 17.8688 80.5254 17.5912Z" fill="#FFA104"/>
<path d="M109.823 0C112.137 0.0555101 114.173 0.368385 116.074 1.24645C116.784 1.57447 117.455 2.00846 118.1 2.44749C118.644 2.81588 119.078 3.31547 119.401 3.90085C120.061 5.07665 119.89 6.31301 118.932 7.26678C118.473 7.72095 117.924 8.04392 117.334 8.29624C115.968 8.88162 114.526 9.08347 113.054 9.06329C111.007 9.03805 109.016 8.6949 107.121 7.87739C106.224 7.48882 105.382 7.00436 104.656 6.33824C104.217 5.93958 103.839 5.49045 103.592 4.95049C103.103 3.88066 103.229 2.87139 104.016 2.00341C104.369 1.61484 104.822 1.29692 105.281 1.02441C106.158 0.509684 107.146 0.267458 108.144 0.136252C108.779 0.0555101 109.42 0.0302782 109.823 0ZM112.999 7.6503C113.926 7.63012 114.985 7.57965 115.983 7.18603C116.366 7.03464 116.749 6.82774 117.067 6.56533C117.581 6.14144 117.641 5.59138 117.273 5.03628C117.087 4.76378 116.855 4.49632 116.588 4.3096C116.139 3.99168 115.665 3.69394 115.161 3.4719C113.235 2.62411 111.204 2.32133 109.112 2.45758C108.341 2.50805 107.57 2.61907 106.859 2.94204C106.496 3.10352 106.138 3.31547 105.846 3.57788C105.417 3.9614 105.362 4.46099 105.664 4.95049C105.846 5.24318 106.077 5.54092 106.36 5.73268C106.884 6.09097 107.433 6.42908 108.013 6.6814C109.551 7.34752 111.189 7.60993 112.999 7.6503Z" fill="#FFA104"/>
<path d="M63.2301 43.2223C63.1293 43.6765 63.0788 44.1509 62.9125 44.5799C62.5747 45.458 61.8891 45.9274 60.9464 45.9879C60.6489 46.0081 60.3364 46.0081 60.044 45.9476C59.2021 45.776 58.6374 45.2612 58.3551 44.4537C58.093 43.7068 58.0829 42.9397 58.2896 42.1726C58.5971 41.0421 59.4188 40.4365 60.6288 40.4213C61.8437 40.4112 62.6957 41.0068 63.0133 42.112C63.094 42.3845 63.1141 42.6722 63.1545 42.9548C63.1646 43.0356 63.1545 43.1214 63.1545 43.2071C63.1847 43.2122 63.2049 43.2172 63.2301 43.2223ZM62.4386 43.2273C62.3529 42.8236 62.3126 42.4199 62.1815 42.0464C61.9546 41.3903 61.4253 41.0673 60.7044 41.0522C59.9633 41.0421 59.4037 41.3752 59.1567 42.0262C58.8643 42.8085 58.8643 43.6058 59.1517 44.3881C59.3886 45.0391 59.9532 45.3874 60.6893 45.3823C61.4051 45.3773 61.9446 45.0492 62.1765 44.4032C62.3025 44.0298 62.3479 43.626 62.4386 43.2273Z" fill="#FFA104"/>
<path d="M35.0913 40.5574C35.8525 40.5574 36.5885 40.5272 37.3246 40.5675C37.9951 40.6029 38.5042 41.0772 38.6454 41.693C38.8067 42.3945 38.5597 43.0303 37.9799 43.4038C37.869 43.4745 37.7531 43.5401 37.5968 43.6259C38.0505 44.3627 38.4891 45.0844 38.963 45.8565C38.7714 45.8666 38.6403 45.8666 38.5194 45.8818C38.2421 45.9222 38.0959 45.796 37.9648 45.5638C37.6825 45.0692 37.3599 44.5949 37.0876 44.0952C36.9313 43.8126 36.7448 43.6612 36.4121 43.7066C36.2205 43.7319 36.0189 43.7117 35.7718 43.7117C35.7718 44.4636 35.7718 45.145 35.7718 45.8515C35.5248 45.8515 35.3282 45.8515 35.1316 45.8515C35.0257 45.5235 34.9904 41.4305 35.0913 40.5574ZM35.792 43.1111C36.1399 43.1111 36.4423 43.1161 36.7398 43.1111C36.891 43.1111 37.0422 43.1061 37.1884 43.0808C37.627 43.0051 37.869 42.7124 37.8993 42.243C37.9396 41.6829 37.7581 41.3044 37.3246 41.2034C36.8255 41.0823 36.3113 41.1328 35.792 41.1782C35.792 41.8292 35.792 42.4247 35.792 43.1111Z" fill="#FFA104"/>
<path d="M15.0282 40.7692C15.0282 40.9509 15.0282 41.1124 15.0282 41.3243C14.8467 41.284 14.6904 41.2385 14.5291 41.2234C14.0956 41.183 13.662 41.1124 13.2335 41.1427C12.4319 41.1982 11.9732 41.6171 11.8118 42.3993C11.6909 42.9797 11.6909 43.5651 11.8371 44.1455C11.9833 44.741 12.3614 45.1145 12.9512 45.2507C13.4452 45.3668 13.9443 45.3517 14.4737 45.2507C14.4737 44.7309 14.4737 44.2363 14.4737 43.6862C14.1208 43.6862 13.7628 43.6862 13.3394 43.6862C13.3293 43.4642 13.3192 43.2976 13.3142 43.0958C13.9595 43.0958 14.5543 43.0958 15.1845 43.0958C15.1996 43.2219 15.2248 43.333 15.2248 43.449C15.2299 44.0546 15.2147 44.6603 15.2349 45.2608C15.245 45.5485 15.129 45.6898 14.8669 45.7705C14.1107 46.0027 13.3495 46.0683 12.5832 45.8563C11.8068 45.6444 11.3128 45.1246 11.096 44.3575C10.9044 43.6812 10.9044 42.9948 11.0506 42.3135C11.2674 41.3042 11.8875 40.6935 12.9109 40.5118C13.6318 40.3806 14.3375 40.4513 15.0282 40.7692Z" fill="#FFA104"/>
<path d="M82.9447 40.5683C83.2119 40.5683 83.4236 40.5683 83.6958 40.5683C83.6958 40.7601 83.6958 40.9216 83.6958 41.0831C83.6958 41.9209 83.6958 42.7637 83.6958 43.6014C83.6958 43.7377 83.7009 43.8689 83.6958 44.0052C83.6656 45.3426 84.8704 45.5747 85.6519 45.2618C86.1661 45.0549 86.3576 44.6158 86.3627 44.091C86.3728 43.1169 86.3677 42.1429 86.3677 41.1689C86.3677 40.9872 86.3677 40.8055 86.3677 40.5835C86.6299 40.5835 86.8517 40.5835 87.1038 40.5835C87.1138 40.7197 87.134 40.8509 87.134 40.9771C87.134 41.9663 87.139 42.9554 87.134 43.9497C87.134 44.1515 87.1038 44.3534 87.0685 44.5452C86.9223 45.2971 86.4635 45.7917 85.7174 45.928C85.2637 46.0087 84.7747 46.0087 84.326 45.9229C83.5194 45.7715 83.0001 45.1861 82.9598 44.3332C82.9094 43.0967 82.9447 41.8552 82.9447 40.5683Z" fill="#FFA104"/>
<path d="M107.791 43.7928C107.791 44.5195 107.791 45.1806 107.791 45.867C107.519 45.867 107.307 45.867 107.065 45.867C107.065 44.1107 107.065 42.3746 107.065 40.6032C107.171 40.583 107.282 40.5477 107.393 40.5477C107.947 40.5427 108.502 40.5376 109.051 40.5477C110.059 40.5729 110.659 41.1735 110.669 42.1475C110.68 43.1417 110.08 43.7575 109.046 43.7928C108.648 43.8029 108.25 43.7928 107.791 43.7928ZM107.821 43.1872C108.28 43.1872 108.683 43.2074 109.081 43.1821C109.51 43.1569 109.777 42.9348 109.853 42.521C109.898 42.2838 109.888 42.0214 109.848 41.7791C109.782 41.4057 109.51 41.1886 109.147 41.1634C108.718 41.1331 108.285 41.1584 107.826 41.1584C107.821 41.8397 107.821 42.4857 107.821 43.1872Z" fill="#FFA104"/>
<path d="M121.593 28.194C121.623 28.3504 121.628 28.522 121.689 28.6633C121.951 29.2992 122.213 29.93 122.5 30.5557C122.677 30.9392 122.702 30.9342 122.576 31.3228C122.329 31.3076 122.137 31.1663 121.996 30.9846C121.563 30.4295 121.094 29.8946 120.746 29.2891C120.257 28.4514 119.859 27.5582 119.425 26.6851C119.355 26.5438 119.289 26.3975 119.168 26.1502C119.042 26.4631 119.087 26.67 119.133 26.8719C119.329 27.7651 119.692 28.5927 120.131 29.39C120.242 29.5918 120.358 29.7937 120.519 30.0813C120.353 30.0813 120.247 30.1066 120.161 30.0763C120.07 30.046 119.99 29.9703 119.919 29.9047C118.846 28.8551 117.878 27.7196 117.157 26.3924C116.794 25.7263 116.547 25.0097 116.436 24.2578C116.239 22.9861 116.789 22.0475 117.989 21.6085C120.701 20.6093 123.428 21.336 125.217 23.6169C125.878 24.4597 126.412 25.3983 126.956 26.3268C127.909 27.9467 128.821 29.5918 129.749 31.2269C129.815 31.3429 129.885 31.459 129.941 31.5801C130.117 31.9788 129.885 32.3018 129.452 32.2412C129.255 32.2109 129.063 32.1302 128.882 32.0494C128.025 31.6457 127.339 31.0301 126.79 30.2731C126.316 29.6221 125.898 28.9308 125.454 28.2596C125.384 28.1536 125.303 28.0527 125.162 27.977C125.192 28.083 125.207 28.194 125.253 28.2899C125.762 29.395 126.367 30.4346 127.203 31.3278C127.556 31.7063 127.869 32.1201 128.06 32.6348C127.778 32.7559 127.546 32.6298 127.324 32.544C126.644 32.2715 126.074 31.8324 125.57 31.3026C124.869 30.5608 124.365 29.6928 123.942 28.7743C123.821 28.5069 123.695 28.2394 123.529 27.8761C123.387 28.1486 123.448 28.3151 123.483 28.4816C123.665 29.2386 123.957 29.9501 124.355 30.6163C124.552 30.9493 124.748 31.2824 124.93 31.6205C125.021 31.7921 125.086 31.9838 125.187 32.2261C124.758 32.221 124.496 32.0292 124.254 31.8123C123.73 31.3581 123.287 30.8333 122.929 30.2378C122.616 29.718 122.329 29.1881 122.031 28.6633C121.936 28.4917 121.84 28.3202 121.739 28.1536C121.689 28.1688 121.643 28.1839 121.593 28.194Z" fill="#FFA104"/>
</svg>
