<svg width="27" height="28" viewBox="0 0 27 28" fill="none" xmlns="http://www.w3.org/2000/svg">
<path d="M22.8566 4.84825C21.1358 4.02939 19.2904 3.42609 17.3609 3.08055C17.3257 3.07388 17.2906 3.09055 17.2725 3.12388C17.0352 3.56163 16.7723 4.13271 16.5882 4.58158C14.513 4.25938 12.4483 4.25938 10.4156 4.58158C10.2315 4.12273 9.95905 3.56163 9.72065 3.12388C9.70255 3.09166 9.66744 3.07499 9.63231 3.08055C7.7039 3.42498 5.85851 4.02828 4.13655 4.84825C4.12164 4.85492 4.10887 4.86604 4.10039 4.88047C0.600066 10.3036 -0.358819 15.5934 0.111578 20.8176C0.113706 20.8431 0.127541 20.8676 0.146698 20.8831C2.45611 22.6419 4.69317 23.7096 6.88869 24.4174C6.92383 24.4285 6.96106 24.4152 6.98342 24.3852C7.50277 23.6497 7.96572 22.8741 8.36266 22.0586C8.38609 22.0108 8.36373 21.9542 8.31585 21.9353C7.58152 21.6464 6.8823 21.2942 6.2097 20.8942C6.15649 20.862 6.15224 20.7831 6.20118 20.7453C6.34272 20.6353 6.4843 20.5209 6.61945 20.4053C6.6439 20.3842 6.67797 20.3798 6.70672 20.3931C11.1254 22.4853 15.9092 22.4853 20.2758 20.3931C20.3046 20.3787 20.3386 20.3831 20.3642 20.4042C20.4994 20.5198 20.6409 20.6353 20.7835 20.7453C20.8324 20.7831 20.8292 20.862 20.776 20.8942C20.1034 21.302 19.4042 21.6464 18.6688 21.9342C18.6209 21.9531 18.5997 22.0108 18.6231 22.0586C19.0285 22.873 19.4915 23.6485 20.0013 24.3841C20.0226 24.4152 20.0608 24.4285 20.096 24.4174C22.3022 23.7096 24.5392 22.6419 26.8486 20.8831C26.8688 20.8676 26.8816 20.8442 26.8837 20.8187C27.4467 14.7789 25.9408 9.53249 22.8917 4.88157C22.8843 4.86604 22.8715 4.85492 22.8566 4.84825ZM9.02253 17.6366C7.69219 17.6366 6.59602 16.37 6.59602 14.8145C6.59602 13.259 7.67093 11.9924 9.02253 11.9924C10.3847 11.9924 11.4703 13.2701 11.449 14.8145C11.449 16.37 10.3741 17.6366 9.02253 17.6366ZM17.9941 17.6366C16.6638 17.6366 15.5676 16.37 15.5676 14.8145C15.5676 13.259 16.6425 11.9924 17.9941 11.9924C19.3563 11.9924 20.4419 13.2701 20.4206 14.8145C20.4206 16.37 19.3563 17.6366 17.9941 17.6366Z" fill="white" fill-opacity="0.6"/>
</svg>
